<svg id="Ñëîé_1" data-name="Ñëîé 1" xmlns="http://www.w3.org/2000/svg" xmlns:xlink="http://www.w3.org/1999/xlink" viewBox="0 0 438.48 324.79"><defs><style>.cls-1{fill:url(#Gradiente_sem_nome);}.cls-2{fill:url(#Gradiente_sem_nome_2);}.cls-3{fill:url(#Gradiente_sem_nome_3);}.cls-4{fill:#020230;opacity:0.6;}.cls-14,.cls-15,.cls-29,.cls-4{isolation:isolate;}.cls-5{fill:url(#Gradiente_sem_nome_4);}.cls-6{fill:url(#Gradiente_sem_nome_5);}.cls-7{fill:url(#Gradiente_sem_nome_6);}.cls-8{fill:url(#Gradiente_sem_nome_7);}.cls-29,.cls-9{fill:#fff;}.cls-10,.cls-14{opacity:0.4;}.cls-11,.cls-14,.cls-15{fill:#06033e;}.cls-12{fill:url(#Gradiente_sem_nome_8);}.cls-13{fill:url(#Gradiente_sem_nome_9);}.cls-15,.cls-17,.cls-29{opacity:0.5;}.cls-16{fill:url(#Gradiente_sem_nome_10);}.cls-18{fill:#e8975b;}.cls-19{fill:#f8359e;}.cls-20{fill:url(#Gradiente_sem_nome_11);}.cls-21{fill:url(#Gradiente_sem_nome_12);}.cls-22{fill:url(#Gradiente_sem_nome_13);}.cls-23{fill:url(#Gradiente_sem_nome_14);}.cls-24{fill:url(#Gradiente_sem_nome_15);}.cls-25{fill:url(#Gradiente_sem_nome_16);}.cls-26{fill:url(#Gradiente_sem_nome_17);}.cls-27{fill:#0c0a78;}.cls-28{fill:url(#Gradiente_sem_nome_18);}</style><linearGradient id="Gradiente_sem_nome" x1="481.05" y1="67.08" x2="513.68" y2="67.08" gradientTransform="matrix(1, 0, 0, -1, -75.19, 336.45)" gradientUnits="userSpaceOnUse"><stop offset="0" stop-color="#e39a65"/><stop offset="1" stop-color="#e95f8d"/></linearGradient><linearGradient id="Gradiente_sem_nome_2" x1="436.41" y1="111.78" x2="491.19" y2="111.78" xlink:href="#Gradiente_sem_nome"/><linearGradient id="Gradiente_sem_nome_3" x1="75.19" y1="93.42" x2="129.96" y2="93.42" xlink:href="#Gradiente_sem_nome"/><linearGradient id="Gradiente_sem_nome_4" x1="139" y1="96.92" x2="431.32" y2="96.92" xlink:href="#Gradiente_sem_nome"/><radialGradient id="Gradiente_sem_nome_5" cx="300.45" cy="313.39" r="223.3" gradientTransform="matrix(1, 0, 0, -1, -75.19, 336.45)" gradientUnits="userSpaceOnUse"><stop offset="0" stop-color="#e39a65"/><stop offset="0.47" stop-color="#a92ffb"/><stop offset="0.59" stop-color="#891cfb"/><stop offset="0.74" stop-color="#6507fa"/><stop offset="0.8" stop-color="#0d0c6f"/></radialGradient><radialGradient id="Gradiente_sem_nome_6" cx="163.87" cy="134.07" r="244.17" gradientTransform="matrix(1, 0, 0, -1, -75.19, 336.45)" gradientUnits="userSpaceOnUse"><stop offset="0" stop-color="#e39a65"/><stop offset="0.47" stop-color="#a92ffb"/><stop offset="0.57" stop-color="#891cfb"/><stop offset="0.68" stop-color="#6507fa"/><stop offset="0.74" stop-color="#0d0c6f"/></radialGradient><radialGradient id="Gradiente_sem_nome_7" cx="186.33" cy="183.08" r="218.96" gradientTransform="matrix(1, 0, 0, -1, -75.19, 336.45)" gradientUnits="userSpaceOnUse"><stop offset="0" stop-color="#e39a65"/><stop offset="0.47" stop-color="#a92ffb"/><stop offset="0.59" stop-color="#891cfb"/><stop offset="0.73" stop-color="#6507fa"/><stop offset="1" stop-color="#3919bb"/></radialGradient><radialGradient id="Gradiente_sem_nome_8" cx="240.88" cy="266.82" r="223.34" xlink:href="#Gradiente_sem_nome_7"/><linearGradient id="Gradiente_sem_nome_9" x1="265.43" y1="208.19" x2="444.39" y2="208.19" gradientTransform="matrix(1, 0, 0, -1, -75.19, 336.45)" gradientUnits="userSpaceOnUse"><stop offset="0" stop-color="#3919bb"/><stop offset="1" stop-color="#6507fa"/></linearGradient><radialGradient id="Gradiente_sem_nome_10" cx="159.35" cy="314.51" r="347.85" xlink:href="#Gradiente_sem_nome_7"/><linearGradient id="Gradiente_sem_nome_11" x1="143.45" y1="183.71" x2="220.21" y2="183.71" xlink:href="#Gradiente_sem_nome"/><radialGradient id="Gradiente_sem_nome_12" cx="150.22" cy="246.33" r="165.35" gradientTransform="matrix(1, 0, 0, -1, -75.19, 336.45)" gradientUnits="userSpaceOnUse"><stop offset="0" stop-color="#e39a65"/><stop offset="0.15" stop-color="#a92ffb"/><stop offset="0.41" stop-color="#3919bb"/><stop offset="0.93" stop-color="#3919bb"/></radialGradient><linearGradient id="Gradiente_sem_nome_13" x1="153.14" y1="266.77" x2="212.45" y2="266.77" gradientTransform="matrix(1, 0, 0, -1, -75.19, 336.45)" gradientUnits="userSpaceOnUse"><stop offset="0" stop-color="#e39a65"/><stop offset="0.25" stop-color="#a92ffb"/><stop offset="0.56" stop-color="#3919bb"/></linearGradient><linearGradient id="Gradiente_sem_nome_14" x1="83.52" y1="307.38" x2="131.7" y2="307.38" gradientTransform="matrix(1, 0, 0, -1, 0, 374)" gradientUnits="userSpaceOnUse"><stop offset="0" stop-color="#4f1fec"/><stop offset="1" stop-color="#a92ffb"/></linearGradient><linearGradient id="Gradiente_sem_nome_15" x1="82.38" y1="307.38" x2="130.56" y2="307.38" xlink:href="#Gradiente_sem_nome_14"/><linearGradient id="Gradiente_sem_nome_16" x1="158.68" y1="276.16" x2="219.43" y2="276.16" gradientTransform="matrix(1, 0, 0, -1, -75.19, 336.45)" gradientUnits="userSpaceOnUse"><stop offset="0" stop-color="#131060"/><stop offset="0.19" stop-color="#141062"/><stop offset="0.28" stop-color="#19106a"/><stop offset="0.36" stop-color="#221078"/><stop offset="0.42" stop-color="#2e0f8b"/><stop offset="0.48" stop-color="#3e0fa3"/><stop offset="0.54" stop-color="#510ec2"/><stop offset="0.58" stop-color="#680de5"/><stop offset="0.61" stop-color="#740df8"/><stop offset="0.62" stop-color="#7a14f0"/><stop offset="0.68" stop-color="#9b3cc3"/><stop offset="0.75" stop-color="#b75d9d"/><stop offset="0.81" stop-color="#cc7680"/><stop offset="0.88" stop-color="#dc886c"/><stop offset="0.94" stop-color="#e5935f"/><stop offset="1" stop-color="#e8975b"/></linearGradient><radialGradient id="Gradiente_sem_nome_17" cx="145.74" cy="283.6" r="108.16" gradientTransform="matrix(1, 0, 0, -1, -75.19, 336.45)" gradientUnits="userSpaceOnUse"><stop offset="0" stop-color="#e39a65"/><stop offset="0.25" stop-color="#a92ffb"/><stop offset="0.74" stop-color="#3919bb"/></radialGradient><linearGradient id="Gradiente_sem_nome_18" x1="178.98" y1="256.54" x2="187.39" y2="256.54" xlink:href="#Gradiente_sem_nome_16"/></defs><title>notebook</title><path class="cls-1" d="M422.17,279a7,7,0,0,1-3.48-.94L407,271.25a2.17,2.17,0,0,1-.81-3,2.1,2.1,0,0,1,.81-.81l11.73-6.77a7,7,0,0,1,7,0l11.7,6.74a2.17,2.17,0,0,1,.81,3,2.1,2.1,0,0,1-.81.81L425.66,278A7,7,0,0,1,422.17,279Zm0-17.32a5,5,0,0,0-2.55.68l-11.73,6.77a.32.32,0,0,0-.16.28.3.3,0,0,0,.16.27l11.73,6.81h0a5.12,5.12,0,0,0,5.11,0l11.73-6.77a.3.3,0,0,0,.16-.27.32.32,0,0,0-.16-.28l-11.73-6.77A5.12,5.12,0,0,0,422.17,261.64Z" transform="translate(0 0)"/><path class="cls-2" d="M388.61,240.5A11.34,11.34,0,0,1,383,239l-20.2-11.66a3.08,3.08,0,0,1,0-5.32L383,210.35a11.36,11.36,0,0,1,11.31,0L414.46,222a3.07,3.07,0,0,1,0,5.32L394.26,239A11.33,11.33,0,0,1,388.61,240.5Zm-4.73-3.12a9.49,9.49,0,0,0,9.45,0l20.2-11.66a1.17,1.17,0,0,0,.6-1,1.15,1.15,0,0,0-.6-1l-20.2-11.67a9.49,9.49,0,0,0-9.45,0l-20.2,11.67a1.17,1.17,0,0,0-.6,1,1.2,1.2,0,0,0,.6,1Z" transform="translate(0 0)"/><path class="cls-3" d="M27.38,258.86a11.33,11.33,0,0,1-5.65-1.51L1.53,245.68a3.07,3.07,0,0,1-1.11-4.2,3,3,0,0,1,1.11-1.11l20.2-11.66a11.31,11.31,0,0,1,11.31,0l20.2,11.66a3.07,3.07,0,0,1,1.11,4.2,3,3,0,0,1-1.11,1.11L33,257.35A11.34,11.34,0,0,1,27.38,258.86Zm0-29.8a9.43,9.43,0,0,0-4.72,1.26L2.46,242a1.17,1.17,0,0,0-.6,1.05,1.15,1.15,0,0,0,.6,1l20.2,11.66h0a9.44,9.44,0,0,0,9.45,0L52.31,244a1.18,1.18,0,0,0,0-2.05l-20.2-11.66a9.46,9.46,0,0,0-4.73-1.26Z" transform="translate(0 0)"/><path class="cls-4" d="M231.93,309.73,87.5,226.34c-2.11-1.21-1.84-3.33.59-4.74l92.72-53.52c2.43-1.4,6.1-1.55,8.21-.34l144.43,83.39c2.1,1.22,1.84,3.34-.59,4.74l-92.7,53.52C237.71,310.79,234,311,231.93,309.73Z" transform="translate(0 0)"/><path class="cls-5" d="M235.24,324.79a9.25,9.25,0,0,1-4.55-1.07h0L65.86,228.55a3.68,3.68,0,0,1-2-3.1c0-1.45,1-2.86,2.76-3.87l112.36-65.83c3.09-1.78,7.61-2,10.31-.4L354,250.45a3.68,3.68,0,0,1,2.09,3.16c0,1.44-1,2.85-2.76,3.87L241,323.33A11.83,11.83,0,0,1,235.24,324.79ZM184.68,156.11a10,10,0,0,0-4.85,1.19L67.47,223.14c-1.16.66-1.84,1.5-1.84,2.25a2,2,0,0,0,1.16,1.55l164.83,95.17h0c2.1,1.22,6,1,8.44-.39l112.36-65.83c1.15-.67,1.84-1.51,1.84-2.26a2,2,0,0,0-1.16-1.55L188.27,156.92A7.33,7.33,0,0,0,184.68,156.11Z" transform="translate(0 0)"/><path class="cls-6" d="M371.81,111.33,227.94,28.27a3.74,3.74,0,0,0-2.94-.42h0l-2.67.92.94.23a4.65,4.65,0,0,0-.88,1.64L189.81,136.28a6.37,6.37,0,0,0,2.64,7.11l143.9,83.06a4.07,4.07,0,0,0,1.06.43l-.36.78,2.54-.9h0a4,4,0,0,0,2.31-2.69l32.54-105.62A6.4,6.4,0,0,0,371.81,111.33Z" transform="translate(0 0)"/><path class="cls-7" d="M331.2,230.39l.05.06-142.1-82c-2.09-1.2-5.74-1-8.15.34l-91.81,53-3.06-1.17.85,4.29h0a2.57,2.57,0,0,0,1.38,1.72l143.45,82.82c2.09,1.21,5.74,1.05,8.15-.34L332,236A3.7,3.7,0,0,0,334,233.7h0l.85-4.25Z" transform="translate(0 0)"/><path class="cls-8" d="M231.93,285.62,87.5,202.23c-2.11-1.21-1.84-3.34.59-4.74L180.81,144c2.43-1.4,6.1-1.55,8.21-.34L333.45,227c2.1,1.22,1.84,3.34-.59,4.74l-92.7,53.52C237.71,286.68,234,286.84,231.93,285.62Z" transform="translate(0 0)"/><path class="cls-9" d="M332.81,230.64l-92.7,53.52c-2.43,1.4-6.1,1.55-8.21.34L87.5,201.11a2.69,2.69,0,0,1-1.31-1.5,2.25,2.25,0,0,0,1.31,2.62l144.43,83.39c2.11,1.22,5.78,1.06,8.21-.34l92.67-53.52c1.6-.92,2.24-2.16,1.9-3.24A3.87,3.87,0,0,1,332.81,230.64Z" transform="translate(0 0)"/><g class="cls-10"><path class="cls-11" d="M156.39,188.7l-4.87-2.81c-.4-.23-.35-.63.1-.89l5.76-3.32a1.69,1.69,0,0,1,1.53-.06l4.9,2.83c.4.23.35.62-.11.88L158,188.66A1.69,1.69,0,0,1,156.39,188.7Z" transform="translate(0 0)"/><path class="cls-11" d="M163.92,193.05l-4.87-2.82c-.4-.22-.35-.62.11-.88l5.75-3.32a1.69,1.69,0,0,1,1.53-.06l4.87,2.81c.4.23.35.62-.11.88L165.45,193A1.72,1.72,0,0,1,163.92,193.05Z" transform="translate(0 0)"/><path class="cls-11" d="M171.45,197.45l-4.87-2.82c-.4-.22-.35-.62.11-.88l5.75-3.32a1.72,1.72,0,0,1,1.53-.07l4.87,2.82c.4.22.35.62-.11.88L173,197.38A1.72,1.72,0,0,1,171.45,197.45Z" transform="translate(0 0)"/><path class="cls-11" d="M181.87,193.81,177,191c-.39-.23-.34-.62.11-.88l4.83-2.79a1.69,1.69,0,0,1,1.53-.06l4.88,2.81c.39.23.34.62-.11.88l-4.84,2.79A1.7,1.7,0,0,1,181.87,193.81Z" transform="translate(0 0)"/><path class="cls-11" d="M189.4,198.15l-4.88-2.81c-.39-.23-.34-.62.11-.88l4.83-2.79a1.72,1.72,0,0,1,1.53-.07l4.88,2.82c.39.22.34.62-.11.88l-4.84,2.79A1.66,1.66,0,0,1,189.4,198.15Z" transform="translate(0 0)"/><path class="cls-11" d="M196.93,202.5l-4.88-2.81c-.39-.23-.34-.63.11-.89L197,196a1.72,1.72,0,0,1,1.53-.06l4.88,2.82c.39.22.34.62-.11.88l-4.84,2.8A1.66,1.66,0,0,1,196.93,202.5Z" transform="translate(0 0)"/><path class="cls-11" d="M204.46,206.85,199.58,204c-.39-.22-.34-.62.11-.88l4.83-2.79a1.69,1.69,0,0,1,1.53-.06l4.88,2.81c.39.23.34.62-.11.89L206,206.79A1.7,1.7,0,0,1,204.46,206.85Z" transform="translate(0 0)"/><path class="cls-11" d="M212,211.2l-4.88-2.82c-.39-.22-.34-.62.11-.88l4.83-2.79a1.69,1.69,0,0,1,1.53-.06l4.88,2.81c.39.23.34.62-.11.88l-4.83,2.79A1.72,1.72,0,0,1,212,211.2Z" transform="translate(0 0)"/><path class="cls-11" d="M219.52,215.54l-4.88-2.81c-.39-.23-.34-.62.11-.88l4.83-2.79a1.72,1.72,0,0,1,1.53-.07l4.88,2.82c.39.23.34.62-.11.88l-4.83,2.76A1.69,1.69,0,0,1,219.52,215.54Z" transform="translate(0 0)"/><path class="cls-11" d="M227.05,219.89l-4.88-2.81c-.39-.23-.34-.62.11-.89l4.83-2.74a1.72,1.72,0,0,1,1.53-.06l4.88,2.82c.39.22.34.62-.11.88l-4.83,2.79A1.68,1.68,0,0,1,227.05,219.89Z" transform="translate(0 0)"/><path class="cls-11" d="M234.58,224.24l-4.88-2.79c-.39-.22-.34-.62.11-.88l4.83-2.79a1.69,1.69,0,0,1,1.53-.06l4.88,2.81c.39.23.34.63-.11.89l-4.83,2.79A1.72,1.72,0,0,1,234.58,224.24Z" transform="translate(0 0)"/><path class="cls-11" d="M242.11,228.59l-4.88-2.82c-.39-.22-.34-.62.11-.88l4.83-2.79a1.69,1.69,0,0,1,1.53-.06l4.88,2.81c.39.23.34.62-.11.88l-4.83,2.79A1.72,1.72,0,0,1,242.11,228.59Z" transform="translate(0 0)"/><path class="cls-11" d="M249.64,232.93l-4.83-2.81c-.39-.23-.34-.62.11-.88l4.83-2.79a1.72,1.72,0,0,1,1.53-.07l4.88,2.82c.39.23.34.62-.11.88l-4.83,2.79A1.7,1.7,0,0,1,249.64,232.93Z" transform="translate(0 0)"/><path class="cls-11" d="M193,191.75l-4.87-2.82c-.4-.22-.35-.62.11-.88l4.83-2.79a1.66,1.66,0,0,1,1.52-.06l4.88,2.81c.39.23.34.62-.11.88l-4.83,2.79A1.72,1.72,0,0,1,193,191.75Z" transform="translate(0 0)"/><path class="cls-11" d="M185.32,187.34l-4.88-2.82c-.39-.23-.34-.62.11-.88l4.83-2.79a1.69,1.69,0,0,1,1.53-.06l4.88,2.81c.39.23.34.62-.11.88l-4.87,2.79A1.73,1.73,0,0,1,185.32,187.34Z" transform="translate(0 0)"/><path class="cls-11" d="M177.66,182.92l-10.5-6.07c-.39-.22-.34-.62.11-.88l4.83-2.79a1.69,1.69,0,0,1,1.53-.06l10.5,6.06c.39.23.35.62-.11.88l-4.83,2.79A1.72,1.72,0,0,1,177.66,182.92Z" transform="translate(0 0)"/><path class="cls-11" d="M183,177.54l-8.53-4.92c-.39-.23-.34-.62.11-.88l4.83-2.79a1.69,1.69,0,0,1,1.53-.06l8.52,4.92c.4.22.35.62-.11.88l-4.83,2.76A1.67,1.67,0,0,1,183,177.54Z" transform="translate(0 0)"/><path class="cls-11" d="M200.49,196.1l-4.87-2.82c-.4-.23-.35-.62.11-.88l4.83-2.79a1.66,1.66,0,0,1,1.52-.06l4.88,2.81c.39.23.34.62-.11.88L202,196A1.72,1.72,0,0,1,200.49,196.1Z" transform="translate(0 0)"/><path class="cls-11" d="M208,200.45l-4.87-2.81c-.4-.23-.35-.62.11-.88l4.83-2.79a1.7,1.7,0,0,1,1.52-.07l4.88,2.82c.39.22.34.62-.11.88l-4.83,2.79A1.69,1.69,0,0,1,208,200.45Z" transform="translate(0 0)"/><path class="cls-11" d="M215.55,204.79,210.68,202c-.39-.23-.35-.63.11-.89l4.83-2.79a1.69,1.69,0,0,1,1.53-.06l4.87,2.82c.39.22.34.62-.11.88l-4.83,2.79A1.69,1.69,0,0,1,215.55,204.79Z" transform="translate(0 0)"/><path class="cls-11" d="M223.08,209.14l-4.87-2.82c-.39-.22-.35-.62.11-.88l4.83-2.79a1.69,1.69,0,0,1,1.53-.06l4.87,2.81c.39.23.34.62-.11.89l-4.83,2.78A1.72,1.72,0,0,1,223.08,209.14Z" transform="translate(0 0)"/><path class="cls-11" d="M230.61,213.45l-4.87-2.82c-.39-.23-.35-.62.11-.88l4.83-2.79a1.69,1.69,0,0,1,1.53-.06l4.87,2.81c.39.23.34.62-.11.88l-4.83,2.86A1.72,1.72,0,0,1,230.61,213.45Z" transform="translate(0 0)"/><path class="cls-11" d="M238.14,217.83,233.27,215c-.39-.23-.35-.62.11-.88l4.83-2.79a1.72,1.72,0,0,1,1.53-.07l4.87,2.82c.39.22.34.62-.11.88l-4.83,2.79A1.69,1.69,0,0,1,238.14,217.83Z" transform="translate(0 0)"/><path class="cls-11" d="M245.67,222.18l-4.86-2.81c-.39-.23-.34-.63.11-.89l4.83-2.79a1.69,1.69,0,0,1,1.53-.06l4.87,2.82c.39.22.34.62-.11.88l-4.83,2.79A1.68,1.68,0,0,1,245.67,222.18Z" transform="translate(0 0)"/><path class="cls-11" d="M253.2,226.53l-4.87-2.82c-.39-.22-.34-.62.11-.88l4.83-2.79a1.69,1.69,0,0,1,1.53-.06l4.87,2.81c.39.23.35.62-.11.89l-4.83,2.77A1.75,1.75,0,0,1,253.2,226.53Z" transform="translate(0 0)"/><path class="cls-11" d="M260.73,230.88l-4.87-2.82c-.39-.23-.34-.62.11-.88l4.83-2.79a1.69,1.69,0,0,1,1.53-.06l4.87,2.81c.39.23.35.62-.11.88l-4.83,2.79A1.72,1.72,0,0,1,260.73,230.88Z" transform="translate(0 0)"/><path class="cls-11" d="M274.12,238.61l-10.64-6.16c-.39-.22-.34-.62.11-.88l4.83-2.79a1.69,1.69,0,0,1,1.53-.06l10.64,6.14c.39.23.34.62-.11.88l-4.83,2.79A1.75,1.75,0,0,1,274.12,238.61Z" transform="translate(0 0)"/><path class="cls-11" d="M288.81,230.14l-9-5.18c-.39-.23-.34-.62.11-.89l4.83-2.79a1.72,1.72,0,0,1,1.53-.06l9,5.19c.39.22.34.62-.11.88l-4.83,2.79A1.69,1.69,0,0,1,288.81,230.14Z" transform="translate(0 0)"/><path class="cls-11" d="M213.68,195.24l-4.87-2.79c-.39-.23-.34-.62.11-.88l4.83-2.79a1.72,1.72,0,0,1,1.53-.07l4.88,2.82c.39.23.34.62-.11.88l-4.83,2.79A1.68,1.68,0,0,1,213.68,195.24Z" transform="translate(0 0)"/><path class="cls-11" d="M206,190.79,201.09,188c-.4-.22-.35-.62.11-.88L206,184.3a1.66,1.66,0,0,1,1.52-.06l4.88,2.81c.39.23.34.63-.11.89l-4.83,2.79A1.72,1.72,0,0,1,206,190.79Z" transform="translate(0 0)"/><path class="cls-11" d="M198.24,186.33l-4.87-2.81c-.39-.23-.34-.62.11-.88l4.83-2.79a1.72,1.72,0,0,1,1.53-.07l4.87,2.82c.39.22.35.62-.11.88l-4.79,2.79A1.68,1.68,0,0,1,198.24,186.33Z" transform="translate(0 0)"/><path class="cls-11" d="M190.53,181.88l-4.88-2.82c-.39-.22-.34-.62.11-.88l4.83-2.79a1.69,1.69,0,0,1,1.53-.06l4.88,2.81c.39.23.34.62-.11.88l-4.84,2.79A1.67,1.67,0,0,1,190.53,181.88Z" transform="translate(0 0)"/><path class="cls-11" d="M221.21,199.59l-4.88-2.81c-.39-.23-.34-.62.11-.88l4.83-2.79a1.72,1.72,0,0,1,1.53-.07l4.88,2.82c.39.22.34.62-.11.88l-4.83,2.79A1.69,1.69,0,0,1,221.21,199.59Z" transform="translate(0 0)"/><path class="cls-11" d="M228.74,203.94l-4.88-2.82c-.39-.22-.34-.62.11-.88l4.84-2.79a1.69,1.69,0,0,1,1.53-.06l4.88,2.82c.39.22.34.62-.11.88l-4.83,2.79A1.68,1.68,0,0,1,228.74,203.94Z" transform="translate(0 0)"/><path class="cls-11" d="M236.27,208.29l-4.88-2.84c-.39-.22-.34-.62.11-.88l4.84-2.79a1.66,1.66,0,0,1,1.52-.06l4.88,2.81c.39.23.34.62-.11.88l-4.82,2.81A1.71,1.71,0,0,1,236.27,208.29Z" transform="translate(0 0)"/><path class="cls-11" d="M243.81,212.64l-4.88-2.82c-.39-.23-.34-.62.11-.88l4.84-2.79a1.66,1.66,0,0,1,1.52-.06l4.88,2.81c.39.23.34.62-.11.88l-4.83,2.79A1.72,1.72,0,0,1,243.81,212.64Z" transform="translate(0 0)"/><path class="cls-11" d="M251.33,217l-4.88-2.81c-.39-.23-.34-.62.11-.88l4.84-2.79a1.67,1.67,0,0,1,1.52-.07l4.89,2.82c.39.22.34.62-.11.88l-4.83,2.79A1.68,1.68,0,0,1,251.33,217Z" transform="translate(0 0)"/><path class="cls-11" d="M258.86,221.33,254,218.51c-.39-.22-.34-.62.11-.88l4.84-2.79a1.66,1.66,0,0,1,1.52-.06l4.88,2.82c.39.22.34.62-.11.88l-4.83,2.79A1.69,1.69,0,0,1,258.86,221.33Z" transform="translate(0 0)"/><path class="cls-11" d="M266.39,225.68l-4.88-2.82c-.39-.22-.34-.62.11-.88l4.84-2.79a1.66,1.66,0,0,1,1.52-.06l4.88,2.81c.39.23.34.62-.11.89l-4.83,2.78A1.72,1.72,0,0,1,266.39,225.68Z" transform="translate(0 0)"/><path class="cls-11" d="M273.92,230l-4.87-2.82c-.4-.23-.35-.62.1-.88l4.84-2.79a1.66,1.66,0,0,1,1.52-.06l4.88,2.81c.39.23.34.62-.11.88L275.45,230A1.72,1.72,0,0,1,273.92,230Z" transform="translate(0 0)"/><path class="cls-11" d="M281.45,234.37l-4.87-2.81c-.4-.23-.35-.62.11-.88l4.83-2.79a1.7,1.7,0,0,1,1.52-.07l4.88,2.82c.39.22.34.62-.11.88L283,234.31A1.69,1.69,0,0,1,281.45,234.37Z" transform="translate(0 0)"/><path class="cls-11" d="M209.71,184.45l-4.9-2.77c-.39-.23-.34-.63.11-.89l4.83-2.79a1.72,1.72,0,0,1,1.53-.06l4.87,2.82c.39.22.35.62-.11.88l-4.8,2.81A1.72,1.72,0,0,1,209.71,184.45Z" transform="translate(0 0)"/><path class="cls-11" d="M202.22,180.17l-4.87-2.82c-.4-.23-.35-.62.1-.88l4.84-2.79a1.66,1.66,0,0,1,1.52-.06l4.88,2.81c.39.23.34.62-.11.88l-4.83,2.79A1.72,1.72,0,0,1,202.22,180.17Z" transform="translate(0 0)"/><path class="cls-11" d="M194.73,175.84,189.81,173c-.39-.22-.34-.62.11-.88l4.89-2.79a1.69,1.69,0,0,1,1.53-.06l4.88,2.81c.39.23.34.63-.11.89l-4.83,2.79A1.7,1.7,0,0,1,194.73,175.84Z" transform="translate(0 0)"/><path class="cls-11" d="M187.24,171.51l-4.88-2.81c-.39-.23-.34-.62.11-.88L187.3,165a1.72,1.72,0,0,1,1.53-.07l4.87,2.82c.4.22.35.62-.11.88l-4.78,2.79A1.68,1.68,0,0,1,187.24,171.51Z" transform="translate(0 0)"/><path class="cls-11" d="M194.94,167.06l-4.88-2.81c-.39-.23-.34-.62.11-.88l1.64-.92a1.72,1.72,0,0,1,1.53-.07l4.87,2.82c.4.22.35.62-.1.88l-1.6.92A1.68,1.68,0,0,1,194.94,167.06Z" transform="translate(0 0)"/><path class="cls-11" d="M204.72,172.71l-4.91-2.82c-.39-.22-.34-.62.11-.88l1.6-.92a1.69,1.69,0,0,1,1.53-.06l4.87,2.81c.39.23.35.62-.11.88l-1.59.93A1.69,1.69,0,0,1,204.72,172.71Z" transform="translate(0 0)"/><path class="cls-11" d="M212.18,177l-4.88-2.82c-.39-.22-.34-.62.11-.88l1.6-.92a1.69,1.69,0,0,1,1.53-.06l4.87,2.81c.4.23.35.62-.1.88l-1.6.92A1.72,1.72,0,0,1,212.18,177Z" transform="translate(0 0)"/><path class="cls-11" d="M219.64,181.33l-4.83-2.82c-.4-.23-.35-.62.11-.88l1.59-.92a1.72,1.72,0,0,1,1.53-.07l4.88,2.82c.39.22.34.62-.11.88l-1.6.92A1.74,1.74,0,0,1,219.64,181.33Z" transform="translate(0 0)"/><path class="cls-11" d="M227.1,185.63l-4.87-2.81c-.39-.23-.35-.62.11-.88l1.59-.93a1.72,1.72,0,0,1,1.53-.06l4.88,2.82c.39.22.34.62-.11.88l-1.6.92A1.69,1.69,0,0,1,227.1,185.63Z" transform="translate(0 0)"/><path class="cls-11" d="M268.81,209.68l-4.88-2.81c-.39-.23-.34-.62.11-.88l1.6-.92a1.72,1.72,0,0,1,1.53-.07l4.87,2.82c.4.22.35.62-.11.88l-1.59.92A1.69,1.69,0,0,1,268.81,209.68Z" transform="translate(0 0)"/><path class="cls-11" d="M276.22,214l-4.87-2.81c-.4-.23-.35-.62.11-.88l1.59-.93a1.69,1.69,0,0,1,1.53-.06l4.88,2.82c.39.22.34.62-.11.88l-1.6.92A1.69,1.69,0,0,1,276.22,214Z" transform="translate(0 0)"/><path class="cls-11" d="M283.68,218.3l-4.87-2.85c-.39-.23-.35-.63.11-.89l1.59-.92a1.69,1.69,0,0,1,1.53-.06l4.88,2.81c.39.23.34.62-.11.88l-1.6.93A1.69,1.69,0,0,1,283.68,218.3Z" transform="translate(0 0)"/><path class="cls-11" d="M291.15,222.61l-4.88-2.82c-.39-.22-.34-.62.11-.88L288,218a1.66,1.66,0,0,1,1.52-.06l4.88,2.81c.39.23.34.62-.11.88l-1.6.93A1.7,1.7,0,0,1,291.15,222.61Z" transform="translate(0 0)"/><path class="cls-11" d="M217.24,188.84,212.37,186c-.39-.22-.34-.62.11-.88l4.83-2.79a1.69,1.69,0,0,1,1.53-.06l4.87,2.81c.39.23.35.62-.11.89l-4.79,2.79A1.74,1.74,0,0,1,217.24,188.84Z" transform="translate(0 0)"/><path class="cls-11" d="M224.81,193.19l-4.87-2.82c-.39-.23-.34-.62.11-.88l4.83-2.79a1.69,1.69,0,0,1,1.53-.06l4.87,2.81c.39.23.35.62-.11.88l-4.83,2.79A1.72,1.72,0,0,1,224.81,193.19Z" transform="translate(0 0)"/><path class="cls-11" d="M232.3,197.53l-4.87-2.81c-.39-.23-.34-.62.11-.88l4.83-2.79a1.72,1.72,0,0,1,1.53-.07l4.87,2.82c.4.23.35.62-.11.88l-4.85,2.77A1.71,1.71,0,0,1,232.3,197.53Z" transform="translate(0 0)"/><path class="cls-11" d="M239.81,201.88l-4.88-2.81c-.39-.23-.34-.62.11-.89l4.83-2.79a1.72,1.72,0,0,1,1.53-.06l4.87,2.82c.4.22.35.62-.11.88l-4.83,2.79A1.66,1.66,0,0,1,239.81,201.88Z" transform="translate(0 0)"/><path class="cls-11" d="M247.37,206.23l-4.88-2.78c-.39-.22-.34-.62.11-.88l4.83-2.79a1.69,1.69,0,0,1,1.53-.06l4.85,2.73c.4.23.35.63-.11.89l-4.83,2.79A1.66,1.66,0,0,1,247.37,206.23Z" transform="translate(0 0)"/><path class="cls-11" d="M254.9,210.58,250,207.76c-.39-.22-.34-.62.11-.88l4.83-2.79a1.69,1.69,0,0,1,1.53-.06l4.87,2.81c.4.23.35.62-.11.88l-4.83,2.79A1.7,1.7,0,0,1,254.9,210.58Z" transform="translate(0 0)"/><path class="cls-11" d="M262.43,214.92l-4.88-2.81c-.39-.23-.34-.62.11-.88l4.83-2.79a1.72,1.72,0,0,1,1.53-.07l4.87,2.82c.4.23.35.62-.11.88L264,214.86A1.66,1.66,0,0,1,262.43,214.92Z" transform="translate(0 0)"/><path class="cls-11" d="M270,219.27l-4.88-2.82c-.39-.23-.34-.62.11-.89l4.83-2.78a1.72,1.72,0,0,1,1.53-.07l4.87,2.82c.4.22.35.62-.1.88l-4.84,2.79A1.67,1.67,0,0,1,270,219.27Z" transform="translate(0 0)"/><path class="cls-11" d="M277.49,223.62l-4.88-2.82c-.39-.22-.34-.62.11-.88l4.83-2.79a1.69,1.69,0,0,1,1.53-.06l4.88,2.81c.39.23.34.63-.11.89L279,223.56A1.66,1.66,0,0,1,277.49,223.62Z" transform="translate(0 0)"/><path class="cls-11" d="M174.19,189.38l-14.38-8.3c-.39-.22-.34-.62.11-.88l4.89-2.75a1.69,1.69,0,0,1,1.53-.06l14.36,8.29c.39.23.34.62-.11.88l-4.83,2.79A1.74,1.74,0,0,1,174.19,189.38Z" transform="translate(0 0)"/><path class="cls-11" d="M266.7,242.79l-14.36-8.29c-.39-.23-.34-.63.11-.89l4.83-2.79a1.69,1.69,0,0,1,1.53-.06l14.36,8.29c.39.23.34.62-.11.88l-4.83,2.79A1.72,1.72,0,0,1,266.7,242.79Z" transform="translate(0 0)"/><path class="cls-11" d="M236.59,235l-4.88-2.81c-.39-.23-.34-.62.11-.88l5.76-3.33a1.69,1.69,0,0,1,1.53-.06l4.87,2.82c.39.22.34.62-.11.88l-5.75,3.32A1.69,1.69,0,0,1,236.59,235Z" transform="translate(0 0)"/><path class="cls-11" d="M181.9,203.45l-7.79-4.5c-.4-.23-.35-.62.11-.88l5.75-3.33a1.69,1.69,0,0,1,1.53-.06l7.8,4.5c.39.23.34.62-.11.88l-5.76,3.33A1.69,1.69,0,0,1,181.9,203.45Z" transform="translate(0 0)"/><path class="cls-11" d="M229.33,230.81l-7.79-4.5c-.4-.22-.35-.62.11-.88l5.75-3.32a1.72,1.72,0,0,1,1.53-.07l7.8,4.51c.39.22.34.62-.11.88l-5.76,3.32A1.69,1.69,0,0,1,229.33,230.81Z" transform="translate(0 0)"/><path class="cls-11" d="M192.81,209.7l-7.8-4.5c-.39-.22-.34-.62.11-.88l5.76-3.32a1.7,1.7,0,0,1,1.52-.07l7.8,4.51c.39.22.34.62-.11.88l-5.75,3.32A1.69,1.69,0,0,1,192.81,209.7Z" transform="translate(0 0)"/><path class="cls-11" d="M192.42,201l33.9,19.58a.46.46,0,0,1,0,.88l-5.87,3.39a1.69,1.69,0,0,1-1.52,0L185,205.23Z" transform="translate(0 0)"/><path class="cls-11" d="M257.64,242.89l5.43,3.13c.32.19.28.51-.09.72l-2.36,1.36a1.38,1.38,0,0,1-1.25.06L253.94,245c-.32-.18-.28-.51.09-.72l2.35-1.36A1.37,1.37,0,0,1,257.64,242.89Z" transform="translate(0 0)"/><path class="cls-11" d="M250,238.5l5.43,3.14c.32.18.28.51-.09.72L253,243.72a1.38,1.38,0,0,1-1.25.05l-5.43-3.13c-.32-.19-.28-.51.09-.73l2.37-1.36A1.43,1.43,0,0,1,250,238.5Z" transform="translate(0 0)"/><path class="cls-11" d="M242.51,234.15l5.43,3.14c.32.19.28.51-.09.72l-2.35,1.36a1.35,1.35,0,0,1-1.25,0l-5.44-3.13c-.33-.19-.28-.51.09-.72l2.35-1.36A1.4,1.4,0,0,1,242.51,234.15Z" transform="translate(0 0)"/><path class="cls-11" d="M254.2,236.1l5.43,3.14c.32.18.28.51-.09.72l-2.35,1.36a1.38,1.38,0,0,1-1.25.05l-5.44-3.13c-.32-.19-.28-.51.09-.73l2.36-1.36A1.41,1.41,0,0,1,254.2,236.1Z" transform="translate(0 0)"/></g><g class="cls-10"><path class="cls-11" d="M156.39,188.7l-4.87-2.81c-.4-.23-.35-.63.1-.89l5.76-3.32a1.69,1.69,0,0,1,1.53-.06l4.9,2.83c.4.23.35.62-.11.88L158,188.66A1.69,1.69,0,0,1,156.39,188.7Z" transform="translate(0 0)"/><path class="cls-11" d="M163.92,193.05l-4.87-2.82c-.4-.22-.35-.62.11-.88l5.75-3.32a1.69,1.69,0,0,1,1.53-.06l4.87,2.81c.4.23.35.62-.11.88L165.45,193A1.72,1.72,0,0,1,163.92,193.05Z" transform="translate(0 0)"/><path class="cls-11" d="M171.45,197.45l-4.87-2.82c-.4-.22-.35-.62.11-.88l5.75-3.32a1.72,1.72,0,0,1,1.53-.07l4.87,2.82c.4.22.35.62-.11.88L173,197.38A1.72,1.72,0,0,1,171.45,197.45Z" transform="translate(0 0)"/><path class="cls-11" d="M181.87,193.81,177,191c-.39-.23-.34-.62.11-.88l4.83-2.79a1.69,1.69,0,0,1,1.53-.06l4.88,2.81c.39.23.34.62-.11.88l-4.84,2.79A1.7,1.7,0,0,1,181.87,193.81Z" transform="translate(0 0)"/><path class="cls-11" d="M189.4,198.15l-4.88-2.81c-.39-.23-.34-.62.11-.88l4.83-2.79a1.72,1.72,0,0,1,1.53-.07l4.88,2.82c.39.22.34.62-.11.88l-4.84,2.79A1.66,1.66,0,0,1,189.4,198.15Z" transform="translate(0 0)"/><path class="cls-11" d="M196.93,202.5l-4.88-2.81c-.39-.23-.34-.63.11-.89L197,196a1.72,1.72,0,0,1,1.53-.06l4.88,2.82c.39.22.34.62-.11.88l-4.84,2.8A1.66,1.66,0,0,1,196.93,202.5Z" transform="translate(0 0)"/><path class="cls-11" d="M204.46,206.85,199.58,204c-.39-.22-.34-.62.11-.88l4.83-2.79a1.69,1.69,0,0,1,1.53-.06l4.88,2.81c.39.23.34.62-.11.89L206,206.79A1.7,1.7,0,0,1,204.46,206.85Z" transform="translate(0 0)"/><path class="cls-11" d="M212,211.2l-4.88-2.82c-.39-.22-.34-.62.11-.88l4.83-2.79a1.69,1.69,0,0,1,1.53-.06l4.88,2.81c.39.23.34.62-.11.88l-4.83,2.79A1.72,1.72,0,0,1,212,211.2Z" transform="translate(0 0)"/><path class="cls-11" d="M219.52,215.54l-4.88-2.81c-.39-.23-.34-.62.11-.88l4.83-2.79a1.72,1.72,0,0,1,1.53-.07l4.88,2.82c.39.23.34.62-.11.88l-4.83,2.76A1.69,1.69,0,0,1,219.52,215.54Z" transform="translate(0 0)"/><path class="cls-11" d="M227.05,219.89l-4.88-2.81c-.39-.23-.34-.62.11-.89l4.83-2.74a1.72,1.72,0,0,1,1.53-.06l4.88,2.82c.39.22.34.62-.11.88l-4.83,2.79A1.68,1.68,0,0,1,227.05,219.89Z" transform="translate(0 0)"/><path class="cls-11" d="M234.58,224.24l-4.88-2.79c-.39-.22-.34-.62.11-.88l4.83-2.79a1.69,1.69,0,0,1,1.53-.06l4.88,2.81c.39.23.34.63-.11.89l-4.83,2.79A1.72,1.72,0,0,1,234.58,224.24Z" transform="translate(0 0)"/><path class="cls-11" d="M242.11,228.59l-4.88-2.82c-.39-.22-.34-.62.11-.88l4.83-2.79a1.69,1.69,0,0,1,1.53-.06l4.88,2.81c.39.23.34.62-.11.88l-4.83,2.79A1.72,1.72,0,0,1,242.11,228.59Z" transform="translate(0 0)"/><path class="cls-11" d="M249.64,232.93l-4.83-2.81c-.39-.23-.34-.62.11-.88l4.83-2.79a1.72,1.72,0,0,1,1.53-.07l4.88,2.82c.39.23.34.62-.11.88l-4.83,2.79A1.7,1.7,0,0,1,249.64,232.93Z" transform="translate(0 0)"/><path class="cls-11" d="M193,191.75l-4.87-2.82c-.4-.22-.35-.62.11-.88l4.83-2.79a1.66,1.66,0,0,1,1.52-.06l4.88,2.81c.39.23.34.62-.11.88l-4.83,2.79A1.72,1.72,0,0,1,193,191.75Z" transform="translate(0 0)"/><path class="cls-11" d="M185.32,187.34l-4.88-2.82c-.39-.23-.34-.62.11-.88l4.83-2.79a1.69,1.69,0,0,1,1.53-.06l4.88,2.81c.39.23.34.62-.11.88l-4.87,2.79A1.73,1.73,0,0,1,185.32,187.34Z" transform="translate(0 0)"/><path class="cls-11" d="M177.66,182.92l-10.5-6.07c-.39-.22-.34-.62.11-.88l4.83-2.79a1.69,1.69,0,0,1,1.53-.06l10.5,6.06c.39.23.35.62-.11.88l-4.83,2.79A1.72,1.72,0,0,1,177.66,182.92Z" transform="translate(0 0)"/><path class="cls-11" d="M183,177.54l-8.53-4.92c-.39-.23-.34-.62.11-.88l4.83-2.79a1.69,1.69,0,0,1,1.53-.06l8.52,4.92c.4.22.35.62-.11.88l-4.83,2.76A1.67,1.67,0,0,1,183,177.54Z" transform="translate(0 0)"/><path class="cls-11" d="M200.49,196.1l-4.87-2.82c-.4-.23-.35-.62.11-.88l4.83-2.79a1.66,1.66,0,0,1,1.52-.06l4.88,2.81c.39.23.34.62-.11.88L202,196A1.72,1.72,0,0,1,200.49,196.1Z" transform="translate(0 0)"/><path class="cls-11" d="M208,200.45l-4.87-2.81c-.4-.23-.35-.62.11-.88l4.83-2.79a1.7,1.7,0,0,1,1.52-.07l4.88,2.82c.39.22.34.62-.11.88l-4.83,2.79A1.69,1.69,0,0,1,208,200.45Z" transform="translate(0 0)"/><path class="cls-11" d="M215.55,204.79,210.68,202c-.39-.23-.35-.63.11-.89l4.83-2.79a1.69,1.69,0,0,1,1.53-.06l4.87,2.82c.39.22.34.62-.11.88l-4.83,2.79A1.69,1.69,0,0,1,215.55,204.79Z" transform="translate(0 0)"/><path class="cls-11" d="M223.08,209.14l-4.87-2.82c-.39-.22-.35-.62.11-.88l4.83-2.79a1.69,1.69,0,0,1,1.53-.06l4.87,2.81c.39.23.34.62-.11.89l-4.83,2.78A1.72,1.72,0,0,1,223.08,209.14Z" transform="translate(0 0)"/><path class="cls-11" d="M230.61,213.45l-4.87-2.82c-.39-.23-.35-.62.11-.88l4.83-2.79a1.69,1.69,0,0,1,1.53-.06l4.87,2.81c.39.23.34.62-.11.88l-4.83,2.86A1.72,1.72,0,0,1,230.61,213.45Z" transform="translate(0 0)"/><path class="cls-11" d="M238.14,217.83,233.27,215c-.39-.23-.35-.62.11-.88l4.83-2.79a1.72,1.72,0,0,1,1.53-.07l4.87,2.82c.39.22.34.62-.11.88l-4.83,2.79A1.69,1.69,0,0,1,238.14,217.83Z" transform="translate(0 0)"/><path class="cls-11" d="M245.67,222.18l-4.86-2.81c-.39-.23-.34-.63.11-.89l4.83-2.79a1.69,1.69,0,0,1,1.53-.06l4.87,2.82c.39.22.34.62-.11.88l-4.83,2.79A1.68,1.68,0,0,1,245.67,222.18Z" transform="translate(0 0)"/><path class="cls-11" d="M253.2,226.53l-4.87-2.82c-.39-.22-.34-.62.11-.88l4.83-2.79a1.69,1.69,0,0,1,1.53-.06l4.87,2.81c.39.23.35.62-.11.89l-4.83,2.77A1.75,1.75,0,0,1,253.2,226.53Z" transform="translate(0 0)"/><path class="cls-11" d="M260.73,230.88l-4.87-2.82c-.39-.23-.34-.62.11-.88l4.83-2.79a1.69,1.69,0,0,1,1.53-.06l4.87,2.81c.39.23.35.62-.11.88l-4.83,2.79A1.72,1.72,0,0,1,260.73,230.88Z" transform="translate(0 0)"/><path class="cls-11" d="M274.12,238.61l-10.64-6.16c-.39-.22-.34-.62.11-.88l4.83-2.79a1.69,1.69,0,0,1,1.53-.06l10.64,6.14c.39.23.34.62-.11.88l-4.83,2.79A1.75,1.75,0,0,1,274.12,238.61Z" transform="translate(0 0)"/><path class="cls-11" d="M288.81,230.14l-9-5.18c-.39-.23-.34-.62.11-.89l4.83-2.79a1.72,1.72,0,0,1,1.53-.06l9,5.19c.39.22.34.62-.11.88l-4.83,2.79A1.69,1.69,0,0,1,288.81,230.14Z" transform="translate(0 0)"/><path class="cls-11" d="M213.68,195.24l-4.87-2.79c-.39-.23-.34-.62.11-.88l4.83-2.79a1.72,1.72,0,0,1,1.53-.07l4.88,2.82c.39.23.34.62-.11.88l-4.83,2.79A1.68,1.68,0,0,1,213.68,195.24Z" transform="translate(0 0)"/><path class="cls-11" d="M206,190.79,201.09,188c-.4-.22-.35-.62.11-.88L206,184.3a1.66,1.66,0,0,1,1.52-.06l4.88,2.81c.39.23.34.63-.11.89l-4.83,2.79A1.72,1.72,0,0,1,206,190.79Z" transform="translate(0 0)"/><path class="cls-11" d="M198.24,186.33l-4.87-2.81c-.39-.23-.34-.62.11-.88l4.83-2.79a1.72,1.72,0,0,1,1.53-.07l4.87,2.82c.39.22.35.62-.11.88l-4.79,2.79A1.68,1.68,0,0,1,198.24,186.33Z" transform="translate(0 0)"/><path class="cls-11" d="M190.53,181.88l-4.88-2.82c-.39-.22-.34-.62.11-.88l4.83-2.79a1.69,1.69,0,0,1,1.53-.06l4.88,2.81c.39.23.34.62-.11.88l-4.84,2.79A1.67,1.67,0,0,1,190.53,181.88Z" transform="translate(0 0)"/><path class="cls-11" d="M221.21,199.59l-4.88-2.81c-.39-.23-.34-.62.11-.88l4.83-2.79a1.72,1.72,0,0,1,1.53-.07l4.88,2.82c.39.22.34.62-.11.88l-4.83,2.79A1.69,1.69,0,0,1,221.21,199.59Z" transform="translate(0 0)"/><path class="cls-11" d="M228.74,203.94l-4.88-2.82c-.39-.22-.34-.62.11-.88l4.84-2.79a1.69,1.69,0,0,1,1.53-.06l4.88,2.82c.39.22.34.62-.11.88l-4.83,2.79A1.68,1.68,0,0,1,228.74,203.94Z" transform="translate(0 0)"/><path class="cls-11" d="M236.27,208.29l-4.88-2.84c-.39-.22-.34-.62.11-.88l4.84-2.79a1.66,1.66,0,0,1,1.52-.06l4.88,2.81c.39.23.34.62-.11.88l-4.82,2.81A1.71,1.71,0,0,1,236.27,208.29Z" transform="translate(0 0)"/><path class="cls-11" d="M243.81,212.64l-4.88-2.82c-.39-.23-.34-.62.11-.88l4.84-2.79a1.66,1.66,0,0,1,1.52-.06l4.88,2.81c.39.23.34.62-.11.88l-4.83,2.79A1.72,1.72,0,0,1,243.81,212.64Z" transform="translate(0 0)"/><path class="cls-11" d="M251.33,217l-4.88-2.81c-.39-.23-.34-.62.11-.88l4.84-2.79a1.67,1.67,0,0,1,1.52-.07l4.89,2.82c.39.22.34.62-.11.88l-4.83,2.79A1.68,1.68,0,0,1,251.33,217Z" transform="translate(0 0)"/><path class="cls-11" d="M258.86,221.33,254,218.51c-.39-.22-.34-.62.11-.88l4.84-2.79a1.66,1.66,0,0,1,1.52-.06l4.88,2.82c.39.22.34.62-.11.88l-4.83,2.79A1.69,1.69,0,0,1,258.86,221.33Z" transform="translate(0 0)"/><path class="cls-11" d="M266.39,225.68l-4.88-2.82c-.39-.22-.34-.62.11-.88l4.84-2.79a1.66,1.66,0,0,1,1.52-.06l4.88,2.81c.39.23.34.62-.11.89l-4.83,2.78A1.72,1.72,0,0,1,266.39,225.68Z" transform="translate(0 0)"/><path class="cls-11" d="M273.92,230l-4.87-2.82c-.4-.23-.35-.62.1-.88l4.84-2.79a1.66,1.66,0,0,1,1.52-.06l4.88,2.81c.39.23.34.62-.11.88L275.45,230A1.72,1.72,0,0,1,273.92,230Z" transform="translate(0 0)"/><path class="cls-11" d="M281.45,234.37l-4.87-2.81c-.4-.23-.35-.62.11-.88l4.83-2.79a1.7,1.7,0,0,1,1.52-.07l4.88,2.82c.39.22.34.62-.11.88L283,234.31A1.69,1.69,0,0,1,281.45,234.37Z" transform="translate(0 0)"/><path class="cls-11" d="M209.71,184.45l-4.9-2.77c-.39-.23-.34-.63.11-.89l4.83-2.79a1.72,1.72,0,0,1,1.53-.06l4.87,2.82c.39.22.35.62-.11.88l-4.8,2.81A1.72,1.72,0,0,1,209.71,184.45Z" transform="translate(0 0)"/><path class="cls-11" d="M202.22,180.17l-4.87-2.82c-.4-.23-.35-.62.1-.88l4.84-2.79a1.66,1.66,0,0,1,1.52-.06l4.88,2.81c.39.23.34.62-.11.88l-4.83,2.79A1.72,1.72,0,0,1,202.22,180.17Z" transform="translate(0 0)"/><path class="cls-11" d="M194.73,175.84,189.81,173c-.39-.22-.34-.62.11-.88l4.89-2.79a1.69,1.69,0,0,1,1.53-.06l4.88,2.81c.39.23.34.63-.11.89l-4.83,2.79A1.7,1.7,0,0,1,194.73,175.84Z" transform="translate(0 0)"/><path class="cls-11" d="M187.24,171.51l-4.88-2.81c-.39-.23-.34-.62.11-.88L187.3,165a1.72,1.72,0,0,1,1.53-.07l4.87,2.82c.4.22.35.62-.11.88l-4.78,2.79A1.68,1.68,0,0,1,187.24,171.51Z" transform="translate(0 0)"/><path class="cls-11" d="M194.94,167.06l-4.88-2.81c-.39-.23-.34-.62.11-.88l1.64-.92a1.72,1.72,0,0,1,1.53-.07l4.87,2.82c.4.22.35.62-.1.88l-1.6.92A1.68,1.68,0,0,1,194.94,167.06Z" transform="translate(0 0)"/><path class="cls-11" d="M204.72,172.71l-4.91-2.82c-.39-.22-.34-.62.11-.88l1.6-.92a1.69,1.69,0,0,1,1.53-.06l4.87,2.81c.39.23.35.62-.11.88l-1.59.93A1.69,1.69,0,0,1,204.72,172.71Z" transform="translate(0 0)"/><path class="cls-11" d="M212.18,177l-4.88-2.82c-.39-.22-.34-.62.11-.88l1.6-.92a1.69,1.69,0,0,1,1.53-.06l4.87,2.81c.4.23.35.62-.1.88l-1.6.92A1.72,1.72,0,0,1,212.18,177Z" transform="translate(0 0)"/><path class="cls-11" d="M219.64,181.33l-4.83-2.82c-.4-.23-.35-.62.11-.88l1.59-.92a1.72,1.72,0,0,1,1.53-.07l4.88,2.82c.39.22.34.62-.11.88l-1.6.92A1.74,1.74,0,0,1,219.64,181.33Z" transform="translate(0 0)"/><path class="cls-11" d="M227.1,185.63l-4.87-2.81c-.39-.23-.35-.62.11-.88l1.59-.93a1.72,1.72,0,0,1,1.53-.06l4.88,2.82c.39.22.34.62-.11.88l-1.6.92A1.69,1.69,0,0,1,227.1,185.63Z" transform="translate(0 0)"/><path class="cls-11" d="M268.81,209.68l-4.88-2.81c-.39-.23-.34-.62.11-.88l1.6-.92a1.72,1.72,0,0,1,1.53-.07l4.87,2.82c.4.22.35.62-.11.88l-1.59.92A1.69,1.69,0,0,1,268.81,209.68Z" transform="translate(0 0)"/><path class="cls-11" d="M276.22,214l-4.87-2.81c-.4-.23-.35-.62.11-.88l1.59-.93a1.69,1.69,0,0,1,1.53-.06l4.88,2.82c.39.22.34.62-.11.88l-1.6.92A1.69,1.69,0,0,1,276.22,214Z" transform="translate(0 0)"/><path class="cls-11" d="M283.68,218.3l-4.87-2.85c-.39-.23-.35-.63.11-.89l1.59-.92a1.69,1.69,0,0,1,1.53-.06l4.88,2.81c.39.23.34.62-.11.88l-1.6.93A1.69,1.69,0,0,1,283.68,218.3Z" transform="translate(0 0)"/><path class="cls-11" d="M291.15,222.61l-4.88-2.82c-.39-.22-.34-.62.11-.88L288,218a1.66,1.66,0,0,1,1.52-.06l4.88,2.81c.39.23.34.62-.11.88l-1.6.93A1.7,1.7,0,0,1,291.15,222.61Z" transform="translate(0 0)"/><path class="cls-11" d="M217.24,188.84,212.37,186c-.39-.22-.34-.62.11-.88l4.83-2.79a1.69,1.69,0,0,1,1.53-.06l4.87,2.81c.39.23.35.62-.11.89l-4.79,2.79A1.74,1.74,0,0,1,217.24,188.84Z" transform="translate(0 0)"/><path class="cls-11" d="M224.81,193.19l-4.87-2.82c-.39-.23-.34-.62.11-.88l4.83-2.79a1.69,1.69,0,0,1,1.53-.06l4.87,2.81c.39.23.35.62-.11.88l-4.83,2.79A1.72,1.72,0,0,1,224.81,193.19Z" transform="translate(0 0)"/><path class="cls-11" d="M232.3,197.53l-4.87-2.81c-.39-.23-.34-.62.11-.88l4.83-2.79a1.72,1.72,0,0,1,1.53-.07l4.87,2.82c.4.23.35.62-.11.88l-4.85,2.77A1.71,1.71,0,0,1,232.3,197.53Z" transform="translate(0 0)"/><path class="cls-11" d="M239.81,201.88l-4.88-2.81c-.39-.23-.34-.62.11-.89l4.83-2.79a1.72,1.72,0,0,1,1.53-.06l4.87,2.82c.4.22.35.62-.11.88l-4.83,2.79A1.66,1.66,0,0,1,239.81,201.88Z" transform="translate(0 0)"/><path class="cls-11" d="M247.37,206.23l-4.88-2.78c-.39-.22-.34-.62.11-.88l4.83-2.79a1.69,1.69,0,0,1,1.53-.06l4.85,2.73c.4.23.35.63-.11.89l-4.83,2.79A1.66,1.66,0,0,1,247.37,206.23Z" transform="translate(0 0)"/><path class="cls-11" d="M254.9,210.58,250,207.76c-.39-.22-.34-.62.11-.88l4.83-2.79a1.69,1.69,0,0,1,1.53-.06l4.87,2.81c.4.23.35.62-.11.88l-4.83,2.79A1.7,1.7,0,0,1,254.9,210.58Z" transform="translate(0 0)"/><path class="cls-11" d="M262.43,214.92l-4.88-2.81c-.39-.23-.34-.62.11-.88l4.83-2.79a1.72,1.72,0,0,1,1.53-.07l4.87,2.82c.4.23.35.62-.11.88L264,214.86A1.66,1.66,0,0,1,262.43,214.92Z" transform="translate(0 0)"/><path class="cls-11" d="M270,219.27l-4.88-2.82c-.39-.23-.34-.62.11-.89l4.83-2.78a1.72,1.72,0,0,1,1.53-.07l4.87,2.82c.4.22.35.62-.1.88l-4.84,2.79A1.67,1.67,0,0,1,270,219.27Z" transform="translate(0 0)"/><path class="cls-11" d="M277.49,223.62l-4.88-2.82c-.39-.22-.34-.62.11-.88l4.83-2.79a1.69,1.69,0,0,1,1.53-.06l4.88,2.81c.39.23.34.63-.11.89L279,223.56A1.66,1.66,0,0,1,277.49,223.62Z" transform="translate(0 0)"/><path class="cls-11" d="M174.19,189.38l-14.38-8.3c-.39-.22-.34-.62.11-.88l4.89-2.75a1.69,1.69,0,0,1,1.53-.06l14.36,8.29c.39.23.34.62-.11.88l-4.83,2.79A1.74,1.74,0,0,1,174.19,189.38Z" transform="translate(0 0)"/><path class="cls-11" d="M266.7,242.79l-14.36-8.29c-.39-.23-.34-.63.11-.89l4.83-2.79a1.69,1.69,0,0,1,1.53-.06l14.36,8.29c.39.23.34.62-.11.88l-4.83,2.79A1.72,1.72,0,0,1,266.7,242.79Z" transform="translate(0 0)"/><path class="cls-11" d="M236.59,235l-4.88-2.81c-.39-.23-.34-.62.11-.88l5.76-3.33a1.69,1.69,0,0,1,1.53-.06l4.87,2.82c.39.22.34.62-.11.88l-5.75,3.32A1.69,1.69,0,0,1,236.59,235Z" transform="translate(0 0)"/><path class="cls-11" d="M181.9,203.45l-7.79-4.5c-.4-.23-.35-.62.11-.88l5.75-3.33a1.69,1.69,0,0,1,1.53-.06l7.8,4.5c.39.23.34.62-.11.88l-5.76,3.33A1.69,1.69,0,0,1,181.9,203.45Z" transform="translate(0 0)"/><path class="cls-11" d="M229.33,230.81l-7.79-4.5c-.4-.22-.35-.62.11-.88l5.75-3.32a1.72,1.72,0,0,1,1.53-.07l7.8,4.51c.39.22.34.62-.11.88l-5.76,3.32A1.69,1.69,0,0,1,229.33,230.81Z" transform="translate(0 0)"/><path class="cls-11" d="M192.81,209.7l-7.8-4.5c-.39-.22-.34-.62.11-.88l5.76-3.32a1.7,1.7,0,0,1,1.52-.07l7.8,4.51c.39.22.34.62-.11.88l-5.75,3.32A1.69,1.69,0,0,1,192.81,209.7Z" transform="translate(0 0)"/><path class="cls-11" d="M192.42,201l33.9,19.58a.46.46,0,0,1,0,.88l-5.87,3.39a1.69,1.69,0,0,1-1.52,0L185,205.23Z" transform="translate(0 0)"/><path class="cls-11" d="M257.64,242.89l5.43,3.13c.32.19.28.51-.09.72l-2.36,1.36a1.38,1.38,0,0,1-1.25.06L253.94,245c-.32-.18-.28-.51.09-.72l2.35-1.36A1.37,1.37,0,0,1,257.64,242.89Z" transform="translate(0 0)"/><path class="cls-11" d="M250,238.5l5.43,3.14c.32.18.28.51-.09.72L253,243.72a1.38,1.38,0,0,1-1.25.05l-5.43-3.13c-.32-.19-.28-.51.09-.73l2.37-1.36A1.43,1.43,0,0,1,250,238.5Z" transform="translate(0 0)"/><path class="cls-11" d="M242.51,234.15l5.43,3.14c.32.19.28.51-.09.72l-2.35,1.36a1.35,1.35,0,0,1-1.25,0l-5.44-3.13c-.33-.19-.28-.51.09-.72l2.35-1.36A1.4,1.4,0,0,1,242.51,234.15Z" transform="translate(0 0)"/><path class="cls-11" d="M254.2,236.1l5.43,3.14c.32.18.28.51-.09.72l-2.35,1.36a1.38,1.38,0,0,1-1.25.05l-5.44-3.13c-.32-.19-.28-.51.09-.73l2.36-1.36A1.41,1.41,0,0,1,254.2,236.1Z" transform="translate(0 0)"/></g><path class="cls-12" d="M333.9,227.31,190,144.25a6.36,6.36,0,0,1-2.63-7.11L219.93,31.51c.81-2.62,3.29-3.69,5.56-2.38l143.86,83.06A6.35,6.35,0,0,1,372,119.3L339.45,224.93C338.65,227.55,336.16,228.61,333.9,227.31Z" transform="translate(0 0)"/><path class="cls-13" d="M332.54,223.61,193,143a6.11,6.11,0,0,1-2.52-6.8l31.1-101a3.54,3.54,0,0,1,4.2-2.72,3.66,3.66,0,0,1,1.12.45l139.54,80.64a6.11,6.11,0,0,1,2.52,6.8l-31.1,101A3.54,3.54,0,0,1,332.54,223.61Z" transform="translate(0 0)"/><path class="cls-14" d="M332.54,223.61,193,143a6.11,6.11,0,0,1-2.52-6.8l31.1-101a3.54,3.54,0,0,1,4.2-2.72,3.66,3.66,0,0,1,1.12.45l139.54,80.64a6.11,6.11,0,0,1,2.52,6.8l-31.1,101A3.54,3.54,0,0,1,332.54,223.61Z" transform="translate(0 0)"/><path class="cls-14" d="M332.54,223.61,193,143a6.11,6.11,0,0,1-2.52-6.8l31.1-101a3.54,3.54,0,0,1,4.2-2.72,3.66,3.66,0,0,1,1.12.45l139.54,80.64a6.11,6.11,0,0,1,2.52,6.8l-31.1,101A3.54,3.54,0,0,1,332.54,223.61Z" transform="translate(0 0)"/><path class="cls-15" d="M325,192.75l-94.46-54.54a4.19,4.19,0,0,1-1.73-4.67l21.36-69.35a2.44,2.44,0,0,1,3.65-1.57l94.46,54.54a4.19,4.19,0,0,1,1.73,4.67l-21.36,69.36a2.44,2.44,0,0,1-2.89,1.87A2.39,2.39,0,0,1,325,192.75Z" transform="translate(0 0)"/><path class="cls-16" d="M312.28,194.45l-94.47-54.57a4.18,4.18,0,0,1-1.73-4.66l21.36-69.36A2.42,2.42,0,0,1,240.3,64a2.48,2.48,0,0,1,.79.32l94.46,54.53a4.19,4.19,0,0,1,1.73,4.67l-21.36,69.36a2.42,2.42,0,0,1-2.85,1.9A2.25,2.25,0,0,1,312.28,194.45Z" transform="translate(0 0)"/><g class="cls-17"><path class="cls-11" d="M312.28,194.45l-94.47-54.57a4.18,4.18,0,0,1-1.73-4.66l21.36-69.36A2.42,2.42,0,0,1,240.3,64a2.48,2.48,0,0,1,.79.32l94.46,54.53a4.19,4.19,0,0,1,1.73,4.67l-21.36,69.36a2.42,2.42,0,0,1-2.85,1.9A2.25,2.25,0,0,1,312.28,194.45Z" transform="translate(0 0)"/></g><path class="cls-9" d="M335.56,118.83,241.1,64.3a2.37,2.37,0,0,0-2.66.09,2.58,2.58,0,0,1,1.36.35l94.46,54.53a4.2,4.2,0,0,1,1.74,4.67L314.63,193.3a2.84,2.84,0,0,1-1,1.47,2.51,2.51,0,0,0,2.29-1.91l21.36-69.36A4.19,4.19,0,0,0,335.56,118.83Z" transform="translate(0 0)"/><path class="cls-14" d="M193.14,251.06a7.11,7.11,0,0,1-3.5-.82h0l-37.83-21.85a2.75,2.75,0,0,1-1.56-2.33,3.57,3.57,0,0,1,2.09-2.89l19.47-11.25a8.7,8.7,0,0,1,8-.31l37.8,21.84a2.73,2.73,0,0,1,1.56,2.33,3.57,3.57,0,0,1-2.09,2.89L197.6,249.92A9,9,0,0,1,193.14,251.06ZM176.29,211.9a8.2,8.2,0,0,0-3.93,1l-19.48,11.25c-1,.57-1.54,1.28-1.54,1.95a1.69,1.69,0,0,0,1,1.38l37.84,21.85A7.77,7.77,0,0,0,197,249l19.49-11.25a2.52,2.52,0,0,0,1.54-2,1.74,1.74,0,0,0-1-1.38l-37.85-21.85a5.94,5.94,0,0,0-2.93-.65Z" transform="translate(0 0)"/><path class="cls-9" d="M264.11,100.69l-5.84-3.38a1.5,1.5,0,0,1-.65-1.68h0a.86.86,0,0,1,1-.66.81.81,0,0,1,.29.12l5.88,3.36a1.53,1.53,0,0,1,.65,1.68h0a.87.87,0,0,1-1,.7A.85.85,0,0,1,264.11,100.69Z" transform="translate(0 0)"/><path class="cls-9" d="M278,108.72l-8.61-5a1.52,1.52,0,0,1-.65-1.68h0a.85.85,0,0,1,1-.67.79.79,0,0,1,.3.12l8.61,5a1.53,1.53,0,0,1,.65,1.68h0a.85.85,0,0,1-1,.67A.79.79,0,0,1,278,108.72Z" transform="translate(0 0)"/><path class="cls-9" d="M252.33,126.69l-5.84-3.38a1.53,1.53,0,0,1-.65-1.68h0a.86.86,0,0,1,1-.66.81.81,0,0,1,.29.12l5.84,3.37a1.53,1.53,0,0,1,.65,1.68h0a.86.86,0,0,1-1,.66A.9.9,0,0,1,252.33,126.69Z" transform="translate(0 0)"/><path class="cls-9" d="M264.73,133.84l-8.61-5a1.52,1.52,0,0,1-.65-1.68h0a.86.86,0,0,1,1-.66.81.81,0,0,1,.29.12l8.61,5a1.53,1.53,0,0,1,.65,1.68h0a.86.86,0,0,1-1,.66A.81.81,0,0,1,264.73,133.84Z" transform="translate(0 0)"/><path class="cls-9" d="M246.61,96.05,243,94a1.53,1.53,0,0,1-.65-1.68h0a.87.87,0,0,1,1-.67.74.74,0,0,1,.29.12l3.65,2.11a1.51,1.51,0,0,1,.64,1.68h0a.86.86,0,0,1-1,.66A.81.81,0,0,1,246.61,96.05Z" transform="translate(0 0)"/><path class="cls-9" d="M257.59,107.86l-11.15-6.41a1.53,1.53,0,0,1-.65-1.68h0a.88.88,0,0,1,1-.66,1,1,0,0,1,.28.12l11.14,6.43a1.53,1.53,0,0,1,.65,1.68h0a.87.87,0,0,1-1.06.63A.8.8,0,0,1,257.59,107.86Z" transform="translate(0 0)"/><path class="cls-9" d="M247.31,112.85l-3.65-2.1a1.53,1.53,0,0,1-.65-1.68h0a.85.85,0,0,1,1-.67.79.79,0,0,1,.3.12l3.65,2.11a1.53,1.53,0,0,1,.65,1.68h0a.86.86,0,0,1-1,.66A.81.81,0,0,1,247.31,112.85Z" transform="translate(0 0)"/><path class="cls-9" d="M266.07,145.55l-9.74-5.62a1.53,1.53,0,0,1-.65-1.68h0a.85.85,0,0,1,1-.67.79.79,0,0,1,.3.12l9.75,5.63a1.53,1.53,0,0,1,.65,1.68h0a.88.88,0,0,1-1,.66A.77.77,0,0,1,266.07,145.55Z" transform="translate(0 0)"/><path class="cls-9" d="M243.22,121.45l-2.34-1.36a1.52,1.52,0,0,1-.65-1.67h0a.85.85,0,0,1,1-.67.79.79,0,0,1,.3.12l2.34,1.35a1.5,1.5,0,0,1,.65,1.68h0a.86.86,0,0,1-1,.66A.9.9,0,0,1,243.22,121.45Z" transform="translate(0 0)"/><path class="cls-9" d="M241,131.08l-2.9-1.68a1.5,1.5,0,0,1-.65-1.68h0a.86.86,0,0,1,1-.66.81.81,0,0,1,.29.12l2.91,1.67a1.53,1.53,0,0,1,.65,1.68h0a.87.87,0,0,1-1,.67A.74.74,0,0,1,241,131.08Z" transform="translate(0 0)"/><path class="cls-9" d="M252.32,137.61l-7.67-4.42a1.53,1.53,0,0,1-.65-1.68h0a.85.85,0,0,1,1-.67.79.79,0,0,1,.3.12l7.67,4.43a1.53,1.53,0,0,1,.65,1.68h0a.86.86,0,0,1-1,.66A.81.81,0,0,1,252.32,137.61Z" transform="translate(0 0)"/><path class="cls-9" d="M242.22,137.25l-5.52-3.19a1.49,1.49,0,0,1-.64-1.67h0a.85.85,0,0,1,1-.67.79.79,0,0,1,.3.12l5.51,3.18a1.53,1.53,0,0,1,.65,1.68h0a.85.85,0,0,1-1,.67A.79.79,0,0,1,242.22,137.25Z" transform="translate(0 0)"/><path class="cls-9" d="M274.43,150.45l-3.54-2a1.53,1.53,0,0,1-.65-1.68h0a.88.88,0,0,1,1.06-.66.85.85,0,0,1,.26.11l3.54,2a1.53,1.53,0,0,1,.65,1.68h0a.87.87,0,0,1-1,.67A.74.74,0,0,1,274.43,150.45Z" transform="translate(0 0)"/><path class="cls-9" d="M260.88,120.69l-9.74-5.63a1.5,1.5,0,0,1-.65-1.68h0a.86.86,0,0,1,1-.66.81.81,0,0,1,.29.12l9.74,5.62a1.53,1.53,0,0,1,.65,1.68h0a.85.85,0,0,1-1,.67A.79.79,0,0,1,260.88,120.69Z" transform="translate(0 0)"/><path class="cls-18" d="M262,115.89l-17-9.81a1.52,1.52,0,0,1-.65-1.67h0a.87.87,0,0,1,1-.67.74.74,0,0,1,.29.12l17,9.8a1.53,1.53,0,0,1,.65,1.68h0a.87.87,0,0,1-1,.67A.74.74,0,0,1,262,115.89Z" transform="translate(0 0)"/><path class="cls-18" d="M252,121l-9.74-5.59a1.53,1.53,0,0,1-.65-1.68h0a.86.86,0,0,1,1-.66.81.81,0,0,1,.29.12l9.75,5.62a1.53,1.53,0,0,1,.65,1.68h0A.87.87,0,0,1,252,121Z" transform="translate(0 0)"/><path class="cls-18" d="M268.27,125l-3.54-2a1.53,1.53,0,0,1-.65-1.68h0a.86.86,0,0,1,1-.66.81.81,0,0,1,.29.12l3.54,2a1.5,1.5,0,0,1,.65,1.68h0a.87.87,0,0,1-1,.65A.81.81,0,0,1,268.27,125Z" transform="translate(0 0)"/><path class="cls-18" d="M304.28,123.88l-21-12.1a1.52,1.52,0,0,1-.65-1.68h0a.85.85,0,0,1,1-.67.79.79,0,0,1,.3.12l21,12.1a1.52,1.52,0,0,1,.65,1.68h0a.85.85,0,0,1-1,.67A.79.79,0,0,1,304.28,123.88Z" transform="translate(0 0)"/><path class="cls-19" d="M251.2,131.5l-11.71-6.76a1.53,1.53,0,0,1-.65-1.68h0a.85.85,0,0,1,1-.67.79.79,0,0,1,.3.12l11.71,6.76a1.52,1.52,0,0,1,.65,1.68h0a.85.85,0,0,1-1,.67A.79.79,0,0,1,251.2,131.5Z" transform="translate(0 0)"/><path class="cls-19" d="M253,94.25l-8.62-5a1.51,1.51,0,0,1-.64-1.68h0a.86.86,0,0,1,1-.66A.81.81,0,0,1,245,87l8.61,5a1.53,1.53,0,0,1,.65,1.68h0a.86.86,0,0,1-1,.66A.81.81,0,0,1,253,94.25Z" transform="translate(0 0)"/><path class="cls-18" d="M240.42,141.67l-10-5.75a1.53,1.53,0,0,1-.65-1.68h0a.87.87,0,0,1,1-.67.74.74,0,0,1,.29.12l10,5.76a1.53,1.53,0,0,1,.65,1.68h0a.87.87,0,0,1-1,.67A1,1,0,0,1,240.42,141.67Z" transform="translate(0 0)"/><path class="cls-9" d="M306.63,113.1l-4.26-2.47a1.1,1.1,0,0,1-.48-1.22h0a.63.63,0,0,1,.72-.52.7.7,0,0,1,.28.12l4.27,2.46a1.11,1.11,0,0,1,.47,1.23h0a.63.63,0,0,1-.73.52A.72.72,0,0,1,306.63,113.1Z" transform="translate(0 0)"/><path class="cls-9" d="M314.81,117.8l-4.27-2.46a1.13,1.13,0,0,1-.48-1.23h0a.63.63,0,0,1,.73-.52.72.72,0,0,1,.27.12l4.27,2.46a1.13,1.13,0,0,1,.48,1.23h0a.63.63,0,0,1-.73.52A.72.72,0,0,1,314.81,117.8Z" transform="translate(0 0)"/><path class="cls-9" d="M322.92,122.5,318.65,120a1.11,1.11,0,0,1-.47-1.23h0a.61.61,0,0,1,.73-.49.6.6,0,0,1,.22.09l4.27,2.46a1.13,1.13,0,0,1,.48,1.23h0a.63.63,0,0,1-.75.49A1,1,0,0,1,322.92,122.5Z" transform="translate(0 0)"/><path class="cls-19" d="M326.92,124.81l-.13-.07a1.11,1.11,0,0,1-.47-1.23h0A.63.63,0,0,1,327,123a.7.7,0,0,1,.28.12l.13.08a1.12,1.12,0,0,1,.47,1.22h0a.63.63,0,0,1-.73.52A.72.72,0,0,1,326.92,124.81Z" transform="translate(0 0)"/><path class="cls-20" d="M106.61,174.77a15.68,15.68,0,0,1-7.82-2.09h0L70.2,156.17a4,4,0,0,1-1.37-5.49,4.08,4.08,0,0,1,1.37-1.37l28.61-16.5a15.64,15.64,0,0,1,15.63,0L143,149.32a4,4,0,0,1,1.48,5.37,3.9,3.9,0,0,1-1.48,1.48l-28.59,16.51A15.69,15.69,0,0,1,106.61,174.77Zm-6.89-3.7a13.82,13.82,0,0,0,13.77,0l28.59-16.51a2.09,2.09,0,0,0,.78-2.85,2.16,2.16,0,0,0-.78-.78l-28.59-16.48a13.77,13.77,0,0,0-13.77,0L71.13,151a2.09,2.09,0,0,0-.78,2.85,2.16,2.16,0,0,0,.78.78Z" transform="translate(0 0)"/><ellipse class="cls-4" cx="106.47" cy="153.14" rx="19.64" ry="11.34"/><path class="cls-21" d="M135.58,72.31h-56l5.23,60.57h0c0,3.37,2.22,6.73,6.67,9.3,8.89,5.13,23.3,5.13,32.2,0,4.44-2.57,6.66-5.93,6.66-9.3Z" transform="translate(0 0)"/><path class="cls-14" d="M135.58,72.31h-56l.86,10A21.74,21.74,0,0,0,85.63,87C96.32,94.06,114,95.43,126,90.32l-1.86,44.3a8.74,8.74,0,0,1-2,5.29c-1.81,2.13-5.3,4.64-12,6.06a31.7,31.7,0,0,0,13.55-3.76c4.44-2.57,6.66-5.93,6.66-9.3l4.18-48.57h0Z" transform="translate(0 0)"/><ellipse class="cls-14" cx="107.61" cy="72.32" rx="27.97" ry="16.15"/><ellipse class="cls-14" cx="107.61" cy="66.62" rx="24.09" ry="13.91"/><path class="cls-22" d="M137.23,71.55h0v-.09L136.7,66v.06c-.24-4.1-3.06-8.17-8.49-11.3-11.36-6.56-29.77-6.56-41.13,0-5.56,3.21-8.39,7.4-8.5,11.61h0l-.51,4.83v.45h0c-.3,4.6,2.58,9.26,8.66,12.77,11.59,6.69,30.37,6.69,42,0C134.7,80.88,137.58,76.18,137.23,71.55Z" transform="translate(0 0)"/><ellipse class="cls-23" cx="107.61" cy="66.62" rx="24.09" ry="13.91"/><ellipse class="cls-24" cx="106.47" cy="66.62" rx="24.09" ry="13.91"/><path class="cls-14" d="M93.43,58.86c9.41-5.43,24.66-5.43,34.07,0l.34.21a19,19,0,0,0-3.2-2.28c-9.41-5.44-24.66-5.44-34.07,0s-9.39,14-.34,19.45C84.19,70.85,85.25,63.58,93.43,58.86Z" transform="translate(0 0)"/><path class="cls-25" d="M90.57,59.2c9.41-5.43,24.66-5.43,34.07,0,4.17,2.41,6.49,5.48,7,8.63.6-3.95-1.72-8-7-11-9.41-5.44-24.66-5.44-34.07,0-5.24,3-7.55,7.09-7,11C84.08,64.68,86.4,61.61,90.57,59.2Z" transform="translate(0 0)"/><path class="cls-26" d="M128.35,54.89C117,48.21,98.53,48,87.07,54.52s-11.55,17.15-.21,23.83,29.82,6.85,41.28.37S139.69,61.57,128.35,54.89Zm-3.71,21.56a31.46,31.46,0,0,1-11,3.61l-.44-1.44a1.38,1.38,0,0,0-1.32-1h-8.65a1.38,1.38,0,0,0-1.32,1l-.44,1.44a31.66,31.66,0,0,1-11-3.61c-9.41-5.44-9.41-14.24,0-19.67s24.66-5.44,34.07,0S134.05,71,124.64,76.45Z" transform="translate(0 0)"/><path class="cls-9" d="M124.64,55.76c-9.41-5.44-24.66-5.44-34.07,0-4.93,2.84-7.27,6.62-7,10.35.21-3.39,2.55-6.74,7-9.32,9.41-5.44,24.66-5.44,34.07,0,4.48,2.58,6.82,5.93,7,9.32C131.91,62.38,129.57,58.6,124.64,55.76Z" transform="translate(0 0)"/><path class="cls-9" d="M128.14,77.69C116.68,84.17,98.2,84,86.86,77.32c-5.39-3.17-8.2-7.26-8.42-11.36-.22,4.44,2.57,9,8.42,12.39,11.34,6.69,29.82,6.85,41.28.37,6-3.4,8.88-8,8.63-12.47C136.56,70.45,133.69,74.55,128.14,77.69Z" transform="translate(0 0)"/><rect class="cls-27" x="104.37" y="79.42" width="6.48" height="1.4" rx="0.65"/><path class="cls-28" d="M110.19,79.45H105a.65.65,0,0,0-.65.65v.27a.64.64,0,0,1,.62-.48h5.17a.64.64,0,0,1,.62.48.54.54,0,0,0,0-.18V80.1A.64.64,0,0,0,110.19,79.45Z" transform="translate(0 0)"/><path class="cls-18" d="M108.4,126.66a4.47,4.47,0,1,1-8.64-2.3c.63-2.38,2.88-3.06,5.27-2.42S109,124.28,108.4,126.66Z" transform="translate(0 0)"/><path class="cls-18" d="M111.92,122a2,2,0,1,1-3.17-2.44,1.85,1.85,0,0,1,.4-.39c.9-.88,2.61-1.31,3.37-.53S112.81,121.07,111.92,122Z" transform="translate(0 0)"/><path class="cls-18" d="M107.24,118.21a2,2,0,0,1-4-.07,1.88,1.88,0,0,1,.11-.62c.22-1.24,1.36-2.59,2.43-2.39S107.46,117,107.24,118.21Z" transform="translate(0 0)"/><path class="cls-18" d="M101.48,117.64a2,2,0,1,1-3.48,2,1.86,1.86,0,0,1-.19-.46c-.48-1.17-.24-2.92.77-3.33S101,116.45,101.48,117.64Z" transform="translate(0 0)"/><path class="cls-29" d="M109.44,80.12s15.64-5.24,9.31-23.22-18.67-23.45-13.7-37.82c0,0-7.78,11.64-.51,27.38s8.87,13.94,8.78,21.47A13.6,13.6,0,0,1,106,80.12Z" transform="translate(0 0)"/><path class="cls-29" d="M110.81,21.58S109.19,10.83,119.27,0c0,0-8.92,19.91-6,29.75C113.3,29.75,110.94,23.5,110.81,21.58Z" transform="translate(0 0)"/></svg>