<svg id="Ñëîé_1" data-name="Ñëîé 1" xmlns="http://www.w3.org/2000/svg" viewBox="0 0 180.09 308.27"><defs><style>.cls-1{fill:#d4ecff;}.cls-2{fill:#ff2c9c;}.cls-3{fill:#d3008d;}.cls-4,.cls-9{fill:#fff;}.cls-5{fill:#ededed;}.cls-6{fill:#5793ce;}.cls-7{fill:#e9f6ff;}.cls-8{fill:#aedeed;}.cls-9{opacity:0.4;}.cls-10{fill:#b2d3ea;}.cls-11{fill:#396caa;}.cls-12{fill:#173d7a;}.cls-13{fill:#fdd762;}.cls-14{fill:#ffc2b0;}.cls-15{fill:#983be9;}.cls-16{fill:#d8892b;}.cls-17{fill:#721bd5;}.cls-18{fill:#e8a200;}.cls-19{fill:#f9bf30;}</style></defs><title>UX</title><path class="cls-1" d="M360.79,350l-83.07-48c-2.89-1.67-2.53-4.58.81-6.5h0c3.33-1.93,8.38-2.14,11.26-.47l83.08,48c2.89,1.67,2.53,4.58-.81,6.51h0C368.73,351.41,363.68,351.62,360.79,350Z" transform="translate(-207.13 -42.81)"/><path class="cls-2" d="M375.84,95.86,286.32,44.17c-2.94-1.7-5.61-1.74-7.63-.47v0l-11.24,6.51,7.54,1.4c0,.39-.05.78-.05,1.18V263.9c0,8.38,5.1,18.12,11.38,21.75l88.26,51-2.52,7.83,11-6.37h0c2.54-1.31,4.17-4.59,4.17-9.33V117.61C387.22,109.22,382.12,99.49,375.84,95.86Z" transform="translate(-207.13 -42.81)"/><path class="cls-3" d="M274.94,263.9c0,8.38,5.1,18.12,11.38,21.75l88.26,51-2.52,7.83,11-6.37h0c2.54-1.32,4.17-4.6,4.17-9.34V117.61a28.28,28.28,0,0,0-3.62-13.16L274.94,167.19Z" transform="translate(-207.13 -42.81)"/><path class="cls-2" d="M364.54,343.88,275,292.19c-6.29-3.63-11.38-13.37-11.38-21.75V59.31c0-8.38,5.09-12.23,11.38-8.6l89.51,51.69c6.29,3.63,11.39,13.37,11.39,21.75V335.27C375.93,343.66,370.83,347.51,364.54,343.88Z" transform="translate(-207.13 -42.81)"/><polygon class="cls-3" points="71.32 74.03 64.39 69.26 61.69 60.38 58.98 66.13 56.51 64.98 56.51 69.87 57.3 71.11 56.51 74.64 56.51 78 61.69 77.31 67.64 84.98 66.06 76.17 71.32 74.03"/><path class="cls-4" d="M362.88,336.89l-86-49.67c-4.68-2.7-8.47-9.93-8.47-16.16V62.93c0-6.23,3.79-9.1,8.47-6.4l86,49.67c4.67,2.7,8.46,9.94,8.46,16.17V330.49C371.34,336.72,367.55,339.59,362.88,336.89Z" transform="translate(-207.13 -42.81)"/><path class="cls-5" d="M327.69,273l-42.22-24.38V146l19.9,11.48a44.67,44.67,0,0,1,22.32,38.68Z" transform="translate(-207.13 -42.81)"/><path class="cls-1" d="M270.38,136h0c-4.26-2.54-10.18-2.23-16.72,1.55-12.94,7.47-23.48,25.72-23.48,40.66V189h0l.45.26,42.3,24.88.64-12.9.52-5,2.25-7.78.25-1.19,4.81-9.69,3.79-4.74,3.07-3.66,7.49-5.89.65-.49,3.68-1.58L305,160h3.86l4.31.76Z" transform="translate(-207.13 -42.81)"/><path class="cls-1" d="M275.77,235.79l1.37-.79V185.86a9.94,9.94,0,0,0-1.37,3.48Z" transform="translate(-207.13 -42.81)"/><polygon class="cls-1" points="111.38 217.61 68.64 192.98 69.08 146.46 70.71 141.76 75.66 133.25 81.51 126.31 86.79 122.09 92.5 118.62 102.85 117.44 108.32 120.54 111.38 125.22 112.35 132.41 112.02 210.18 111.38 217.61"/><path class="cls-6" d="M270.38,136c-3.56-2.12-8.29-2.24-13.57,0l43.55,25.15L305,160h3.86l4.31.76L270.38,136Z" transform="translate(-207.13 -42.81)"/><path class="cls-7" d="M257.84,135.62a27.44,27.44,0,0,0-4.18,2c-.95.55-1.89,1.17-2.81,1.83l43.41,25.06,1.49-1.17.65-.49,3.68-1.58,1.47-.38Z" transform="translate(-207.13 -42.81)"/><path class="cls-4" d="M288.63,168.91l5.91-4.65-43.4-25a40.62,40.62,0,0,0-5.65,4.8Z" transform="translate(-207.13 -42.81)"/><path class="cls-6" d="M319.88,259.63l-1.37.79V176.56c0-14.07-9.92-19.8-22.11-12.76S274.3,188,274.3,202.09v11.3l-1.37.79v-11.3c0-14.95,10.53-33.19,23.47-40.66s23.48-1.4,23.48,13.55Z" transform="translate(-207.13 -42.81)"/><polygon class="cls-8" points="36.02 127.42 33.61 137.26 34.82 153.15 31.77 151.35 27.86 142.72 31.28 131.8 36.02 127.42"/><path class="cls-9" d="M313.08,233.18a1.57,1.57,0,0,1-.8-.24L281.2,215a3.77,3.77,0,0,1-1.63-3.07V187.46a1.72,1.72,0,0,1,.72-1.55,1.36,1.36,0,0,1,1.41.08l31.08,17.94a3.8,3.8,0,0,1,1.63,3.08v24.45a1.68,1.68,0,0,1-.73,1.55A1.16,1.16,0,0,1,313.08,233.18ZM280.9,186.75a.23.23,0,0,0-.11,0c-.1.06-.22.28-.22.68v24.46a2.81,2.81,0,0,0,1.13,2.21l31.08,17.94c.08.05.28.15.41.08s.22-.28.22-.69V207a2.8,2.8,0,0,0-1.13-2.21l-31.08-18A.76.76,0,0,0,280.9,186.75Z" transform="translate(-207.13 -42.81)"/><path class="cls-10" d="M290.85,216l-.22-.12a3.53,3.53,0,0,1-1.47-2.81V201.41c0-1.08.66-1.58,1.47-1.11l.22.13a3.49,3.49,0,0,1,1.46,2.8v11.65C292.31,216,291.66,216.46,290.85,216Z" transform="translate(-207.13 -42.81)"/><path class="cls-10" d="M297.1,219.6l-.22-.13a3.5,3.5,0,0,1-1.47-2.8v-6.82c0-1.08.66-1.58,1.47-1.11l.22.13a3.51,3.51,0,0,1,1.47,2.8v6.82C298.57,219.57,297.91,220.07,297.1,219.6Z" transform="translate(-207.13 -42.81)"/><path class="cls-11" d="M303.35,223.21l-.22-.13a3.5,3.5,0,0,1-1.47-2.8V204c0-1.08.66-1.57,1.47-1.1l.22.12a3.51,3.51,0,0,1,1.47,2.8V222.1C304.82,223.18,304.16,223.68,303.35,223.21Z" transform="translate(-207.13 -42.81)"/><ellipse class="cls-1" cx="46.17" cy="290.21" rx="26.74" ry="15.44"/><path class="cls-12" d="M236.91,324.84a5.09,5.09,0,0,0-2.88,5.1,8.6,8.6,0,0,0,.42,2.5c.59,1.24,2.53,2.95,5.64,1.72s10-7.69,10.24-11.93C250.81,314.36,241.81,322.74,236.91,324.84Z" transform="translate(-207.13 -42.81)"/><path class="cls-12" d="M255.13,337.85s-.74,4.54-.38,5.37,2.52,2.6,5.7,2.22,12.37-3.55,14.41-9.59c3.17-9.38-17.71.7-17.71.7Z" transform="translate(-207.13 -42.81)"/><path class="cls-13" d="M264.09,265.33l.71,70.82a4.94,4.94,0,0,1-3.86,4.9,6.94,6.94,0,0,1-.86.11,4.39,4.39,0,0,1-4.2-1.74,5.1,5.1,0,0,1-.95-2.86L254,306.33l-4.51-27-6.24,47.84a4.12,4.12,0,0,1-1.72,3.15,4.73,4.73,0,0,1-2.85.77,5.24,5.24,0,0,1-3.78-1.86,3.77,3.77,0,0,1-.9-2.56l2.47-28.78.92-36.72Z" transform="translate(-207.13 -42.81)"/><path class="cls-14" d="M254.92,201.94l-1.12,6.45a3,3,0,0,0,2.42,2.82c2.46.61,3.22-1,3.22-1l1.11-7.27Z" transform="translate(-207.13 -42.81)"/><path class="cls-14" d="M268.47,198.41c-1.75,5.52-7.15,8.73-12.06,7.16s-7.49-7.32-5.75-12.85,7.15-8.74,12.07-7.17S270.21,192.88,268.47,198.41Z" transform="translate(-207.13 -42.81)"/><path class="cls-15" d="M255.21,208.51c-.17-.07-10.43-6.67-14.22.24C234.81,220,239.33,233,237.13,261c-.37,4.69,6.31,7.55,9.48,9.36a18.94,18.94,0,0,0,9.2,2.62c3.2,0,9.35-2.83,9.13-7-1-19.27.68-35.52,2.25-51.29C267.19,214.68,265.22,212.56,255.21,208.51Z" transform="translate(-207.13 -42.81)"/><path class="cls-16" d="M249.51,279.3l-6.24,47.84a4.12,4.12,0,0,1-1.72,3.15,3.85,3.85,0,0,1-.53.3c1.29-1,5.08-41.12,5.78-45.59S249.51,279.3,249.51,279.3Z" transform="translate(-207.13 -42.81)"/><polygon class="cls-14" points="81.35 171.54 89.94 154.49 87.25 152.79 78.34 165.78 81.35 171.54"/><polygon class="cls-14" points="24.7 153.44 28.88 134.43 32.2 134.46 30.95 150.23 24.7 153.44"/><path class="cls-15" d="M267.19,214.68s9.61,3.79,17.86-6.62a1.58,1.58,0,0,1,2.65.17c.75,1.71,1.68,4.29.55,6.71-5,10.7-22,10.33-26.11,16.33S267.19,214.68,267.19,214.68Z" transform="translate(-207.13 -42.81)"/><path class="cls-15" d="M248.71,206.14s-7.94.61-9.08-6.25a51.17,51.17,0,0,1-.79-6.87,1.39,1.39,0,0,0-1.56-1.34c-1.9.23-4.84.8-5.24,2.07-.6,1.9-1.72,11.23,6.12,25.53C243.29,228.66,248.71,206.14,248.71,206.14Z" transform="translate(-207.13 -42.81)"/><path class="cls-14" d="M236,177.29l.07-2.17a4.5,4.5,0,0,1,.65-2.17l2.2-3.6.57-.73a1.67,1.67,0,0,1,2.2-.37l.5.32a2.06,2.06,0,0,1,1,1.89L242,173.54l1.44-.28a.51.51,0,0,1,.6.41h0a.52.52,0,0,1-.31.57l-2.35.94-2.13,3Z" transform="translate(-207.13 -42.81)"/><path class="cls-14" d="M297.13,197.41l1-1.92a4.44,4.44,0,0,0,.5-2.2l-.12-4.23-.14-.91a1.67,1.67,0,0,0-1.73-1.41l-.59,0a2.09,2.09,0,0,0-1.78,1.16l-.53,3.25-1.12-1a.51.51,0,0,0-.72.07h0a.51.51,0,0,0,0,.64l1.58,2,.4,4.13Z" transform="translate(-207.13 -42.81)"/><path class="cls-17" d="M260.93,229.13c-.84,3.8,4.19,32.52-1.4,43,2.8-1.14,5.56-3.35,5.41-6.19a263.18,263.18,0,0,1,.94-37.63c4.79-2.43,12.26-3.87,17.55-7.74C277.76,222.69,261.67,225.73,260.93,229.13Z" transform="translate(-207.13 -42.81)"/><path class="cls-4" d="M251.53,206.69l1.42-1.46s2.34,2.39,4.23,2.81a21.45,21.45,0,0,0,3.37.69l.92,2.53S254,210.73,251.53,206.69Z" transform="translate(-207.13 -42.81)"/><path class="cls-12" d="M261.78,198.58a1.22,1.22,0,0,0,1-.51c.39-.56.14-3.16,1.34-3.59,1.88-.66,6.33,1.68,6.81-5.08.24-3.52-1.47-4.46-1.46-6.38,0,0,.15,1-8.9.36s-12,7.44-12.21,11.27,1.64,10.12,7.82,11c1,.15,5.34-3.32,5.22-3.77s-1.73-.43-1.5-1.75A1.71,1.71,0,0,1,261.78,198.58Z" transform="translate(-207.13 -42.81)"/><path class="cls-5" d="M308.21,116.83,280.86,101a5.27,5.27,0,0,1-2.2-4.2V76.5c0-1.62,1-2.36,2.2-1.66l27.35,15.79a5.25,5.25,0,0,1,2.2,4.2v20.34C310.41,116.79,309.43,117.53,308.21,116.83Z" transform="translate(-207.13 -42.81)"/><path class="cls-17" d="M305.5,84.57,278.16,68.78a1.42,1.42,0,0,0-1.42-.11v0l-2.65,1.53,1.86.69V90.78A5.29,5.29,0,0,0,278.16,95l26.14,15.09v2.33l2.68-1.54h0a2,2,0,0,0,.74-1.76V88.78A5.27,5.27,0,0,0,305.5,84.57Z" transform="translate(-207.13 -42.81)"/><path class="cls-15" d="M302.8,112.33,275.45,96.54a5.27,5.27,0,0,1-2.2-4.2V72c0-1.62,1-2.36,2.2-1.66L302.8,86.13a5.25,5.25,0,0,1,2.2,4.2v20.34C305,112.29,304,113,302.8,112.33Z" transform="translate(-207.13 -42.81)"/><path class="cls-4" d="M302.8,86.13,275.45,70.34a1.29,1.29,0,0,0-1.7.11,1.71,1.71,0,0,1,1,.25l27.35,15.79a5.25,5.25,0,0,1,2.2,4.2V111a2.21,2.21,0,0,1-.5,1.55c.73-.06,1.23-.76,1.23-1.91V90.33A5.25,5.25,0,0,0,302.8,86.13Z" transform="translate(-207.13 -42.81)"/><path class="cls-4" d="M284.65,89.54c0,1.17-.83,1.65-1.84,1.06A4.09,4.09,0,0,1,281,87.4c0-1.17.83-1.65,1.85-1.06A4.1,4.1,0,0,1,284.65,89.54Z" transform="translate(-207.13 -42.81)"/><path class="cls-4" d="M290.24,92.76c0,1.18-.83,1.66-1.84,1.07a4.09,4.09,0,0,1-1.85-3.2c0-1.17.83-1.65,1.85-1.06A4.1,4.1,0,0,1,290.24,92.76Z" transform="translate(-207.13 -42.81)"/><path class="cls-4" d="M295.83,96c0,1.18-.83,1.65-1.84,1.07a4.09,4.09,0,0,1-1.85-3.2c0-1.18.83-1.65,1.85-1.07A4.1,4.1,0,0,1,295.83,96Z" transform="translate(-207.13 -42.81)"/><path class="cls-5" d="M362.63,224.18l-27.35-15.79a5.29,5.29,0,0,1-2.2-4.21V158.42c0-1.62,1-2.37,2.2-1.67l27.35,15.79a5.28,5.28,0,0,1,2.2,4.21v45.76C364.83,224.14,363.85,224.88,362.63,224.18Z" transform="translate(-207.13 -42.81)"/><path class="cls-6" d="M359.93,166.49,332.58,150.7a1.4,1.4,0,0,0-1.42-.12h0l-2.66,1.53,1.87.68v45.35a5.25,5.25,0,0,0,2.2,4.2l26.14,15.09v2.34l2.68-1.54h0a1.92,1.92,0,0,0,.75-1.75V170.69A5.27,5.27,0,0,0,359.93,166.49Z" transform="translate(-207.13 -42.81)"/><path class="cls-1" d="M357.23,219.68l-27.35-15.79a5.27,5.27,0,0,1-2.2-4.21V153.92c0-1.62,1-2.37,2.2-1.67L357.23,168a5.31,5.31,0,0,1,2.2,4.21V218C359.43,219.64,358.44,220.38,357.23,219.68Z" transform="translate(-207.13 -42.81)"/><path class="cls-4" d="M357.23,168l-27.35-15.79a1.32,1.32,0,0,0-1.71.12,1.55,1.55,0,0,1,1,.25l27.35,15.79a5.25,5.25,0,0,1,2.2,4.2v45.77a2.28,2.28,0,0,1-.49,1.55c.72-.06,1.23-.76,1.23-1.92V172.25A5.31,5.31,0,0,0,357.23,168Z" transform="translate(-207.13 -42.81)"/><path class="cls-5" d="M362.63,286l-27.35-15.79a5.27,5.27,0,0,1-2.2-4.2V220.25c0-1.62,1-2.36,2.2-1.66l27.35,15.79a5.25,5.25,0,0,1,2.2,4.2v45.77C364.83,286,363.85,286.71,362.63,286Z" transform="translate(-207.13 -42.81)"/><path class="cls-3" d="M359.93,228.32l-27.35-15.79a1.42,1.42,0,0,0-1.42-.11v0l-2.66,1.53,1.87.68V260a5.25,5.25,0,0,0,2.2,4.2l26.14,15.1v2.33l2.68-1.54h0a1.92,1.92,0,0,0,.75-1.75V232.52A5.27,5.27,0,0,0,359.93,228.32Z" transform="translate(-207.13 -42.81)"/><path class="cls-2" d="M357.23,281.51l-27.35-15.79a5.25,5.25,0,0,1-2.2-4.2V215.75c0-1.62,1-2.36,2.2-1.66l27.35,15.79a5.27,5.27,0,0,1,2.2,4.2v45.77C359.43,281.47,358.44,282.21,357.23,281.51Z" transform="translate(-207.13 -42.81)"/><path class="cls-4" d="M357.23,229.88l-27.35-15.79a1.31,1.31,0,0,0-1.71.11,1.7,1.7,0,0,1,1,.25l27.35,15.79a5.25,5.25,0,0,1,2.2,4.2v45.77a2.26,2.26,0,0,1-.49,1.55c.72-.06,1.23-.76,1.23-1.91V234.08A5.27,5.27,0,0,0,357.23,229.88Z" transform="translate(-207.13 -42.81)"/><path class="cls-3" d="M347.54,236.08c0,2.54-1.79,3.58-4,2.3a8.82,8.82,0,0,1-4-6.91c0-2.54,1.79-3.57,4-2.3A8.83,8.83,0,0,1,347.54,236.08Z" transform="translate(-207.13 -42.81)"/><path class="cls-3" d="M349.2,243.27s0-.08,0-.12c-.17-1.07-1.19-2-1.86-1.77a4.54,4.54,0,0,1-3.78-.64,11.88,11.88,0,0,1-3.78-3.73c-.67-1-1.68-1.24-1.85-.36a.29.29,0,0,0,0,.09l-1.89,12,15.09,8.71Z" transform="translate(-207.13 -42.81)"/><path class="cls-4" d="M347.54,236.08c0,2.54-1.79,3.58-4,2.3a8.82,8.82,0,0,1-4-6.91c0-2.54,1.79-3.57,4-2.3A8.83,8.83,0,0,1,347.54,236.08Z" transform="translate(-207.13 -42.81)"/><path class="cls-4" d="M349.2,243.27s0-.08,0-.12c-.17-1.07-1.19-2-1.86-1.77a4.54,4.54,0,0,1-3.78-.64,11.88,11.88,0,0,1-3.78-3.73c-.67-1-1.68-1.24-1.85-.36a.29.29,0,0,0,0,.09l-1.89,12,15.09,8.71Z" transform="translate(-207.13 -42.81)"/><polygon class="cls-4" points="145.04 223.81 126.72 213.23 126.72 211.91 145.04 222.49 145.04 223.81"/><polygon class="cls-4" points="139.5 226.38 126.72 219 126.72 217.68 139.5 225.06 139.5 226.38"/><polygon class="cls-4" points="137.78 222.5 126.72 216.11 126.72 214.79 137.78 221.18 137.78 222.5"/><polygon class="cls-4" points="145.04 226.69 139.5 223.5 139.5 222.18 145.04 225.37 145.04 226.69"/><polygon class="cls-6" points="145.08 135.57 126.76 124.99 126.76 123.67 145.08 134.25 145.08 135.57"/><polygon class="cls-6" points="139.55 138.14 126.76 130.76 126.76 129.44 139.55 136.82 139.55 138.14"/><polygon class="cls-6" points="137.82 134.26 126.76 127.87 126.76 126.55 137.82 132.94 137.82 134.26"/><polygon class="cls-6" points="145.08 138.45 139.55 135.26 139.55 133.94 145.08 137.13 145.08 138.45"/><polygon class="cls-6" points="145.08 146.71 126.76 136.13 126.76 134.81 145.08 145.39 145.08 146.71"/><polygon class="cls-6" points="139.55 149.29 126.76 141.9 126.76 140.58 139.55 147.97 139.55 149.29"/><polygon class="cls-6" points="137.82 145.41 126.76 139.02 126.76 137.7 137.82 144.09 137.82 145.41"/><polygon class="cls-6" points="145.08 149.59 139.55 146.4 139.55 145.08 145.08 148.28 145.08 149.59"/><polygon class="cls-6" points="145.08 157.85 126.76 147.28 126.76 145.96 145.08 156.53 145.08 157.85"/><polygon class="cls-6" points="139.55 160.43 126.76 153.04 126.76 151.72 139.55 159.11 139.55 160.43"/><polygon class="cls-6" points="137.82 156.55 126.76 150.16 126.76 148.84 137.82 155.23 137.82 156.55"/><polygon class="cls-6" points="145.08 160.74 139.55 157.54 139.55 156.22 145.08 159.42 145.08 160.74"/><polygon class="cls-4" points="87.34 189.11 74.27 181.56 74.27 180.34 87.34 187.89 87.34 189.11"/><polygon class="cls-4" points="95.44 193.79 89.86 190.56 89.86 189.34 95.44 192.57 95.44 193.79"/><polygon class="cls-4" points="87.79 192.03 82.21 188.8 82.21 187.58 87.79 190.81 87.79 192.03"/><polygon class="cls-4" points="99.88 199 89.86 193.22 89.86 192 99.88 197.78 99.88 199"/><polygon class="cls-4" points="106.74 205.62 91.92 197.06 91.92 195.84 106.74 204.4 106.74 205.62"/><polygon class="cls-4" points="103.43 198.4 97.84 195.17 97.84 193.95 103.43 197.18 103.43 198.4"/><polygon class="cls-4" points="79.86 187.44 74.27 184.22 74.27 183 79.86 186.22 79.86 187.44"/><polygon class="cls-4" points="89.53 195.68 74.25 186.86 74.25 185.64 89.53 194.46 89.53 195.68"/><polygon class="cls-4" points="83.64 194.94 74.42 189.62 74.42 188.4 83.64 193.72 83.64 194.94"/><polygon class="cls-5" points="83.77 73.02 86.48 81.9 93.41 86.67 88.15 88.81 89.72 97.62 83.77 89.95 77.81 90.74 79.39 83.75 74.13 75.54 81.06 78.77 83.77 73.02"/><polygon class="cls-5" points="105.85 85.66 108.56 94.54 115.49 99.31 110.23 101.45 111.81 110.26 105.85 102.59 99.9 103.39 101.47 96.39 96.22 88.18 103.15 91.41 105.85 85.66"/><polygon class="cls-5" points="71.32 74.03 64.39 69.26 61.69 60.38 61.28 61.25 61.28 77.37 61.69 77.31 67.64 84.98 66.06 76.17 71.32 74.03"/><polygon class="cls-18" points="12.87 29.26 15.57 38.14 22.5 42.91 17.25 45.05 18.82 53.86 12.87 46.2 6.91 46.99 8.49 39.99 3.23 31.78 10.16 35.01 12.87 29.26"/><path class="cls-19" d="M207.13,76.45l3.23-1.86,5,2.33s0,3.36,0,3.44a17.64,17.64,0,0,1-2.2.18C213,80.54,207.13,76.45,207.13,76.45Z" transform="translate(-207.13 -42.81)"/><path class="cls-18" d="M226,96.67l-3.23,1.86-1.58-8.81s1.57-1.66,1.56-1.66l1.77.3Z" transform="translate(-207.13 -42.81)"/><polygon class="cls-13" points="9.64 31.12 12.34 40 19.27 44.76 14.02 46.91 15.59 55.72 9.64 48.05 3.68 48.84 5.26 41.85 0 33.64 6.93 36.87 9.64 31.12"/><path class="cls-4" d="M222.72,98.53l-1.58-8.81,5.26-2.14-6.93-4.77-2.71-8.88-2.7,5.75-6.93-3.23.48.75,6.68,3.12,2.38-5.06,2.39,7.85,6.34,4.36-4.8,2,1.49,8.3Z" transform="translate(-207.13 -42.81)"/><polygon class="cls-18" points="9.64 31.12 12.87 29.26 15.57 38.14 12.34 40 9.64 31.12"/><polygon class="cls-19" points="22.5 42.91 19.27 44.76 12.34 40 15.57 38.14 22.5 42.91"/><polygon class="cls-4" points="12.5 40.22 12.01 39.94 15.5 37.9 15.57 38.14 15.8 38.3 12.5 40.22"/><polygon class="cls-18" points="34.95 41.9 37.66 50.78 44.59 55.55 39.33 57.69 40.91 66.5 34.95 58.84 29 59.63 30.57 52.63 25.32 44.42 32.25 47.66 34.95 41.9"/><path class="cls-19" d="M229.21,89.09l3.24-1.85,5,2.32s0,3.36,0,3.44a17.48,17.48,0,0,1-2.2.18C235.1,93.18,229.21,89.09,229.21,89.09Z" transform="translate(-207.13 -42.81)"/><path class="cls-18" d="M248,109.32l-3.24,1.85-1.57-8.81,1.56-1.65,1.76.3Z" transform="translate(-207.13 -42.81)"/><polygon class="cls-13" points="31.72 43.76 34.43 52.64 41.35 57.41 36.1 59.55 37.67 68.36 31.72 60.69 25.77 61.48 27.34 54.49 22.08 46.28 29.01 49.51 31.72 43.76"/><path class="cls-4" d="M244.8,111.17l-1.57-8.81,5.25-2.14-6.93-4.77-2.7-8.88-2.71,5.75-6.93-3.23.49.76L236.37,93l2.38-5.06,2.39,7.85,6.34,4.36-4.79,2,1.48,8.3Z" transform="translate(-207.13 -42.81)"/><polygon class="cls-18" points="31.72 43.76 34.95 41.9 37.66 50.78 34.43 52.64 31.72 43.76"/><polygon class="cls-19" points="44.59 55.55 41.35 57.41 34.43 52.64 37.66 50.78 44.59 55.55"/><polygon class="cls-4" points="34.59 52.86 34.09 52.58 37.59 50.54 37.66 50.78 37.89 50.94 34.59 52.86"/><polygon class="cls-18" points="57.04 54.54 59.74 63.42 66.67 68.19 61.42 70.33 62.99 79.14 57.04 71.48 51.08 72.27 52.66 65.28 47.4 57.06 54.33 60.3 57.04 54.54"/><path class="cls-19" d="M251.3,101.73l3.23-1.85,5,2.33s0,3.35,0,3.43a17.31,17.31,0,0,1-2.19.18C257.19,105.82,251.3,101.73,251.3,101.73Z" transform="translate(-207.13 -42.81)"/><path class="cls-18" d="M270.12,122l-3.23,1.85L265.31,115s1.57-1.65,1.56-1.65l1.76.3Z" transform="translate(-207.13 -42.81)"/><polygon class="cls-13" points="53.8 56.4 56.51 65.28 63.44 70.05 58.18 72.19 59.76 81 53.8 73.33 47.85 74.12 49.42 67.13 44.17 58.92 51.1 62.15 53.8 56.4"/><path class="cls-4" d="M266.89,123.81,265.31,115l5.26-2.14-6.93-4.77-2.71-8.88-2.7,5.75-6.93-3.23.48.76,6.68,3.11,2.38-5.06,2.39,7.85,6.34,4.36-4.8,2,1.49,8.3Z" transform="translate(-207.13 -42.81)"/><polygon class="cls-18" points="53.8 56.4 57.04 54.54 59.74 63.42 56.51 65.28 53.8 56.4"/><polygon class="cls-19" points="66.67 68.19 63.44 70.05 56.51 65.28 59.74 63.42 66.67 68.19"/><polygon class="cls-4" points="56.67 65.5 56.18 65.22 59.67 63.19 59.74 63.42 59.97 63.58 56.67 65.5"/><polygon class="cls-18" points="79.12 67.19 81.83 76.06 88.76 80.83 83.5 82.97 85.08 91.79 79.12 84.12 73.17 84.91 74.74 77.92 69.49 69.7 76.41 72.94 79.12 67.19"/><path class="cls-19" d="M273.38,114.37l3.23-1.85,5,2.33s0,3.35,0,3.43a17.64,17.64,0,0,1-2.2.18C279.27,118.46,273.38,114.37,273.38,114.37Z" transform="translate(-207.13 -42.81)"/><path class="cls-18" d="M292.2,134.6,289,136.45l-1.57-8.81L289,126l1.76.3Z" transform="translate(-207.13 -42.81)"/><polygon class="cls-13" points="75.89 69.04 78.59 77.92 85.52 82.69 80.27 84.83 81.84 93.64 75.89 85.98 69.93 86.77 71.51 79.77 66.25 71.56 73.18 74.79 75.89 69.04"/><path class="cls-4" d="M289,136.45l-1.57-8.81,5.25-2.14-6.93-4.77-2.7-8.88-2.71,5.76-6.93-3.24.48.76,6.68,3.11,2.38-5.06,2.39,7.85,6.34,4.36-4.79,2,1.48,8.3Z" transform="translate(-207.13 -42.81)"/><polygon class="cls-18" points="75.89 69.04 79.12 67.19 81.83 76.06 78.59 77.92 75.89 69.04"/><polygon class="cls-19" points="88.76 80.83 85.52 82.69 78.59 77.92 81.83 76.06 88.76 80.83"/><polygon class="cls-4" points="78.76 78.14 78.26 77.86 81.76 75.83 81.83 76.06 82.06 76.22 78.76 78.14"/><polygon class="cls-18" points="101.2 79.83 103.91 88.7 110.84 93.47 105.58 95.61 107.16 104.43 101.2 96.76 95.25 97.55 96.83 90.56 91.57 82.35 98.5 85.58 101.2 79.83"/><path class="cls-19" d="M295.46,127l3.24-1.85,5,2.33s0,3.36,0,3.44a17.48,17.48,0,0,1-2.2.18C301.35,131.11,295.46,127,295.46,127Z" transform="translate(-207.13 -42.81)"/><path class="cls-18" d="M314.29,147.24l-3.23,1.85-1.58-8.81s1.57-1.65,1.56-1.65l1.76.3Z" transform="translate(-207.13 -42.81)"/><polygon class="cls-13" points="97.97 81.68 100.68 90.56 107.61 95.33 102.35 97.47 103.93 106.28 97.97 98.62 92.02 99.41 93.59 92.41 88.34 84.2 95.27 87.44 97.97 81.68"/><path class="cls-4" d="M311.06,149.1l-1.58-8.82,5.26-2.14-6.93-4.77-2.71-8.88-2.71,5.76L295.46,127l.49.76,6.67,3.11,2.39-5.06,2.39,7.85,6.33,4.36-4.79,2,1.48,8.29Z" transform="translate(-207.13 -42.81)"/><polygon class="cls-18" points="97.97 81.68 101.2 79.83 103.91 88.7 100.68 90.56 97.97 81.68"/><polygon class="cls-19" points="110.84 93.47 107.61 95.33 100.68 90.56 103.91 88.7 110.84 93.47"/><polygon class="cls-4" points="100.84 90.78 100.35 90.5 103.84 88.47 103.91 88.7 104.14 88.86 100.84 90.78"/></svg>