<svg xmlns="http://www.w3.org/2000/svg" xmlns:xlink="http://www.w3.org/1999/xlink" viewBox="0 0 317.69 267.63"><defs><style>.cls-1{isolation:isolate;}.cls-2{fill:#f1f1f4;}.cls-3{fill:#e0f3ff;}.cls-4{fill:url(#Áåçûìÿííûé_ãðàäèåíò_29);}.cls-5{fill:url(#Áåçûìÿííûé_ãðàäèåíò_28);}.cls-6{fill:#e5e2ff;}.cls-7{fill:url(#Áåçûìÿííûé_ãðàäèåíò_28-2);}.cls-8,.cls-9{opacity:0.62;}.cls-118,.cls-17,.cls-18,.cls-19,.cls-22,.cls-24,.cls-30,.cls-33,.cls-35,.cls-38,.cls-39,.cls-40,.cls-41,.cls-42,.cls-43,.cls-44,.cls-45,.cls-46,.cls-47,.cls-48,.cls-49,.cls-50,.cls-51,.cls-52,.cls-53,.cls-54,.cls-57,.cls-58,.cls-59,.cls-60,.cls-61,.cls-62,.cls-66,.cls-77,.cls-8,.cls-80,.cls-81,.cls-82,.cls-86,.cls-87,.cls-9,.cls-94,.cls-95,.cls-96,.cls-97,.cls-98,.cls-99{mix-blend-mode:multiply;}.cls-8{fill:url(#Áåçûìÿííûé_ãðàäèåíò_27);}.cls-9{fill:url(#Áåçûìÿííûé_ãðàäèåíò_94);}.cls-10,.cls-118,.cls-13,.cls-14,.cls-22,.cls-24,.cls-39,.cls-40,.cls-41,.cls-42,.cls-43,.cls-44,.cls-45,.cls-46,.cls-47,.cls-49,.cls-51,.cls-52,.cls-53,.cls-54,.cls-57,.cls-59,.cls-60,.cls-61,.cls-62,.cls-82{opacity:0.5;}.cls-10,.cls-13,.cls-14{mix-blend-mode:screen;}.cls-10{fill:url(#Áåçûìÿííûé_ãðàäèåíò_95);}.cls-11{fill:#fff;}.cls-12{fill:url(#Áåçûìÿííûé_ãðàäèåíò_74);}.cls-13{fill:url(#Áåçûìÿííûé_ãðàäèåíò_83);}.cls-14{fill:url(#Áåçûìÿííûé_ãðàäèåíò_83-2);}.cls-15{fill:url(#Áåçûìÿííûé_ãðàäèåíò_26);}.cls-16{fill:url(#Áåçûìÿííûé_ãðàäèåíò_26-2);}.cls-17,.cls-18,.cls-19,.cls-48{opacity:0.76;}.cls-17{fill:url(#Áåçûìÿííûé_ãðàäèåíò_70);}.cls-18{fill:url(#Áåçûìÿííûé_ãðàäèåíò_70-2);}.cls-19{fill:url(#Áåçûìÿííûé_ãðàäèåíò_70-3);}.cls-20{fill:#fe9083;}.cls-21{fill:url(#Áåçûìÿííûé_ãðàäèåíò_354);}.cls-22{fill:url(#Áåçûìÿííûé_ãðàäèåíò_70-4);}.cls-23{fill:url(#Áåçûìÿííûé_ãðàäèåíò_26-3);}.cls-24{fill:url(#Áåçûìÿííûé_ãðàäèåíò_70-5);}.cls-25{fill:url(#Áåçûìÿííûé_ãðàäèåíò_178);}.cls-26{fill:url(#Áåçûìÿííûé_ãðàäèåíò_55);}.cls-27{fill:#cb4d7a;}.cls-28{fill:#ee8183;}.cls-29{fill:url(#Áåçûìÿííûé_ãðàäèåíò_71);}.cls-30,.cls-35,.cls-66,.cls-77,.cls-80,.cls-81,.cls-92,.cls-94{opacity:0.6;}.cls-30{fill:url(#Áåçûìÿííûé_ãðàäèåíò_48);}.cls-31{fill:url(#Áåçûìÿííûé_ãðàäèåíò_71-2);}.cls-32{fill:#e28183;}.cls-33,.cls-38{opacity:0.91;}.cls-33{fill:url(#Áåçûìÿííûé_ãðàäèåíò_73);}.cls-34{fill:url(#Áåçûìÿííûé_ãðàäèåíò_71-3);}.cls-35{fill:url(#Áåçûìÿííûé_ãðàäèåíò_48-2);}.cls-36{fill:url(#Áåçûìÿííûé_ãðàäèåíò_64);}.cls-37{fill:url(#Áåçûìÿííûé_ãðàäèåíò_64-2);}.cls-38{fill:url(#Áåçûìÿííûé_ãðàäèåíò_73-2);}.cls-39{fill:url(#Áåçûìÿííûé_ãðàäèåíò_70-6);}.cls-40{fill:url(#Áåçûìÿííûé_ãðàäèåíò_70-7);}.cls-41{fill:url(#Áåçûìÿííûé_ãðàäèåíò_4);}.cls-42{fill:url(#Áåçûìÿííûé_ãðàäèåíò_4-2);}.cls-43{fill:url(#Áåçûìÿííûé_ãðàäèåíò_4-3);}.cls-44{fill:url(#Áåçûìÿííûé_ãðàäèåíò_4-4);}.cls-45{fill:url(#Áåçûìÿííûé_ãðàäèåíò_4-5);}.cls-46{fill:url(#Áåçûìÿííûé_ãðàäèåíò_4-6);}.cls-47{fill:url(#Áåçûìÿííûé_ãðàäèåíò_4-7);}.cls-48{fill:url(#Áåçûìÿííûé_ãðàäèåíò_70-8);}.cls-49{fill:url(#Áåçûìÿííûé_ãðàäèåíò_70-9);}.cls-50,.cls-58,.cls-95,.cls-96,.cls-97,.cls-98{opacity:0.3;}.cls-50{fill:url(#Áåçûìÿííûé_ãðàäèåíò_70-10);}.cls-51{fill:url(#Áåçûìÿííûé_ãðàäèåíò_4-8);}.cls-52{fill:url(#Áåçûìÿííûé_ãðàäèåíò_70-11);}.cls-53{fill:url(#Áåçûìÿííûé_ãðàäèåíò_4-9);}.cls-54{fill:url(#Áåçûìÿííûé_ãðàäèåíò_4-10);}.cls-55{fill:url(#Áåçûìÿííûé_ãðàäèåíò_25);}.cls-56{fill:#ebefff;}.cls-57{fill:url(#Áåçûìÿííûé_ãðàäèåíò_70-12);}.cls-58{fill:url(#Áåçûìÿííûé_ãðàäèåíò_70-13);}.cls-59{fill:url(#Áåçûìÿííûé_ãðàäèåíò_70-14);}.cls-60{fill:url(#Áåçûìÿííûé_ãðàäèåíò_70-15);}.cls-61{fill:url(#Áåçûìÿííûé_ãðàäèåíò_70-16);}.cls-62{fill:#7a4ac0;}.cls-63{fill:url(#Áåçûìÿííûé_ãðàäèåíò_71-4);}.cls-64{fill:url(#Áåçûìÿííûé_ãðàäèåíò_71-5);}.cls-65{fill:url(#Áåçûìÿííûé_ãðàäèåíò_387);}.cls-66{fill:url(#Áåçûìÿííûé_ãðàäèåíò_48-3);}.cls-67{fill:#38368e;}.cls-68{fill:url(#Áåçûìÿííûé_ãðàäèåíò_59);}.cls-69{fill:url(#Áåçûìÿííûé_ãðàäèåíò_184);}.cls-70{fill:#ffebed;}.cls-71{fill:#7f9ec9;}.cls-72{fill:#131163;}.cls-73{fill:#c6659c;}.cls-74{fill:#cb5f7d;}.cls-75{fill:#9f4a8b;}.cls-76{fill:#ffbcaf;}.cls-77{fill:url(#Áåçûìÿííûé_ãðàäèåíò_48-4);}.cls-78{fill:url(#Áåçûìÿííûé_ãðàäèåíò_292);}.cls-79{fill:#d2726c;}.cls-80{fill:url(#Áåçûìÿííûé_ãðàäèåíò_35);}.cls-81{fill:url(#Áåçûìÿííûé_ãðàäèåíò_52);}.cls-82{fill:url(#Áåçûìÿííûé_ãðàäèåíò_397);}.cls-83{fill:url(#Áåçûìÿííûé_ãðàäèåíò_141);}.cls-84{fill:url(#Áåçûìÿííûé_ãðàäèåíò_141-2);}.cls-85{fill:url(#Áåçûìÿííûé_ãðàäèåíò_141-3);}.cls-86,.cls-87{opacity:0.8;}.cls-86{fill:url(#Áåçûìÿííûé_ãðàäèåíò_285);}.cls-87{fill:url(#Áåçûìÿííûé_ãðàäèåíò_285-2);}.cls-88{fill:#34c7ff;}.cls-89{fill:url(#Áåçûìÿííûé_ãðàäèåíò_141-4);}.cls-90{fill:url(#Áåçûìÿííûé_ãðàäèåíò_141-5);}.cls-91{fill:url(#Áåçûìÿííûé_ãðàäèåíò_141-6);}.cls-92{fill:#36d1f7;}.cls-93{fill:#744ca2;}.cls-94{fill:url(#Áåçûìÿííûé_ãðàäèåíò_89);}.cls-95{fill:url(#Áåçûìÿííûé_ãðàäèåíò_85);}.cls-96{fill:url(#Áåçûìÿííûé_ãðàäèåíò_85-2);}.cls-97{fill:url(#Áåçûìÿííûé_ãðàäèåíò_85-3);}.cls-98{fill:url(#Áåçûìÿííûé_ãðàäèåíò_85-4);}.cls-99{fill:#d1d4fb;}.cls-100,.cls-119{mix-blend-mode:soft-light;}.cls-101{fill:#e0ffff;}.cls-102{fill:url(#Áåçûìÿííûé_ãðàäèåíò_65);}.cls-103{fill:url(#Áåçûìÿííûé_ãðàäèåíò_14);}.cls-104{opacity:0.81;fill:url(#Áåçûìÿííûé_ãðàäèåíò_115);}.cls-105{fill:#473da2;}.cls-106{fill:url(#Áåçûìÿííûé_ãðàäèåíò_302);}.cls-107{fill:url(#Áåçûìÿííûé_ãðàäèåíò_302-2);}.cls-108{fill:url(#Áåçûìÿííûé_ãðàäèåíò_322);}.cls-109{fill:url(#Áåçûìÿííûé_ãðàäèåíò_322-2);}.cls-110{fill:url(#Áåçûìÿííûé_ãðàäèåíò_25-2);}.cls-111{fill:url(#Áåçûìÿííûé_ãðàäèåíò_25-3);}.cls-112,.cls-114{opacity:0.73;}.cls-112{fill:url(#Áåçûìÿííûé_ãðàäèåíò_97);}.cls-113{fill:#953da2;}.cls-114{fill:url(#Áåçûìÿííûé_ãðàäèåíò_97-2);}.cls-115,.cls-116,.cls-117,.cls-118,.cls-119,.cls-123,.cls-124,.cls-125,.cls-126{fill-rule:evenodd;}.cls-115{fill:url(#Áåçûìÿííûé_ãðàäèåíò_206);}.cls-116{fill:url(#Áåçûìÿííûé_ãðàäèåíò_206-2);}.cls-117{fill:url(#Áåçûìÿííûé_ãðàäèåíò_107);}.cls-118{fill:#601734;}.cls-119{fill:#b3d9ff;}.cls-120{fill:#ff1d9c;}.cls-121{fill:#6877ff;}.cls-122{fill:#4f31e0;}.cls-123{fill:url(#Áåçûìÿííûé_ãðàäèåíò_107-2);}.cls-124{fill:url(#Áåçûìÿííûé_ãðàäèåíò_206-3);}.cls-125{fill:url(#Áåçûìÿííûé_ãðàäèåíò_107-3);}.cls-126{fill:url(#Áåçûìÿííûé_ãðàäèåíò_206-4);}</style><linearGradient id="Áåçûìÿííûé_ãðàäèåíò_29" x1="29.64" y1="187.9" x2="29.64" y2="139.13" gradientTransform="matrix(0.91, -0.42, 0.42, 0.91, -26.98, -15.93)" gradientUnits="userSpaceOnUse"><stop offset="0" stop-color="#dbccff"/><stop offset="1" stop-color="#d1bbff"/></linearGradient><linearGradient id="Áåçûìÿííûé_ãðàäèåíò_28" x1="29.64" y1="189.8" x2="29.64" y2="141.03" gradientTransform="matrix(0.91, -0.42, 0.42, 0.91, -26.98, -15.93)" gradientUnits="userSpaceOnUse"><stop offset="0" stop-color="#b5a6e7"/><stop offset="1" stop-color="#7760bf"/></linearGradient><linearGradient id="Áåçûìÿííûé_ãðàäèåíò_28-2" x1="29.64" y1="177.68" x2="29.64" y2="157.12" xlink:href="#Áåçûìÿííûé_ãðàäèåíò_28"/><linearGradient id="Áåçûìÿííûé_ãðàäèåíò_27" x1="26.72" y1="157.53" x2="32.55" y2="157.53" gradientTransform="matrix(0.91, -0.42, 0.42, 0.91, -26.98, -15.93)" gradientUnits="userSpaceOnUse"><stop offset="0" stop-color="#8b8be0"/><stop offset="1" stop-color="#a177b7"/></linearGradient><linearGradient id="Áåçûìÿííûé_ãðàäèåíò_94" x1="29.64" y1="158.88" x2="29.64" y2="155.35" gradientTransform="matrix(0.91, -0.42, 0.42, 0.91, -26.98, -15.93)" gradientUnits="userSpaceOnUse"><stop offset="0" stop-color="#fff"/><stop offset="1" stop-color="#a177b7"/></linearGradient><linearGradient id="Áåçûìÿííûé_ãðàäèåíò_95" x1="32.72" y1="179.77" x2="32.72" y2="157.11" gradientTransform="matrix(0.91, -0.42, 0.42, 0.91, -26.98, -15.93)" gradientUnits="userSpaceOnUse"><stop offset="0"/><stop offset="1" stop-color="#fff"/></linearGradient><linearGradient id="Áåçûìÿííûé_ãðàäèåíò_74" x1="150.76" y1="258.57" x2="150.76" y2="187.6" gradientUnits="userSpaceOnUse"><stop offset="0" stop-color="#6456c0"/><stop offset="1" stop-color="#5f2c95"/></linearGradient><radialGradient id="Áåçûìÿííûé_ãðàäèåíò_83" cx="130.92" cy="226.88" r="19.11" gradientTransform="matrix(0.65, 0.15, -0.39, 1.67, 126.53, -166.66)" gradientUnits="userSpaceOnUse"><stop offset="0" stop-color="#4b474b"/><stop offset="1"/></radialGradient><radialGradient id="Áåçûìÿííûé_ãðàäèåíò_83-2" cx="206.24" cy="212.63" r="22.76" gradientTransform="matrix(0.64, -0.18, 0.46, 1.65, -49.27, -82.55)" xlink:href="#Áåçûìÿííûé_ãðàäèåíò_83"/><linearGradient id="Áåçûìÿííûé_ãðàäèåíò_26" x1="130.96" y1="232.19" x2="152.5" y2="232.19" gradientUnits="userSpaceOnUse"><stop offset="0" stop-color="#9e8cef"/><stop offset="1" stop-color="#caafee"/></linearGradient><linearGradient id="Áåçûìÿííûé_ãðàäèåíò_26-2" x1="213.57" y1="232.19" x2="224.09" y2="232.19" gradientTransform="matrix(-1, 0, 0, 1, 381.99, 0)" xlink:href="#Áåçûìÿííûé_ãðàäèåíò_26"/><linearGradient id="Áåçûìÿííûé_ãðàäèåíò_70" x1="154.1" y1="258.57" x2="154.1" y2="187.6" gradientUnits="userSpaceOnUse"><stop offset="0" stop-color="#ccf"/><stop offset="1" stop-color="#755cbb"/></linearGradient><linearGradient id="Áåçûìÿííûé_ãðàäèåíò_70-2" x1="152.27" y1="218.16" x2="152.27" y2="201.49" xlink:href="#Áåçûìÿííûé_ãðàäèåíò_70"/><linearGradient id="Áåçûìÿííûé_ãðàäèåíò_70-3" x1="132.96" y1="212.03" x2="132.96" y2="195.7" xlink:href="#Áåçûìÿííûé_ãðàäèåíò_70"/><linearGradient id="Áåçûìÿííûé_ãðàäèåíò_354" x1="158.47" y1="95.56" x2="158.47" y2="71.17" gradientUnits="userSpaceOnUse"><stop offset="0" stop-color="#d5cdf8"/><stop offset="1" stop-color="#f3edfb"/></linearGradient><linearGradient id="Áåçûìÿííûé_ãðàäèåíò_70-4" x1="145.92" y1="83.34" x2="171.03" y2="83.34" xlink:href="#Áåçûìÿííûé_ãðàäèåíò_70"/><linearGradient id="Áåçûìÿííûé_ãðàäèåíò_26-3" x1="151.29" y1="193.04" x2="151.29" y2="70.11" xlink:href="#Áåçûìÿííûé_ãðàäèåíò_26"/><linearGradient id="Áåçûìÿííûé_ãðàäèåíò_70-5" x1="100.27" y1="116.44" x2="130.21" y2="116.44" xlink:href="#Áåçûìÿííûé_ãðàäèåíò_70"/><linearGradient id="Áåçûìÿííûé_ãðàäèåíò_178" x1="99.35" y1="150.87" x2="99.35" y2="93.38" gradientUnits="userSpaceOnUse"><stop offset="0" stop-color="#9e8cef"/><stop offset="1" stop-color="#dac7f3"/></linearGradient><linearGradient id="Áåçûìÿííûé_ãðàäèåíò_55" x1="198.2" y1="134.3" x2="236.78" y2="134.3" gradientUnits="userSpaceOnUse"><stop offset="0" stop-color="#a999f1"/><stop offset="1" stop-color="#dac7f3"/></linearGradient><linearGradient id="Áåçûìÿííûé_ãðàäèåíò_71" x1="86.8" y1="85.54" x2="86.8" y2="70.38" gradientUnits="userSpaceOnUse"><stop offset="0.02" stop-color="#ffc2a9"/><stop offset="1" stop-color="#ff9595"/></linearGradient><linearGradient id="Áåçûìÿííûé_ãðàäèåíò_48" x1="96.34" y1="85.18" x2="96.34" y2="60.09" gradientUnits="userSpaceOnUse"><stop offset="0" stop-color="#ffeadb"/><stop offset="0.99" stop-color="#c27cb6"/></linearGradient><linearGradient id="Áåçûìÿííûé_ãðàäèåíò_71-2" x1="95.53" y1="102.25" x2="95.53" y2="63.57" xlink:href="#Áåçûìÿííûé_ãðàäèåíò_71"/><linearGradient id="Áåçûìÿííûé_ãðàäèåíò_73" x1="88.61" y1="96.21" x2="100.77" y2="96.21" gradientUnits="userSpaceOnUse"><stop offset="0.02" stop-color="#d1a1d6"/><stop offset="0.99" stop-color="#bd89c4"/></linearGradient><linearGradient id="Áåçûìÿííûé_ãðàäèåíò_71-3" x1="237.57" y1="125.81" x2="237.57" y2="74.09" xlink:href="#Áåçûìÿííûé_ãðàäèåíò_71"/><linearGradient id="Áåçûìÿííûé_ãðàäèåíò_48-2" x1="243.68" y1="109.24" x2="243.68" y2="83.54" xlink:href="#Áåçûìÿííûé_ãðàäèåíò_48"/><linearGradient id="Áåçûìÿííûé_ãðàäèåíò_64" x1="248.75" y1="100.37" x2="248.75" y2="88.85" gradientUnits="userSpaceOnUse"><stop offset="0" stop-color="#ffb0b0"/><stop offset="0.98" stop-color="#ffc2a9"/></linearGradient><linearGradient id="Áåçûìÿííûé_ãðàäèåíò_64-2" x1="255.44" y1="102.14" x2="255.44" y2="95.83" xlink:href="#Áåçûìÿííûé_ãðàäèåíò_64"/><linearGradient id="Áåçûìÿííûé_ãðàäèåíò_73-2" x1="228.42" y1="114.73" x2="240.17" y2="114.73" xlink:href="#Áåçûìÿííûé_ãðàäèåíò_73"/><linearGradient id="Áåçûìÿííûé_ãðàäèåíò_70-6" x1="212.06" y1="155.29" x2="212.06" y2="97.39" xlink:href="#Áåçûìÿííûé_ãðàäèåíò_70"/><linearGradient id="Áåçûìÿííûé_ãðàäèåíò_70-7" x1="84.58" y1="143.62" x2="181.42" y2="143.62" xlink:href="#Áåçûìÿííûé_ãðàäèåíò_70"/><linearGradient id="Áåçûìÿííûé_ãðàäèåíò_4" x1="169.96" y1="127.42" x2="188.47" y2="127.42" gradientUnits="userSpaceOnUse"><stop offset="0" stop-color="#ccedff"/><stop offset="1" stop-color="#755cbb"/></linearGradient><linearGradient id="Áåçûìÿííûé_ãðàäèåíò_4-2" x1="153.17" y1="159.9" x2="180.37" y2="159.9" xlink:href="#Áåçûìÿííûé_ãðàäèåíò_4"/><linearGradient id="Áåçûìÿííûé_ãðàäèåíò_4-3" x1="154.43" y1="172.2" x2="183.49" y2="172.2" xlink:href="#Áåçûìÿííûé_ãðàäèåíò_4"/><linearGradient id="Áåçûìÿííûé_ãðàäèåíò_4-4" x1="129.42" y1="141.75" x2="129.42" y2="109.13" xlink:href="#Áåçûìÿííûé_ãðàäèåíò_4"/><linearGradient id="Áåçûìÿííûé_ãðàäèåíò_4-5" x1="132.04" y1="144.49" x2="132.04" y2="119.76" xlink:href="#Áåçûìÿííûé_ãðàäèåíò_4"/><linearGradient id="Áåçûìÿííûé_ãðàäèåíò_4-6" x1="92.97" y1="112.88" x2="92.97" y2="94.2" xlink:href="#Áåçûìÿííûé_ãðàäèåíò_4"/><linearGradient id="Áåçûìÿííûé_ãðàäèåíò_4-7" x1="108.08" y1="96.43" x2="115.61" y2="96.43" xlink:href="#Áåçûìÿííûé_ãðàäèåíò_4"/><linearGradient id="Áåçûìÿííûé_ãðàäèåíò_70-8" x1="189.92" y1="141.75" x2="189.92" y2="107.12" xlink:href="#Áåçûìÿííûé_ãðàäèåíò_70"/><linearGradient id="Áåçûìÿííûé_ãðàäèåíò_70-9" x1="228.85" y1="134.3" x2="228.85" y2="116.21" xlink:href="#Áåçûìÿííûé_ãðàäèåíò_70"/><linearGradient id="Áåçûìÿííûé_ãðàäèåíò_70-10" x1="208.33" y1="133.49" x2="208.33" y2="119.66" xlink:href="#Áåçûìÿííûé_ãðàäèåíò_70"/><linearGradient id="Áåçûìÿííûé_ãðàäèåíò_4-8" x1="89.06" y1="114.07" x2="89.06" y2="108.94" xlink:href="#Áåçûìÿííûé_ãðàäèåíò_4"/><linearGradient id="Áåçûìÿííûé_ãðàäèåíò_70-11" x1="102.78" y1="129.74" x2="102.78" y2="101.66" xlink:href="#Áåçûìÿííûé_ãðàäèåíò_70"/><linearGradient id="Áåçûìÿííûé_ãðàäèåíò_4-9" x1="175" y1="109.98" x2="175" y2="88.85" xlink:href="#Áåçûìÿííûé_ãðàäèåíò_4"/><linearGradient id="Áåçûìÿííûé_ãðàäèåíò_4-10" x1="147.33" y1="107.12" x2="147.33" y2="77.96" xlink:href="#Áåçûìÿííûé_ãðàäèåíò_4"/><linearGradient id="Áåçûìÿííûé_ãðàäèåíò_25" x1="137.48" y1="112.45" x2="186.18" y2="112.45" gradientUnits="userSpaceOnUse"><stop offset="0" stop-color="#8642a0"/><stop offset="1" stop-color="#6456c0"/></linearGradient><linearGradient id="Áåçûìÿííûé_ãðàäèåíò_70-12" x1="141.68" y1="84.35" x2="173.37" y2="84.35" xlink:href="#Áåçûìÿííûé_ãðàäèåíò_70"/><linearGradient id="Áåçûìÿííûé_ãðàäèåíò_70-13" x1="223.16" y1="132.24" x2="223.16" y2="113.9" xlink:href="#Áåçûìÿííûé_ãðàäèåíò_70"/><linearGradient id="Áåçûìÿííûé_ãðàäèåíò_70-14" x1="197.23" y1="152.93" x2="197.23" y2="97.39" xlink:href="#Áåçûìÿííûé_ãðàäèåíò_70"/><linearGradient id="Áåçûìÿííûé_ãðàäèåíò_70-15" x1="137.52" y1="179.02" x2="137.52" y2="163.1" xlink:href="#Áåçûìÿííûé_ãðàäèåíò_70"/><linearGradient id="Áåçûìÿííûé_ãðàäèåíò_70-16" x1="168.45" y1="174.64" x2="168.45" y2="166.91" xlink:href="#Áåçûìÿííûé_ãðàäèåíò_70"/><linearGradient id="Áåçûìÿííûé_ãðàäèåíò_71-4" x1="168.1" y1="75.26" x2="168.1" y2="22.36" xlink:href="#Áåçûìÿííûé_ãðàäèåíò_71"/><linearGradient id="Áåçûìÿííûé_ãðàäèåíò_71-5" x1="148.39" y1="53.91" x2="148.39" y2="38.32" xlink:href="#Áåçûìÿííûé_ãðàäèåíò_71"/><linearGradient id="Áåçûìÿííûé_ãðàäèåíò_387" x1="175.46" y1="59.81" x2="176.11" y2="56.41" gradientUnits="userSpaceOnUse"><stop offset="0" stop-color="#e1616a"/><stop offset="1" stop-color="#ff8883"/></linearGradient><linearGradient id="Áåçûìÿííûé_ãðàäèåíò_48-3" x1="169.55" y1="57.21" x2="169.55" y2="23.13" xlink:href="#Áåçûìÿííûé_ãðàäèåíò_48"/><linearGradient id="Áåçûìÿííûé_ãðàäèåíò_59" x1="167.89" y1="43.25" x2="167.89" y2="36.5" gradientUnits="userSpaceOnUse"><stop offset="0" stop-color="#cf6074"/><stop offset="1" stop-color="#f37270"/></linearGradient><linearGradient id="Áåçûìÿííûé_ãðàäèåíò_184" x1="181.36" y1="45.39" x2="181.36" y2="39.52" gradientUnits="userSpaceOnUse"><stop offset="0" stop-color="#cf6074"/><stop offset="1" stop-color="#ff817f"/></linearGradient><linearGradient id="Áåçûìÿííûé_ãðàäèåíò_48-4" x1="181.91" y1="48.81" x2="181.91" y2="35.59" xlink:href="#Áåçûìÿííûé_ãðàäèåíò_48"/><linearGradient id="Áåçûìÿííûé_ãðàäèåíò_292" x1="168.81" y1="75.92" x2="168.81" y2="11.78" gradientUnits="userSpaceOnUse"><stop offset="0" stop-color="#2e33a0"/><stop offset="1" stop-color="#0665a5"/></linearGradient><linearGradient id="Áåçûìÿííûé_ãðàäèåíò_35" x1="185.66" y1="35.53" x2="185.66" y2="20.73" gradientUnits="userSpaceOnUse"><stop offset="0" stop-color="#ffeadb"/><stop offset="0.99" stop-color="#8860c7"/></linearGradient><linearGradient id="Áåçûìÿííûé_ãðàäèåíò_52" x1="165.5" y1="75.92" x2="165.5" y2="11.78" gradientUnits="userSpaceOnUse"><stop offset="0" stop-color="#ccc2db"/><stop offset="0.99" stop-color="#8860c7"/></linearGradient><linearGradient id="Áåçûìÿííûé_ãðàäèåíò_397" x1="169.8" y1="75.91" x2="169.8" y2="73.15" gradientUnits="userSpaceOnUse"><stop offset="0" stop-color="#776d7e"/><stop offset="1" stop-color="#9d68c2"/></linearGradient><linearGradient id="Áåçûìÿííûé_ãðàäèåíò_141" x1="177.88" y1="16.38" x2="177.88" y2="14.33" gradientUnits="userSpaceOnUse"><stop offset="0" stop-color="#1f77d1"/><stop offset="1" stop-color="#0686c9"/></linearGradient><linearGradient id="Áåçûìÿííûé_ãðàäèåíò_141-2" x1="164.84" y1="23.12" x2="164.84" y2="17.07" xlink:href="#Áåçûìÿííûé_ãðàäèåíò_141"/><linearGradient id="Áåçûìÿííûé_ãðàäèåíò_141-3" x1="186.78" y1="26.19" x2="186.78" y2="20.73" xlink:href="#Áåçûìÿííûé_ãðàäèåíò_141"/><linearGradient id="Áåçûìÿííûé_ãðàäèåíò_285" x1="150.66" y1="50.22" x2="143.67" y2="41.66" gradientUnits="userSpaceOnUse"><stop offset="0" stop-color="#ffeadb"/><stop offset="0.99" stop-color="#b060f4"/></linearGradient><linearGradient id="Áåçûìÿííûé_ãðàäèåíò_285-2" x1="151.39" y1="49.12" x2="147.95" y2="44.91" xlink:href="#Áåçûìÿííûé_ãðàäèåíò_285"/><linearGradient id="Áåçûìÿííûé_ãðàäèåíò_141-4" x1="164.44" y1="23.66" x2="176.27" y2="23.66" xlink:href="#Áåçûìÿííûé_ãðàäèåíò_141"/><linearGradient id="Áåçûìÿííûé_ãðàäèåíò_141-5" x1="181.12" y1="59.04" x2="184.71" y2="59.04" xlink:href="#Áåçûìÿííûé_ãðàäèåíò_141"/><linearGradient id="Áåçûìÿííûé_ãðàäèåíò_141-6" x1="176.69" y1="56.37" x2="180.56" y2="56.37" xlink:href="#Áåçûìÿííûé_ãðàäèåíò_141"/><linearGradient id="Áåçûìÿííûé_ãðàäèåíò_89" x1="205.24" y1="65.76" x2="326.54" y2="65.76" gradientUnits="userSpaceOnUse"><stop offset="0" stop-color="#9d68c2"/><stop offset="1" stop-color="#aec2ff"/></linearGradient><linearGradient id="Áåçûìÿííûé_ãðàäèåíò_85" x1="220.96" y1="111.58" x2="220.96" y2="74.99" gradientUnits="userSpaceOnUse"><stop offset="0" stop-color="#ccedff"/><stop offset="1" stop-color="#9d68c2"/></linearGradient><linearGradient id="Áåçûìÿííûé_ãðàäèåíò_85-2" x1="283.35" y1="93.74" x2="283.35" y2="77.62" xlink:href="#Áåçûìÿííûé_ãðàäèåíò_85"/><linearGradient id="Áåçûìÿííûé_ãðàäèåíò_85-3" x1="302.36" y1="93.74" x2="302.36" y2="77.62" xlink:href="#Áåçûìÿííûé_ãðàäèåíò_85"/><linearGradient id="Áåçûìÿííûé_ãðàäèåíò_85-4" x1="264.01" y1="93.74" x2="264.01" y2="77.62" xlink:href="#Áåçûìÿííûé_ãðàäèåíò_85"/><linearGradient id="Áåçûìÿííûé_ãðàäèåíò_65" x1="90.69" y1="54.14" x2="90.69" y2="37.27" gradientUnits="userSpaceOnUse"><stop offset="0" stop-color="#d93de3"/><stop offset="1" stop-color="#ff6dba"/></linearGradient><linearGradient id="Áåçûìÿííûé_ãðàäèåíò_14" x1="101" y1="54.14" x2="101" y2="37.27" gradientUnits="userSpaceOnUse"><stop offset="0" stop-color="#a242ea"/><stop offset="1" stop-color="#fe117e"/></linearGradient><linearGradient id="Áåçûìÿííûé_ãðàäèåíò_115" x1="95.41" y1="242.19" x2="105.83" y2="159.21" gradientUnits="userSpaceOnUse"><stop offset="0" stop-color="#067eff"/><stop offset="1" stop-color="#3e37a0"/></linearGradient><linearGradient id="Áåçûìÿííûé_ãðàäèåíò_302" x1="309.68" y1="52.31" x2="309.68" y2="46.18" gradientUnits="userSpaceOnUse"><stop offset="0" stop-color="#459fff"/><stop offset="1" stop-color="#a96dff"/></linearGradient><linearGradient id="Áåçûìÿííûé_ãðàäèåíò_302-2" x1="21.94" y1="124.06" x2="21.94" y2="116.44" xlink:href="#Áåçûìÿííûé_ãðàäèåíò_302"/><linearGradient id="Áåçûìÿííûé_ãðàäèåíò_322" x1="309.72" y1="52.31" x2="309.72" y2="46.18" gradientUnits="userSpaceOnUse"><stop offset="0" stop-color="#b31a8f"/><stop offset="1" stop-color="#fe117e"/></linearGradient><linearGradient id="Áåçûìÿííûé_ãðàäèåíò_322-2" x1="112.29" y1="72.46" x2="112.29" y2="68.13" xlink:href="#Áåçûìÿííûé_ãðàäèåíò_322"/><linearGradient id="Áåçûìÿííûé_ãðàäèåíò_25-2" x1="257.3" y1="167.99" x2="257.3" y2="163.66" xlink:href="#Áåçûìÿííûé_ãðàäèåíò_25"/><linearGradient id="Áåçûìÿííûé_ãðàäèåíò_25-3" x1="32.23" y1="189.34" x2="32.23" y2="185.47" xlink:href="#Áåçûìÿííûé_ãðàäèåíò_25"/><linearGradient id="Áåçûìÿííûé_ãðàäèåíò_97" x1="57.42" y1="168.41" x2="57.42" y2="136.44" gradientUnits="userSpaceOnUse"><stop offset="0" stop-color="#d906e3"/><stop offset="1" stop-color="#ff6df9"/></linearGradient><linearGradient id="Áåçûìÿííûé_ãðàäèåíò_97-2" x1="278.16" y1="213.66" x2="278.16" y2="173.67" xlink:href="#Áåçûìÿííûé_ãðàäèåíò_97"/><linearGradient id="Áåçûìÿííûé_ãðàäèåíò_206" x1="253.62" y1="155.78" x2="250.22" y2="126.53" gradientTransform="matrix(0.97, 0.26, -0.26, 0.97, 21.87, -25.07)" gradientUnits="userSpaceOnUse"><stop offset="0" stop-color="#1852a0"/><stop offset="1" stop-color="#067ed3"/></linearGradient><linearGradient id="Áåçûìÿííûé_ãðàäèåíò_206-2" x1="250.32" y1="155.89" x2="250.32" y2="125.92" xlink:href="#Áåçûìÿííûé_ãðàäèåíò_206"/><linearGradient id="Áåçûìÿííûé_ãðàäèåíò_107" x1="216.31" y1="161.91" x2="214.11" y2="142.99" gradientTransform="matrix(0.94, 0.33, -0.52, 1.49, 99.46, -122.61)" gradientUnits="userSpaceOnUse"><stop offset="0" stop-color="#188dc1"/><stop offset="1" stop-color="#06bfe7"/></linearGradient><linearGradient id="Áåçûìÿííûé_ãðàäèåíò_107-2" x1="237.77" y1="35.03" x2="245.53" y2="6.2" gradientTransform="matrix(1, 0, 0, 1, 0, 0)" xlink:href="#Áåçûìÿííûé_ãðàäèåíò_107"/><linearGradient id="Áåçûìÿííûé_ãðàäèåíò_206-3" x1="224.43" y1="31.71" x2="230.22" y2="10.21" gradientTransform="matrix(1, 0, 0, 1, 0, 0)" xlink:href="#Áåçûìÿííûé_ãðàäèåíò_206"/><linearGradient id="Áåçûìÿííûé_ãðàäèåíò_107-3" x1="-81.25" y1="84.69" x2="-75.96" y2="65.03" gradientTransform="matrix(-1, 0, 0, 1, -67.94, 0)" xlink:href="#Áåçûìÿííûé_ãðàäèåíò_107"/><linearGradient id="Áåçûìÿííûé_ãðàäèåíò_206-4" x1="-90.35" y1="82.42" x2="-86.4" y2="67.76" gradientTransform="matrix(-1, 0, 0, 1, -67.94, 0)" xlink:href="#Áåçûìÿííûé_ãðàäèåíò_206"/></defs><title>web2</title><g class="cls-1"><g id="illustration"><path class="cls-2" d="M65.76,109c0-.16.08-.25.24-.24l4.6.14a3.19,3.19,0,0,1,1.15.21,1.83,1.83,0,0,1,1.17,1.29,3.57,3.57,0,0,1,.1,1l0,1.26a3.43,3.43,0,0,1-.16,1,1.88,1.88,0,0,1-.45.75,2,2,0,0,1-.79.47,3.72,3.72,0,0,1-1.17.14L67.94,115l-.52-1.45h-.06l0,1.43-1.73,0Zm1.6,4.34,2.94.09a.94.94,0,0,0,.71-.2,1.08,1.08,0,0,0,.24-.77l0-1a1.09,1.09,0,0,0-.19-.79,1,1,0,0,0-.7-.22l-2.81-.09a.1.1,0,0,0-.09,0,.09.09,0,0,0,0,.08Z" transform="translate(-8.95)"/><path class="cls-2" d="M75.51,111.65h-.06l0,1.84c0,.08,0,.12.11.12l5.17.16-.05,1.59-6.78-.21c-.16,0-.24-.09-.23-.26l.17-5.62A.22.22,0,0,1,74,109l6.58.2a.23.23,0,0,1,.25.26l-.05,1.59-1.63.55h-.07l0-.82c0-.06,0-.09-.08-.09l-3.48-.11a.1.1,0,0,0-.09,0,.19.19,0,0,0,0,.08l0,.76,2.86.09,0,1.25-2.4-.08Z" transform="translate(-8.95)"/><path class="cls-2" d="M87,111.54h-.07l0-.68a.09.09,0,0,0-.1-.1l-3.23-.1a.26.26,0,0,0-.32.29v.15a.32.32,0,0,0,.06.23.48.48,0,0,0,.22.08l3.79.65a2.8,2.8,0,0,1,.61.17,1.21,1.21,0,0,1,.4.29.93.93,0,0,1,.22.43,2.69,2.69,0,0,1,0,.6l0,.49a2.29,2.29,0,0,1-.11.67,1.13,1.13,0,0,1-.32.48,1.4,1.4,0,0,1-.56.28,3.18,3.18,0,0,1-.86.07l-5.45-.16.05-1.59,4.89.14a.34.34,0,0,0,.29-.07.39.39,0,0,0,.08-.28v-.16a.25.25,0,0,0-.26-.32l-3.66-.57a2.84,2.84,0,0,1-.63-.17,1.23,1.23,0,0,1-.43-.28,1.08,1.08,0,0,1-.23-.42,2.55,2.55,0,0,1-.06-.59l0-.43a1.43,1.43,0,0,1,.38-1,1.66,1.66,0,0,1,1.19-.33l5.45.17c.17,0,.25.1.25.28l0,1.26Z" transform="translate(-8.95)"/><path class="cls-2" d="M89.3,115.62l.18-6.13,1.74.05L91,115.67Z" transform="translate(-8.95)"/><path class="cls-2" d="M97.47,113.24a2.62,2.62,0,0,0,0-.28,1.84,1.84,0,0,0,0-.26v-.08l1.72,0-.09,3c0,.16-.08.23-.22.23l-4.61-.14a3.25,3.25,0,0,1-1.16-.21,1.89,1.89,0,0,1-.76-.51,1.93,1.93,0,0,1-.4-.78,3.56,3.56,0,0,1-.11-1l0-1.26a3.37,3.37,0,0,1,.17-1,1.79,1.79,0,0,1,1.24-1.22,3.39,3.39,0,0,1,1.16-.14l4.59.14a.23.23,0,0,1,.24.26l0,1.32-1.63.54h-.07l0-.59s0-.08-.07-.08l-2.93-.09a1.43,1.43,0,0,0-.43,0,.6.6,0,0,0-.45.45,1.86,1.86,0,0,0-.07.46l0,1.08a1.1,1.1,0,0,0,.19.78.94.94,0,0,0,.7.24l2.9.09a.09.09,0,0,0,.1-.1Z" transform="translate(-8.95)"/><path class="cls-2" d="M102.82,109.9a.51.51,0,0,1,.28.06.72.72,0,0,1,.14.19l2.19,4.48a.18.18,0,0,0,.15.1h.1c.09,0,.13,0,.14-.13L106,110l1.57.05-.18,5.88c0,.17-.08.24-.24.24l-2.49-.08a.62.62,0,0,1-.27,0,.7.7,0,0,1-.16-.2l-2.27-4.47a.18.18,0,0,0-.16-.11h-.08c-.09,0-.14,0-.14.13L101.4,116l-1.57,0,.18-5.88c0-.16.08-.25.24-.24Z" transform="translate(-8.95)"/><circle class="cls-3" cx="148.55" cy="108.64" r="106.2" transform="translate(-42.26 136.86) rotate(-45)"/><path class="cls-4" d="M70.48,101.84a16.33,16.33,0,0,0-7.23-6.35l-1.62.76,3.63,6.58A7,7,0,0,1,63,106.74h0a7.06,7.06,0,0,1-4.43-.81l-2.72-7-1.61.75a16.24,16.24,0,0,0,.23,9.62s.68,1.58.8,1.72c.64.75,2.3,1.61,5.52,1.41l11.1,21.17a5.81,5.81,0,1,0,6-2.8L68.82,108.7c2.17-2.29,2.63-4.1,2.46-5.14A18.17,18.17,0,0,0,70.48,101.84Zm9.13,36.52-2.94,1.38L74,137.88l.28-3.24,2.94-1.37,2.66,1.86Z" transform="translate(-8.95)"/><path class="cls-5" d="M71.28,103.56a16.29,16.29,0,0,0-7.23-6.34L62.44,98l3.63,6.58a7.1,7.1,0,0,1-2.22,3.92h0a7,7,0,0,1-4.43-.82l-2.72-7-1.61.75a16.33,16.33,0,0,0,.23,9.62s2.51,3.37,6.33,3.13l11.1,21.18a5.8,5.8,0,1,0,10.27.45,5.75,5.75,0,0,0-4.27-3.25l-9.12-22.1C72.25,107.65,71.28,103.56,71.28,103.56Zm9.13,36.53-2.94,1.37-2.66-1.86.28-3.23L78,135l2.66,1.86Z" transform="translate(-8.95)"/><rect class="cls-6" x="54.6" y="99.2" width="1.78" height="1.9" transform="translate(-46.13 32.9) rotate(-25.04)"/><rect class="cls-6" x="61.95" y="95.78" width="1.78" height="1.9" transform="translate(-43.99 35.7) rotate(-25.04)"/><rect class="cls-6" x="76.92" y="138.96" width="3.25" height="1.9" transform="translate(-60.79 46.4) rotate(-25.04)"/><path class="cls-7" d="M64,115.71l9,17.23a4.4,4.4,0,0,0,3.62-1.69l-7.3-18A6.89,6.89,0,0,0,64,115.71Zm11.9,15.68a5.06,5.06,0,0,1-1.16.76,4.31,4.31,0,0,1-1.24.37l-9-16.87a9.11,9.11,0,0,1,2.16-1.42,7.45,7.45,0,0,1,2.22-.66Z" transform="translate(-8.95)"/><path class="cls-6" d="M75.91,131.39l.69-.14A3.87,3.87,0,0,1,73,132.94l.53-.42A4.93,4.93,0,0,0,75.91,131.39Z" transform="translate(-8.95)"/><path class="cls-8" d="M64,115.71l.52-.06a8.4,8.4,0,0,1,4.38-2.08l.39-.33A6.79,6.79,0,0,0,64,115.71Z" transform="translate(-8.95)"/><path class="cls-9" d="M61.64,114.14a19.8,19.8,0,0,0,8-3.72l1.17,2.83s-1.32-1.31-4.22-.13c-3.4,1.38-3.21,4.12-3.21,4.12Z" transform="translate(-8.95)"/><path class="cls-10" d="M70.79,113.25a3.49,3.49,0,0,0-1.78-.62l8.68,21,1-1.08Z" transform="translate(-8.95)"/><path class="cls-11" d="M70.79,113.25a3.46,3.46,0,0,0,1.7,4.13Z" transform="translate(-8.95)"/><path class="cls-12" d="M195.91,258.57h-32.2c-3.38-18.72-5.7-52.92-5.7-52.92-1.9-1.13-5.62.26-5.62.26L135.1,258.57H105.68c-1.56-26.42,18.41-66.25,18.41-66.25h0a3.23,3.23,0,0,1-.39-1.64,4,4,0,0,1,1.1-1.27c.79-.73,1.74-1.46,1.74-1.46l54.88-.34s.56.28,1.27.71h0c1.2.72,2.82,1.85,2.82,2.67a3.79,3.79,0,0,1-.55,2l0,0C196.7,215.25,195.91,258.57,195.91,258.57Z" transform="translate(-8.95)"/><path class="cls-13" d="M132.94,239.35C129,256.42,120.45,269,113.84,267.5s-3.25-26.45.69-43.52S127,194.3,133.62,195.82,136.88,222.27,132.94,239.35Z" transform="translate(-8.95)"/><path class="cls-14" d="M195.32,223.12c4.73,16.87-2.25,41.88-8.78,43.71s-15.66-10.36-20.39-27.24,2.25-41.88,8.78-43.71S190.59,206.25,195.32,223.12Z" transform="translate(-8.95)"/><path class="cls-15" d="M131.29,258.6l-.33-.06c3.74-22.06,18.76-50.41,18.86-50.59l0,0,2.42-2.12.22.26-2.39,2.09C149.68,209,135,237,131.29,258.6Z" transform="translate(-8.95)"/><path class="cls-16" d="M168.08,258.6c-3.67-21.62-7.61-49.82-8-50.64L157.9,206l.23-.26,2.2,2c.1.19,4.34,28.71,8.08,50.77Z" transform="translate(-8.95)"/><path class="cls-17" d="M185.51,191a3.79,3.79,0,0,1-.55,2l0,0c-11.43,2.58-20.12,13.25-20.12,13.25,6.23,12,11.1,52.28,11.1,52.28h-12.2c-3.38-18.72-5.7-52.92-5.7-52.92-1.9-1.13-5.62.26-5.62.26L135.1,258.57h-7.62c2.73-17.94,16.3-49.68,16.3-49.68-7.92-9.22-19.69-16.57-19.69-16.57h0l-1.4-.88,1-.76c5.09,4.89,21.51,11.26,22,11.46L124.8,189.4c.79-.73,1.74-1.46,1.74-1.46l54.88-.34s.56.28,1.27.71l-15,8.25Z" transform="translate(-8.95)"/><polygon class="cls-18" points="149.06 205.65 155.47 201.49 153.95 205.65 152.83 218.16 149.06 205.65"/><polygon class="cls-19" points="143.44 205.91 136.76 202.13 122.48 195.7 140.67 207.72 141.75 212.03 143.44 205.91"/><path class="cls-20" d="M170.75,77.2a4.63,4.63,0,0,0,.08.46,39.85,39.85,0,0,1-1.14,3.87,31.62,31.62,0,0,1-4.27,8.31A17,17,0,0,1,163.56,92c-10-3.14-14.92-12.92-16.82-17.78a.19.19,0,0,1,0-.08c-.37-.92-.61-1.66-.76-2.14h0l-.17-.6c0-.08.08-.17.13-.25l0,0c.16-.34.32-.69.48-1a50.82,50.82,0,0,0,2.74-7.66c.48-1.79.74-3.18.87-3.91.06-.38.08-.58.08-.58l4.66,2.46,16.06,8.49a27,27,0,0,0-.35,4.07c0,.86,0,1.63.07,2.28s.13,1.42.19,1.83h0A.31.31,0,0,0,170.75,77.2Z" transform="translate(-8.95)"/><path class="cls-21" d="M166.3,93.09A14,14,0,0,1,163,95.52l-.08,0-.1,0h0a36.07,36.07,0,0,1-3.15-2.15c-4.19-3.16-11.19-9.54-13.19-18.15l0,0A22.75,22.75,0,0,1,146,72h0c0-.28,0-.56,0-.85a43.84,43.84,0,0,0,3.8,6.79c2.83,4.16,7.09,8.68,12.17,8.71,4.4,0,6.65-3,7.8-5.75a15.44,15.44,0,0,0,.92-3.15,0,0,0,0,0,0,0c0-.25.08-.46.12-.65h0l0-.25c0-.31.06-.49.06-.49S172.51,86.88,166.3,93.09Z" transform="translate(-8.95)"/><path class="cls-22" d="M166.3,93.09A14,14,0,0,1,163,95.52h-.18a36.07,36.07,0,0,1-3.15-2.15c-4.19-3.16-11.19-9.54-13.19-18.15l0,0A22.75,22.75,0,0,1,146,72h0c0-.28,0-.56,0-.85a43.84,43.84,0,0,0,3.8,6.79s2.77,7.61,8.75,11.38c3,1.88,5.28,1.61,6.95.5a10.42,10.42,0,0,0,3.39-4.48,10.65,10.65,0,0,0,.88-3.83c0-.22,0-.43,0-.61a15.44,15.44,0,0,0,.92-3.15,0,0,0,0,0,0,0c0-.25.08-.46.12-.65h0l0-.25c0-.31.06-.49.06-.49S172.51,86.88,166.3,93.09Z" transform="translate(-8.95)"/><path class="cls-23" d="M204.77,155.22l-.11.06c-.56.07-2.31-.32-4.59-2.3h0a0,0,0,0,0,0,0s0,0,0,0a29.14,29.14,0,0,1-6.51-9.07c-4.59-9.18-5.91-15.3-6.12-16.37l0-.16-2.68,4.24c-1.81,5.46-5.25,28.06-5.19,29s3.05,5.72,3,6.3h0c-.08.59-1.43,1.89-1.81,3.3-.26.94,1.56,3.9,2.84,6.11h0a8.78,8.78,0,0,1,1.18,2.45c0,1-3.25,6.1-3.25,6.1v2.72l0,.05-.15.14-.13.1c-1.23,1-6.46,4.16-22.79,5-19.36,1-32.25-5.2-32.25-5.2l1-2.66s-.9-.78-1-1.17.71-1.3.71-1.3-1.94-1-1.94-2.34,3.9-5.31,3.77-8.76-3.12-6.49-3.51-8.43,5.06-6.75,5.06-6.75c-4.67-14.8-5.58-34.66-5.58-34.66l-.91-1s-5.58,12.72-10.64,18.95c-.61.74-1.24,1.47-1.9,2.18a53.44,53.44,0,0,1-4.36,4.21c-3.51,3.06-6.69,5.06-7.5,4.91-1.3-.26-6.5-10.52-6.26-21,.11-5,3.13-10.59,6.26-15.08.33-.48.67-1,1-1.41a70.77,70.77,0,0,1,5.37-6.48l.63-.65s-.71-2.29-1.2-4.29a.74.74,0,0,0,0-.14.17.17,0,0,0,0-.07.18.18,0,0,1,0,0,5.9,5.9,0,0,1-.3-2.55c.43-.69,2.94-1.47,3.37-2s2.25-9.27,3.63-10.22,3.67-1.57,11.46-4.64l1.18-.46c8.74-3.46,17.31-7.66,17.31-7.66l3.29-4h1.47l-.48,1,0,0c.23,1,.5,2,.8,3a.19.19,0,0,0,0,.08A30.66,30.66,0,0,0,162.9,93.1a20.23,20.23,0,0,0,7.93-15.44V76.35l1.51.46,1,2.46s1.76,2.73,8.71,5.78c1.19.53,2.48,1.2,3.81,2,6.36,3.61,13.43,9.19,14,10.38a3.13,3.13,0,0,1,.19.59h0c.74,2.94,2.28,13.92,3.7,17.84a9,9,0,0,0,3.33,4.49h0a5,5,0,0,0,1.32.69c.11.6.22,1.2.31,1.79C211.71,141.58,206.05,154.33,204.77,155.22Z" transform="translate(-8.95)"/><path class="cls-24" d="M130.21,119.76l-5.64,1.9-.91-1s-5.58,12.72-10.64,18.95c-.61.74-1.24,1.47-1.9,2.18a53.44,53.44,0,0,1-4.36,4.21l-4.3-18.54-2.19-14.08a70.77,70.77,0,0,1,5.37-6.48l.63-.65s-.71-2.29-1.2-4.29a.74.74,0,0,0,0-.14.17.17,0,0,0,0-.07.18.18,0,0,1,0,0,5.9,5.9,0,0,1-.3-2.55c.43-.69,2.94-1.47,3.37-2s2.25-9.27,3.63-10.22c0,0-.9,8.39,3.9,19l2.34,3.29,6.84,5.49A21.52,21.52,0,0,0,130.21,119.76Z" transform="translate(-8.95)"/><path class="cls-25" d="M113.88,134.94c-1.21,9-14.62,15.93-14.62,15.93-3,0-6.32-5.2-9.35-11.6s-3.22-24.81-3.37-26-1.85-3.41-2-4.38,2.73-3,2.73-3l0,0,0-.05c-.29-.63-2-4.18-1.84-4.83s3.31-2.27,3.31-2.27l.19,3.5s7.39-1.4,9.89-7.12l.44-1.75,1.23.82v7.53s.26,1.17.65,1.17,3.26-1.44,3.87-1.24,1.2,4.23,2,4.74,3,2,3.27,2.73a13.06,13.06,0,0,1,.17,2.84,28.71,28.71,0,0,0,.28,4.76C111.2,118.73,115.09,125.94,113.88,134.94Z" transform="translate(-8.95)"/><path class="cls-26" d="M236.51,127.24c-.61,1-3.63,2.94-4.41,3.72s0,3.34,0,3.34a104.93,104.93,0,0,1-27.33,20.92l-.11.06c-8-5.37-7.3-14.22-4.65-21.67a56.56,56.56,0,0,1,7.07-13.28h0a16.58,16.58,0,0,1,4.05-1.13,2.49,2.49,0,0,1,1.5.47c1,.6,1.8,1.55,2.59,1.16,1.17-.59,3.79-6.78,5.56-6.95,1.24-.12,3,1.14,4.11,1.86.5.32.89.53,1.08.48.65-.17,2.86-2.82,3-2.89s1.17.67,1.17.67l-.7.87a23.92,23.92,0,0,0,4.63,10.43l2.38-3.48S237.12,126.28,236.51,127.24Z" transform="translate(-8.95)"/><path class="cls-27" d="M170.78,76.94l0,.26a3.39,3.39,0,0,1-.13.55,0,0,0,0,1,0,0c-.81,3-4.11,6.11-8.27,4.62-4.54-1.62-13.18-19.94-13.18-19.94l.87-3.91,20.52,16.72.22,1.58Z" transform="translate(-8.95)"/><path class="cls-28" d="M102.46,73.58s-1.26-6.92-.69-12a55.38,55.38,0,0,0-.15-10.91,2.78,2.78,0,0,0-2.15,0c-.91.52-3,5.8-2.07,10s.21,14.41.21,14.41H96.18l-3.11-4.28-1.52-.44S82.83,78.6,83,83.49l1.14,4.35,10.74-.37,7-8Z" transform="translate(-8.95)"/><path class="cls-29" d="M91.55,70.38A56.28,56.28,0,0,0,93,80.51a2.41,2.41,0,0,1-2.44,2L90,81.94a2.85,2.85,0,0,1-2.37,2.33l-1.88-1.88L86.24,84a2.67,2.67,0,0,1-2.46,1.59s-3-2.34-3.18-5.39l3-2.5V75.74l3.5-2.47.07-1.39A8.21,8.21,0,0,1,91.55,70.38Z" transform="translate(-8.95)"/><path class="cls-30" d="M101.89,60.09A4.84,4.84,0,0,1,100.62,62a11.3,11.3,0,0,1-2.91.91l-.1,12.24H96.18l-3.11-4.28a11.18,11.18,0,0,1,1.67,4.28l-1.23.61L92.44,72l-.51,2.64L92.44,78a8.61,8.61,0,0,1,5.19-1.65l.5.91s-6,5-7.44,8c0,0,3-3.8,9.8-8l.65-2,.86-4.81S101.18,63.46,101.89,60.09Z" transform="translate(-8.95)"/><path class="cls-31" d="M107,81.42c-.56,1.68-6.45,8.69-7.1,10.21a20.76,20.76,0,0,0-1,3.5c-2.89,6.26-9.89,7.12-9.89,7.12l-.32-5.64s-3.76-2.17-4.4-3.35v0l-.08-.2a47.87,47.87,0,0,1,0-5.2l6.59-2.66c2.86-3.7,9.8-8,9.8-8l.32-1.94c-5-2.46-4.15-9.87-3.3-10.79a3.69,3.69,0,0,1,2.39-.9s1.83,6,3,8.76S107.52,79.73,107,81.42Z" transform="translate(-8.95)"/><path class="cls-32" d="M87.12,71.88s.73,6.81,2.89,10.06a15.9,15.9,0,0,1-3-8.67Z" transform="translate(-8.95)"/><path class="cls-32" d="M83.55,75.74s.71,5.48,4.09,8.53c0,0-3-1.49-4.09-6.62Z" transform="translate(-8.95)"/><path class="cls-33" d="M100.77,90.18s-7.42,7.21-12.16,6.43l.32,5.64a12.54,12.54,0,0,0,10.33-8.87A21.65,21.65,0,0,1,100.77,90.18Z" transform="translate(-8.95)"/><path class="cls-34" d="M257.69,100s-6.82,12.46-14.8,16.29h-2.72l-6.3,9.54s-4.07-2.55-4.37-11a7.63,7.63,0,0,0,1.77-3.16,12.76,12.76,0,0,1-2.85-3.06c-.61-1.31-.83-5.2-1.26-6.8s-4.11-4.93-4.93-5.36-4.54-.66-4.54-.66-.52-1.34,0-2,6.31-2.91,9.47-.74a14.39,14.39,0,0,0,.56,2.51c.35.87,3.12,3.93,3.55,3.93s2.3-1.55,3.12-2.76a123.53,123.53,0,0,0,6-13.24.32.32,0,0,1,0-.09s0-.09,0-.14a.31.31,0,0,0,0-.08s0,0,0,0c.78-2.64,5.32-7.7,7.75-9.08a1.42,1.42,0,0,1,1.59,1,56.25,56.25,0,0,1-4,8.83c-.34.56-.71,1.21-1.09,1.91h0c-1.73,3.18-3.69,7.36-4,8l0,.08,1.08.56,2.93-2.78,3-2.84,6.88,7.27L254,97l-2.15,2.76,1.09.2,2.54-2.8Z" transform="translate(-8.95)"/><path class="cls-35" d="M256.1,102.63l-2.18,3.2s-12-9.22-14.56-10-3.54-.26-3.54-.26L233.14,99s4.93,4.37,5.36,10.26c0,0-1.64-7.44-7.23-9.7.43,0,2.3-1.55,3.12-2.76a123.53,123.53,0,0,0,6-13.24,3.36,3.36,0,0,0,.11,2.34c.59,1.09,4,.06,4.26,0h0l-4,8,0,.08,1.08.56,2.93-2.78-1.47,3.41L254,97l-2.15,2.76,1.09.2Z" transform="translate(-8.95)"/><path class="cls-36" d="M247.76,88.86s2.08-.3,3.42,2.38l-.31.86s2,.4,4,3.68a11.15,11.15,0,0,1-6,4.59,3.44,3.44,0,0,1-2.34-2.25l.39-1.08-1.55,1.17s-1.86.56-2.69-2.21Z" transform="translate(-8.95)"/><path class="cls-37" d="M258.32,99.11a3.2,3.2,0,0,0-1.69-3.28l-4.11,4.54a2.11,2.11,0,0,0,1.9,1.77S257.24,101.19,258.32,99.11Z" transform="translate(-8.95)"/><path class="cls-38" d="M228.42,108.64a30.51,30.51,0,0,0,11.75,7.63l-3,4.56-6.28-8,.4-1.15S228.76,109.81,228.42,108.64Z" transform="translate(-8.95)"/><path class="cls-32" d="M250.87,92.1a23.85,23.85,0,0,1-4,4.94l-.39,1.08s3.87-2.61,5.29-5.62A2.52,2.52,0,0,0,250.87,92.1Z" transform="translate(-8.95)"/><path class="cls-39" d="M236.51,127.24c-.61,1-3.63,2.94-4.41,3.72s0,3.34,0,3.34a104.93,104.93,0,0,1-27.33,20.92l-.11.06c-1,.13-6.1-1.3-11.16-11.42-4.59-9.18-5.91-15.3-6.12-16.37l0-.16,1.12-1.52,1.66-18.69,1.16,3.76a88,88,0,0,0,8.57-13.49l.19.59h0c.74,2.94,2.28,13.92,3.7,17.84a9,9,0,0,0,3.33,4.49h0c-4.06,3.71-6.07,9-7.07,13.28a36.71,36.71,0,0,0-1,6.87,46,46,0,0,1,4.67-11.62,25.12,25.12,0,0,1,5-6.06,39.17,39.17,0,0,1,3.92-3.14c1,.6,1.8,1.55,2.59,1.16-5.34,8-5.21,23.9-.19,20.87s6.16-9.45,6.16-9.45c-1.18-7.83-.83-16.67.12-18.34,1.16,0,4.47,2.36,4.66,2.31a27.12,27.12,0,0,0,4,15.36l2.86-4.42A27.37,27.37,0,0,1,229,113.32c.17-.07,1.17.67,1.17.67l-.7.87a23.92,23.92,0,0,0,4.63,10.43l2.38-3.48S237.12,126.28,236.51,127.24Z" transform="translate(-8.95)"/><path class="cls-40" d="M181.42,184.88v2.72l0,.05-.15.14-.13.1c-1.23,1-6.46,4.16-22.79,5-19.36,1-32.25-5.2-32.25-5.2l1-2.66s-.9-.78-1-1.17.71-1.3.71-1.3-1.94-1-1.94-2.34,3.18-4.56,3.69-7.74a5.07,5.07,0,0,0,.08-1c-.13-3.42-3.09-6.46-3.51-8.4v0c-.39-1.95,5.06-6.75,5.06-6.75-4.67-14.8-5.58-34.66-5.58-34.66l-.91-1s-5.58,12.72-10.64,18.95-12.47,11.56-13.76,11.3c-3,0-6.32-5.2-9.35-11.6s-3.22-24.81-3.37-26-1.85-3.41-2-4.38c3.25,5.58,8.42,3.94,8.42,3.94-3.74.08-5.69-6.93-5.69-6.93l0,0,0-.05L85.44,101c.21.24,4.49,5,8.63,2.07s6.42-8.89,6.42-8.89v7.53s.26,1.17.65,1.17a93.21,93.21,0,0,1-1.88,11.85c-1.93,9-4.56,17.68-4.56,17.68s7.15-3.89,9.66-13.76a41.42,41.42,0,0,0,1.28-11.81,29.33,29.33,0,0,0-.57-4.94.74.74,0,0,0,0-.14.17.17,0,0,0,0-.07v0l.7,1.46L107,106.4c1.53,12.66-1.62,31.74-1.62,31.74,4.59-5.71,5.54-18.34,5.34-21.41-.09-1.47-.2-3.28-.28-4.76s-.17-2.84-.17-2.84l9.39,5.6L118,109.24l6.84,5.49s6.14,7.4,12.46,8.27,29.51.35,29.51.35-20.17,1.29-26,3-7,3.72-7,3.72c4.25,21.65,27.8,28.94,28.53,29.16-21.36-3.2-31.3-21.37-31.3-21.37s-.35,10.22,1.3,14.11,11.34,13.41,23.8,15.4a27.86,27.86,0,0,0,3.1.32c10.51.49,19.21-4.88,20.1-5.46l.08,0,0,0c-.34.51-4.65,6.57-22,7.23-1.05.05-2.08,0-3.08,0h0a33.64,33.64,0,0,1-24.34-11.42s-6,3.2-2.16,8l.13.15c1.12,1.29,3.59,2.88,6.52,4.51l.24.13c3.53,2,7.68,4,10.89,5.64l0,0a40.51,40.51,0,0,1,4.47,2.55,0,0,0,0,1,0,0c.9.66,1.09,1.08.2,1.18-4.5.52-21.54-3.2-22.24-2.16s.85,3.72.85,3.72c15.64,7.75,49.13,3.93,50.18,3.81-28,7.18-50.94-1.91-50.94-1.91l.76,2.69A100.3,100.3,0,0,0,155.94,191c14.71.34,23.89-3.42,23.89-3.42Z" transform="translate(-8.95)"/><path class="cls-41" d="M170,123.26s11.14.6,18.51,2.55l-3.8,5.76A50.59,50.59,0,0,0,170,123.26Z" transform="translate(-8.95)"/><path class="cls-42" d="M180.37,154s-7,5.8-13.79,8.48a46.16,46.16,0,0,1-13.41,2.94s3.93,1.17,13.6-.39,13-6.79,13-6.79Z" transform="translate(-8.95)"/><path class="cls-43" d="M183.49,176.32h0c-12.86,3.32-29.2-1.45-29.06-2s4.47.26,14.53-1.76c9.75-1.95,13.29-5.42,13.5-5.63-.08.59-1.43,1.89-1.81,3.3C180.39,171.15,182.21,174.11,183.49,176.32Z" transform="translate(-8.95)"/><path class="cls-44" d="M148.55,125c-11,1.12-14,4.18-14,4.18-3.09.39-10-7.52-10-7.52l-.91-1s-5.58,12.72-10.64,18.95c-.61.74-1.24,1.47-1.9,2.18l.72-1.62s1.18-.56,1.52-6.75-2.6-15.4-2.62-16.65-.45-7.6-.45-7.6l9.39,5.6L118,109.24l6.84,5.49s2.68,4,9.44,7.39A31.82,31.82,0,0,0,148.55,125Z" transform="translate(-8.95)"/><path class="cls-45" d="M123.66,120.62l6.55-.86a49,49,0,0,0,7.87,3.88l-4.38,6.45s1.74,9.21,6.72,14.4c0,0-13.23-7.35-15.09-13.53Z" transform="translate(-8.95)"/><path class="cls-46" d="M85.44,101,87.31,106s1.91,6.65,5.69,6.93,7.49-11.15,7.49-11.15V94.2s-4,8.64-8.37,9.61A6.46,6.46,0,0,1,85.44,101Z" transform="translate(-8.95)"/><path class="cls-47" d="M108.08,97.13s3.38,6.74,7.53,8.82c0,0-4.94-12-3.9-19C111.71,86.91,109.9,88,108.08,97.13Z" transform="translate(-8.95)"/><path class="cls-48" d="M190.13,107.12l1.16,3.76,1.18,30.87a74.43,74.43,0,0,1-5.09-14.26l1.09-1.68S190.3,114.18,190.13,107.12Z" transform="translate(-8.95)"/><path class="cls-49" d="M226,116.21s-.66,15.16,5.79,16.47l.32,1.62S223.76,134,226,116.21Z" transform="translate(-8.95)"/><path class="cls-50" d="M215.24,120.82s-.24.54-2.59-1.16c0,0-8.1,5.74-11.23,13.83,0,0,5-7.43,7.66-8.24s3.3,2.17,3.3,2.17A22.53,22.53,0,0,1,215.24,120.82Z" transform="translate(-8.95)"/><path class="cls-51" d="M84.58,108.94s3.12,5.75,9,3.94c0,0-3.5,2.36-7,.44C86.54,113.32,84.36,109.59,84.58,108.94Z" transform="translate(-8.95)"/><path class="cls-52" d="M105,101.66s4.28,16-6.9,28.08A18.6,18.6,0,0,0,107,117.37,26.52,26.52,0,0,0,105,101.66Z" transform="translate(-8.95)"/><path class="cls-53" d="M181.84,88.85s-.49,7.24-4,12.43-10.34,8.7-10.34,8.7,8.63-3.19,12.59-7.66S181.84,88.85,181.84,88.85Z" transform="translate(-8.95)"/><path class="cls-54" d="M137.68,78a45.73,45.73,0,0,0,1.95,12.22c1.94,6.17,18.85,16.94,18.85,16.94s-17.43-7.24-20.8-13.74S137.68,78,137.68,78Z" transform="translate(-8.95)"/><path class="cls-55" d="M137.48,106.78v9.85s22.69-.18,48.12,1.5l.58-8.87A443,443,0,0,0,137.48,106.78Z" transform="translate(-8.95)"/><path class="cls-56" d="M141.69,109c0-.16.08-.25.24-.24l4.6.14a3.19,3.19,0,0,1,1.15.21,1.83,1.83,0,0,1,1.17,1.29,3.57,3.57,0,0,1,.1,1l0,1.26a3.43,3.43,0,0,1-.16,1,1.88,1.88,0,0,1-.45.75,2,2,0,0,1-.79.47,3.72,3.72,0,0,1-1.17.14l-2.47-.08-.52-1.45h-.06l0,1.43-1.73,0Zm1.6,4.34,2.94.09a.94.94,0,0,0,.71-.2,1.08,1.08,0,0,0,.24-.77l0-1a1.09,1.09,0,0,0-.19-.79,1,1,0,0,0-.7-.22l-2.81-.09a.1.1,0,0,0-.09,0,.09.09,0,0,0,0,.08Z" transform="translate(-8.95)"/><path class="cls-56" d="M151.44,111.65h-.06l0,1.84c0,.08,0,.12.11.12l5.17.16-.05,1.59-6.78-.21c-.16,0-.24-.09-.23-.26l.17-5.62A.22.22,0,0,1,150,109l6.58.2a.23.23,0,0,1,.25.26l-.05,1.59-1.63.55h-.07l0-.82c0-.06,0-.09-.08-.09l-3.48-.11a.1.1,0,0,0-.09,0,.19.19,0,0,0,0,.08l0,.76,2.86.09,0,1.25-2.4-.08Z" transform="translate(-8.95)"/><path class="cls-56" d="M162.93,111.54h-.07l0-.68a.09.09,0,0,0-.1-.1l-3.23-.1a.26.26,0,0,0-.32.29v.15a.32.32,0,0,0,.06.23.48.48,0,0,0,.22.08l3.79.65a2.8,2.8,0,0,1,.61.17,1.12,1.12,0,0,1,.4.29.93.93,0,0,1,.22.43,2.69,2.69,0,0,1,0,.6l0,.49a2,2,0,0,1-.11.67,1.13,1.13,0,0,1-.32.48,1.4,1.4,0,0,1-.56.28,3.18,3.18,0,0,1-.86.07l-5.45-.16.05-1.59,4.89.14a.34.34,0,0,0,.29-.07.39.39,0,0,0,.08-.28v-.16a.25.25,0,0,0-.26-.32l-3.66-.57a2.84,2.84,0,0,1-.63-.17,1.23,1.23,0,0,1-.43-.28,1.08,1.08,0,0,1-.23-.42,2.55,2.55,0,0,1-.06-.59l0-.43a1.43,1.43,0,0,1,.38-1,1.66,1.66,0,0,1,1.19-.33l5.45.17a.23.23,0,0,1,.25.28l0,1.26Z" transform="translate(-8.95)"/><path class="cls-56" d="M165.23,115.62l.18-6.13,1.74.05-.19,6.13Z" transform="translate(-8.95)"/><path class="cls-56" d="M173.4,113.24a2.62,2.62,0,0,0,0-.28,1.84,1.84,0,0,0,0-.26v-.08l1.72,0-.09,3c0,.16-.08.23-.22.23l-4.61-.14a3.25,3.25,0,0,1-1.16-.21,1.89,1.89,0,0,1-.76-.51,1.93,1.93,0,0,1-.4-.78,3.56,3.56,0,0,1-.11-1l0-1.26a3.37,3.37,0,0,1,.17-1,1.88,1.88,0,0,1,.45-.76,1.92,1.92,0,0,1,.79-.46,3.41,3.41,0,0,1,1.17-.14l4.58.14a.23.23,0,0,1,.24.26l0,1.32-1.63.54h-.07l0-.59s0-.08-.07-.08l-2.93-.09a1.33,1.33,0,0,0-.42,0,.62.62,0,0,0-.29.15.62.62,0,0,0-.17.3,1.86,1.86,0,0,0-.07.46l0,1.08a1.1,1.1,0,0,0,.19.78.94.94,0,0,0,.7.24l2.9.09a.09.09,0,0,0,.1-.1Z" transform="translate(-8.95)"/><path class="cls-56" d="M178.76,109.9a.49.49,0,0,1,.27.06.72.72,0,0,1,.14.19l2.19,4.48a.19.19,0,0,0,.15.1h.1c.09,0,.13,0,.14-.13l.14-4.61,1.57.05-.18,5.88c0,.17-.08.24-.24.24l-2.49-.08a.62.62,0,0,1-.27,0,.7.7,0,0,1-.16-.2l-2.27-4.47a.18.18,0,0,0-.16-.11h-.08c-.09,0-.14,0-.14.13l-.14,4.61-1.57,0,.18-5.88c0-.16.08-.25.24-.24Z" transform="translate(-8.95)"/><path class="cls-57" d="M173.37,79.27a27.94,27.94,0,0,1-4.54,13.81,16.52,16.52,0,0,1-5.93,5.51,35.63,35.63,0,0,1-8.06-4.85,41.13,41.13,0,0,1-13.16-19.53A45.35,45.35,0,0,0,156.45,93.6a29.78,29.78,0,0,0,6.45,3.79V94.2a20.27,20.27,0,0,1-2.12-.93c-8.09-4.08-12.34-12.57-14.32-18.07l0,0A39.59,39.59,0,0,1,145,70.11h1.47l-.48,1,0,0c.23,1,.5,2,.8,3a.19.19,0,0,0,0,.08A30.66,30.66,0,0,0,162.9,93.1a20.23,20.23,0,0,0,7.93-15.44V76.35l1.51.46Z" transform="translate(-8.95)"/><path class="cls-58" d="M221.33,113.9s-2.19,7.17-.12,18.34c0,0,1-14.15,1.82-15.38s3-.65,3-.65A48.7,48.7,0,0,0,221.33,113.9Z" transform="translate(-8.95)"/><path class="cls-59" d="M200,152.93a29.14,29.14,0,0,1-6.51-9.07c-4.59-9.18-5.91-15.3-6.12-16.37l1.09-1.68,1.46-14.11,1.36-.82a57.59,57.59,0,0,0,8.57-13.49,3.13,3.13,0,0,1,.19.59h0c.74,2.94,2.28,13.92,3.7,17.84a9,9,0,0,0,3.33,4.49s-8.43,12.51-8.84,21.44C197.87,149.87,199.68,152.52,200,152.93Z" transform="translate(-8.95)"/><path class="cls-60" d="M149.94,179s-15.21-2.5-21.41-6.5h0a5.07,5.07,0,0,0,.08-1c-.13-3.42-3.09-6.46-3.51-8.4.07.18.52,1.21,2.68,3.06a45.58,45.58,0,0,0,6.52,4.51l.24.13c4.38,2.59,8.16,4.35,10.89,5.64l0,0c2.46,1.15,4,1.91,4.47,2.55A0,0,0,0,1,149.94,179Z" transform="translate(-8.95)"/><path class="cls-61" d="M182.46,166.91c-.08.59-1.43,1.89-1.81,3.3,0,0-5.58,5.9-26.22,4.09.14-.58,4.47.26,14.53-1.76C178.71,170.59,182.25,167.12,182.46,166.91Z" transform="translate(-8.95)"/><path class="cls-62" d="M185.89,87,172.7,91.28l-3.87,1.8H162.9l-2.12.17-1.13.08-3.2.25-1.61.14L139,88l-2.83-1-13-4.72,1.18-.46c8.74-3.46,17.31-7.66,17.31-7.66l3.29-4h1.47a50.82,50.82,0,0,0,2.74-7.66l.87-3.91c.06-.38.08-.58.08-.58l4.66,2.46L170.48,73c0,.86,0,1.63.07,2.28l.22,1.58c0-.31.06-.49.06-.49l1.51.46,1,2.46s1.76,2.73,8.71,5.78C183.27,85.58,184.56,86.25,185.89,87Z" transform="translate(-8.95)"/><path class="cls-63" d="M175.84,75a21.54,21.54,0,0,1-12.94-1.9c-6.79-3.29-12.5-13-12.85-15.41s2.6-8.74,2.6-13.67-2.42-13.42,1.64-18,22.76-5.27,28.83.61c0,0,1.87,4.72,1.87,7.38a19.33,19.33,0,0,1-.28,2.68c-.06.41-.13.84-.2,1.28-.54,3.23-1.29,7.17-.94,8.9a8.25,8.25,0,0,0,.54,1.68h0c.75,1.72,1.86,3.1,2.06,4.59C186.43,55.07,183.81,68.91,175.84,75Z" transform="translate(-8.95)"/><path class="cls-64" d="M152.6,42.6s-1.68-4.22-5.9-4.28c0,0-2.46,1-2.85,2.86a78.35,78.35,0,0,0,1.94,10c1,3.18,4.85,2.72,4.85,2.72A16.16,16.16,0,0,0,152.6,42.6Z" transform="translate(-8.95)"/><path class="cls-65" d="M168.81,56.47a3.8,3.8,0,0,1,2,.35c.61.45,2.82,2.59,5.61,3.18s4.66-1.79,5.26-1.92,1.24.72,1.24.72a2.32,2.32,0,0,0-1.71-1.41s-.58,2.24-4.63,1.47-5.77-2.56-5.77-2.56l-.2-.37A11.38,11.38,0,0,0,168.81,56.47Z" transform="translate(-8.95)"/><path class="cls-66" d="M162.84,35.51l.06-.43s4-7.08,12-7.27,9.78,4.8,9.78,4.8l1.48-2.24-3.37-6.85-23.45-.39-5.71,4.61L152.92,39l2.54,14.89,6.18,3.3,1.75-1.55c-.65-5-4.36-9.54-4.36-9.54l2.71-1.88s6.94,3.36,11,2.36c0,0,3-8.81,2.84-15.34C175.54,31.26,165.25,32.78,162.84,35.51Z" transform="translate(-8.95)"/><path class="cls-67" d="M162.49,36s.39-2.55,4.69-3.57c4.8-1.14,8.69-2.1,8.69-2.1s-.85,2.8-2.44,3.84a41.21,41.21,0,0,0-7.65.4C163.22,35.2,162.49,36,162.49,36Z" transform="translate(-8.95)"/><path class="cls-67" d="M184.7,32.61A14.88,14.88,0,0,0,180.61,39s1.59-2.08,3.06-2a.84.84,0,0,1,.84,1A9.39,9.39,0,0,0,184.7,32.61Z" transform="translate(-8.95)"/><path class="cls-68" d="M164.1,43.25s.26-5.38,5.51-6.75a11,11,0,0,1,2.08,5.19S168.9,41.18,164.1,43.25Z" transform="translate(-8.95)"/><path class="cls-69" d="M179.15,45.39s.43-4.28,2.89-5.87c0,0,1.68,1.26,1.51,4.85C183.55,44.37,182.08,43.84,179.15,45.39Z" transform="translate(-8.95)"/><path class="cls-70" d="M164.1,43.25s1.71,2.1,6.49,2.51a7.44,7.44,0,0,0,.82-4.1S167,41.24,164.1,43.25Z" transform="translate(-8.95)"/><path class="cls-70" d="M179.15,45.39V46s.74,1.54,3.38,1.8a7.39,7.39,0,0,0,.92-3.48S181.77,43.92,179.15,45.39Z" transform="translate(-8.95)"/><path class="cls-71" d="M169.21,41.55a6,6,0,0,0-1.11,3.8,18.5,18.5,0,0,0,2.49.41,6.47,6.47,0,0,0,.82-4.1A6.55,6.55,0,0,0,169.21,41.55Z" transform="translate(-8.95)"/><path class="cls-71" d="M181.66,44.42s-.69.73-.82,3a5.18,5.18,0,0,0,1.69.41,6.29,6.29,0,0,0,.92-3.48A3,3,0,0,0,181.66,44.42Z" transform="translate(-8.95)"/><path class="cls-67" d="M168.81,45.51s-.43-2.91,1.24-4l1.36.17a5.89,5.89,0,0,1-.82,4.1S169.23,45.61,168.81,45.51Z" transform="translate(-8.95)"/><path class="cls-67" d="M182.26,44.29a12.67,12.67,0,0,0-.9,3.31,3.85,3.85,0,0,0,1.17.22,5.71,5.71,0,0,0,.92-3.48A2.73,2.73,0,0,0,182.26,44.29Z" transform="translate(-8.95)"/><path class="cls-72" d="M164.1,43.25s3.18-1.85,8.6-.79l-1-.77A9.05,9.05,0,0,0,164.1,43.25Z" transform="translate(-8.95)"/><path class="cls-72" d="M179.15,45.39a8.6,8.6,0,0,1,5.53-.63l-1.23-.91A6,6,0,0,0,179.15,45.39Z" transform="translate(-8.95)"/><path class="cls-11" d="M167.54,43.25a1.87,1.87,0,0,1,1.64.6A1.5,1.5,0,0,1,167.54,43.25Z" transform="translate(-8.95)"/><path class="cls-11" d="M180.32,45.76s1.36-.26,1.83.36C182.15,46.12,181.42,46.62,180.32,45.76Z" transform="translate(-8.95)"/><path class="cls-73" d="M164.42,43.57a12.5,12.5,0,0,0,6.43,3l.1-1.45-.36.61S166.78,45.54,164.42,43.57Z" transform="translate(-8.95)"/><path class="cls-73" d="M179.15,46s.44,1.58,3.66,2.3l-.1-.78-.18.28A5.51,5.51,0,0,1,179.15,46Z" transform="translate(-8.95)"/><path class="cls-74" d="M172.7,52.34a11.41,11.41,0,0,1,3.4,0c2.21.26,4.69.86,6.05,0a8.36,8.36,0,0,1-3.36,2.08c-1.56.27-3.94-1.1-3.94-1.1l-1,0A2.77,2.77,0,0,1,172.7,52.34Z" transform="translate(-8.95)"/><path class="cls-75" d="M174,53.34a1.69,1.69,0,0,1,1-.27c.45.09.91.75.91.75A4.42,4.42,0,0,0,174,53.34Z" transform="translate(-8.95)"/><path class="cls-76" d="M182.15,52.34c.57-.56-2.41-5.88-3.84-6.08s-2.77,6-2.77,6l3.91.54A3.49,3.49,0,0,0,182.15,52.34Z" transform="translate(-8.95)"/><path class="cls-77" d="M184.28,35.6c-.81-.11-3.66,3.37-3.66,3.37s-1.82,5.62-1.46,7.29,4.77,2.55,4.77,2.55l.18-.29h0a8.25,8.25,0,0,1-.54-1.68c-.35-1.73.4-5.67.94-8.9a6.45,6.45,0,0,0,.2-1.28C184.73,36.13,184.65,35.64,184.28,35.6Z" transform="translate(-8.95)"/><path class="cls-78" d="M184.15,58.44c-.91-1.91-.35-2.9-8.26-3.93-11.2-1.48-12.16,1.94-14.07,1.42l-.22-.08c-2.06-.8-6.92-5.58-7-12a17.67,17.67,0,0,1,4.35-11.43c-1.62-1.36-2.27-5.32-.52-7s4.75-1.29,12.08-.52,7.33.33,7.33.33a7.05,7.05,0,0,1,4.05,3.48l.11.22.91-.84a12,12,0,0,1,2,7.46s4-8.18,3.56-9.34a30.88,30.88,0,0,0-3.3-5.45h0s-.65-6.23-2.59-6.23-10.26,1.88-10.26,1.88a11.8,11.8,0,0,0,.78-4.6l0,0c-2.71,2.43-5.37,2.7-9.12,4.44a9.55,9.55,0,0,0-3.52,2.55l-.25.3-.27.32a12.33,12.33,0,0,1-.85,1s0,0,0,0l0,0a10,10,0,0,1-1.09,1c-2.46,2-7.89,3.35-8.54,5.47s.82,5,1.6,8a16.1,16.1,0,0,1,.42,5.62,11.07,11.07,0,0,1,1.73,8.2c-.76,4.37-2.43,5.08-2.43,5.08a7.45,7.45,0,0,0-.61,4.65c2.39,9.54,12.31,15.22,12.31,15.22,8.83,3.29,14.63,1.85,14.63,1.85h0c6.42-4.19,8.62-18,8.71-18.69C185.58,57.1,184.39,59,184.15,58.44Zm-4,8.83c-1.55-.26-1.88-4.2-2.4-4.72s-3.33-.3-3.33-.3-2.6,2.94-3.63,3-6.58-2.17-5.38-5.54,5.38-3.81,5.38-3.81a10.08,10.08,0,0,0,5.4,2c3.25.21,4.42-.39,4.8-.56s2.48.78,2.43,3.72C183.43,63.17,181.75,67.53,180.19,67.27Z" transform="translate(-8.95)"/><path class="cls-79" d="M179.79,47.44s2.8,3.48,2.53,4.78-3.53,2.2-3.53,2.2,2.59-.9,3.13-2.2A17.35,17.35,0,0,0,179.79,47.44Z" transform="translate(-8.95)"/><path class="cls-80" d="M184.87,35.53a12,12,0,0,0-2-7.46,19.86,19.86,0,0,0,2.26-7.34h0a25.38,25.38,0,0,1,1.06,4.86l2.24.59C188.89,27.35,184.87,35.53,184.87,35.53Z" transform="translate(-8.95)"/><path class="cls-81" d="M181.84,28.69a7.05,7.05,0,0,0-4.05-3.48s0,.45-7.33-.33-10.32-1.16-12.08.52-1.1,5.65.52,7a17.67,17.67,0,0,0-4.35,11.43c.13,6.43,5,11.21,7,12l-.1.71s.36,14.73,3.95,15.9,11,.56,11.69,1.26-.09,1.78-.16,1.89h0s-5.8,1.44-14.63-1.85c0,0-9.92-5.68-12.31-15.22a7.45,7.45,0,0,1,.61-4.65s1.67-.71,2.43-5.08a11.07,11.07,0,0,0-1.73-8.2,16.1,16.1,0,0,0-.42-5.62c-.78-3-2.25-5.89-1.6-8a9.31,9.31,0,0,0,6.88-1.51s.72-1,3.94-1.53,16.13.78,16.13.78a11.19,11.19,0,0,0-4-1.78c-2.57-.68-11.37.11-12.31.18,1-.18,11-1.89,12.12-1.55s5.52,2.34,5.52,2.34c-.39-2-4.26-6.75-4.26-6.75a61.44,61.44,0,0,0-9,.84A11.79,11.79,0,0,0,159,20.43l.85-1,.27-.32.25-.3,1.25-.21,6.26-2.53A26.92,26.92,0,0,0,173,11.81l0,0a11.8,11.8,0,0,1-.78,4.6c5.29-.65,7.08-.32,7.08-.32C181.75,19.46,181.84,28.69,181.84,28.69Z" transform="translate(-8.95)"/><path class="cls-82" d="M162.34,73.76a33,33,0,0,1,8.14-.57c4.89.19,7.71.21,6.49,2.42C177,75.61,170.83,77,162.34,73.76Z" transform="translate(-8.95)"/><path class="cls-83" d="M179.35,16.06s3-1.16,4.15-1a2.34,2.34,0,0,0-.95-.75c-.49-.13-10.28,2-10.28,2S178.37,15.67,179.35,16.06Z" transform="translate(-8.95)"/><path class="cls-84" d="M173.31,17.16s-.23,3.24-1.26,4.41l-12.12,1.55-3.56-.63a8.9,8.9,0,0,0,2.89-2.35C160.77,18.38,168.67,16.64,173.31,17.16Z" transform="translate(-8.95)"/><path class="cls-85" d="M185.12,20.73a27.58,27.58,0,0,1,1.07,4.87l2.24.59A16.11,16.11,0,0,0,185.12,20.73Z" transform="translate(-8.95)"/><path class="cls-86" d="M152.1,48.32s-.85-4.09-2.94-6.12a4.91,4.91,0,0,0-4.47-1.37s.65,7.58,1.33,9.43a4.07,4.07,0,0,0,1.72,2.34,5.82,5.82,0,0,1-1.65-3.79c-.2-2.51-.26-6,.29-6.47s2.78,1.23,2.78,1.23A7.3,7.3,0,0,0,148,46.66c-.42,2.24,1.14,3.86,1.72,3.83s0-2.59.07-3.32S151.21,46.6,152.1,48.32Z" transform="translate(-8.95)"/><path class="cls-87" d="M150,43.23a5.1,5.1,0,0,0-2,4.57c.25,3.08,2,2.94,2,2.3a19.13,19.13,0,0,1-.16-3.25c.18-.94,1.7-.51,1.7-.51A23.24,23.24,0,0,0,150,43.23Z" transform="translate(-8.95)"/><path class="cls-88" d="M185.69,56.92S182.86,69.85,177,75.61C177,75.61,183.69,73,185.69,56.92Z" transform="translate(-8.95)"/><path class="cls-88" d="M182.55,14.34s1.49,1.16,1.78,5.2a23.17,23.17,0,0,1-1.47,8.53,16.32,16.32,0,0,0,2.46-7C185.54,17.36,183.73,14.8,182.55,14.34Z" transform="translate(-8.95)"/><path class="cls-89" d="M164.44,22.8a34.63,34.63,0,0,0,7.25,1.51l4.58.41a8.88,8.88,0,0,0-4.78-1.92A32.52,32.52,0,0,0,164.44,22.8Z" transform="translate(-8.95)"/><path class="cls-90" d="M181.15,57.21a2.61,2.61,0,0,1,2.31,2.07,17.14,17.14,0,0,1,.66,3.09l.59-2.28s-.77-2.88-1.56-3.53a3.27,3.27,0,0,0-2-.83Z" transform="translate(-8.95)"/><path class="cls-91" d="M176.69,55.13,177,57.6a8.83,8.83,0,0,0,3.35-.39l.24-1.5A19.09,19.09,0,0,0,176.69,55.13Z" transform="translate(-8.95)"/><path class="cls-88" d="M185.89,87s11.8,8.62,13.34,11.58,2.15,12.27,4.22,16.29c0,0-1.42-6.58-2.41-11.74s-.76-5.24-1.31-6.5S190.37,89.26,185.89,87Z" transform="translate(-8.95)"/><path class="cls-88" d="M183.78,135s-5.69,24.36-5.43,26,3.94,5,4.11,5.92c0,0-2.82,3.77-2.69,4.61s4.94,6.11,4.81,7.74c0,.48-3.16,5.62-3.16,5.62s3.53-5.06,3.7-5.86-4.32-7.56-4.45-8.24c-.34-1.78,2.24-3.08,2.33-4.25s-3.49-4-3.52-5.93S183.78,135,183.78,135Z" transform="translate(-8.95)"/><path class="cls-88" d="M184.93,193s6.78,37.69,11,65.53C195.91,258.57,200.72,221.55,184.93,193Z" transform="translate(-8.95)"/><path class="cls-76" d="M107,81.42a7,7,0,0,1-4.5-3.46c-1.32-2.77-.46-6.79-.46-6.79a69.75,69.75,0,0,0,3.73,6.41C107,79.21,107.31,81.07,107,81.42Z" transform="translate(-8.95)"/><path class="cls-92" d="M205.14,66.9l2.21,62.89a4.63,4.63,0,0,0,4.63,4.47H320.32a4.63,4.63,0,0,0,4.63-4.52l1.52-63.62a4.64,4.64,0,0,0-4.67-4.75l-112.06.74A4.62,4.62,0,0,0,205.14,66.9Z" transform="translate(-8.95)"/><path class="cls-93" d="M320.32,134.44H212a4.79,4.79,0,0,1-4.8-4.64L205,66.91a4.8,4.8,0,0,1,4.77-5L321.8,61.2a4.81,4.81,0,0,1,3.46,1.44,4.76,4.76,0,0,1,1.38,3.48l-1.52,63.62A4.77,4.77,0,0,1,320.32,134.44Zm1.51-72.9h0l-112.06.74a4.46,4.46,0,0,0-4.43,4.62l2.21,62.89a4.44,4.44,0,0,0,4.46,4.3H320.32a4.49,4.49,0,0,0,4.46-4.35l1.51-63.63A4.4,4.4,0,0,0,325,62.88,4.46,4.46,0,0,0,321.83,61.54Z" transform="translate(-8.95)"/><path class="cls-94" d="M205.3,70.11h121l.19-3.32a5.09,5.09,0,0,0-5.11-5.38l-112,.89a4.2,4.2,0,0,0-4.17,4.28Z" transform="translate(-8.95)"/><polygon class="cls-95" points="202.44 75.18 202.44 111.58 239.49 111.58 239.49 74.99 202.44 75.18"/><rect class="cls-96" x="275.29" y="77.62" width="16.12" height="16.12"/><rect class="cls-97" x="294.3" y="77.62" width="16.12" height="16.12"/><rect class="cls-98" x="255.96" y="77.62" width="16.12" height="16.12"/><rect class="cls-99" x="269.21" y="103.13" width="41.21" height="3.86"/><rect class="cls-99" x="258.9" y="109.01" width="51.52" height="1.19"/><rect class="cls-99" x="259.38" y="95.79" width="9.86" height="1.19"/><rect class="cls-99" x="278.42" y="95.79" width="9.86" height="1.19"/><rect class="cls-99" x="297.43" y="95.79" width="9.86" height="1.19"/><rect class="cls-99" x="255.96" y="110.95" width="16.57" height="1.19"/><rect class="cls-99" x="258.9" y="112.87" width="51.52" height="1.19"/><rect class="cls-99" x="255.96" y="114.79" width="54.46" height="1.19"/><rect class="cls-99" x="255.96" y="116.71" width="54.46" height="1.19"/><rect class="cls-99" x="258.9" y="124.46" width="51.52" height="1.19"/><rect class="cls-99" x="255.96" y="126.38" width="54.46" height="1.19"/><rect class="cls-99" x="255.96" y="128.3" width="54.46" height="1.19"/><rect class="cls-99" x="255.96" y="118.63" width="52.27" height="1.19"/><rect class="cls-99" x="258.9" y="120.54" width="51.52" height="1.19"/><rect class="cls-99" x="255.96" y="122.46" width="44.13" height="1.19"/><g class="cls-100"><path class="cls-101" d="M221.77,104.28a10.54,10.54,0,1,1,10.54-10.54A10.55,10.55,0,0,1,221.77,104.28Zm0-20.4a9.86,9.86,0,1,0,9.85,9.86A9.87,9.87,0,0,0,221.77,83.88Z" transform="translate(-8.95)"/></g><circle class="cls-11" cx="212.82" cy="93.74" r="5.73"/><g class="cls-100"><path class="cls-101" d="M248.44,85.53A10.54,10.54,0,1,1,259,75,10.55,10.55,0,0,1,248.44,85.53Zm0-20.4A9.86,9.86,0,1,0,258.29,75,9.87,9.87,0,0,0,248.44,65.13Z" transform="translate(-8.95)"/></g><circle class="cls-11" cx="248.44" cy="74.99" r="5.39" transform="translate(126.79 308.75) rotate(-81.06)"/><g class="cls-100"><polygon class="cls-11" points="200.59 65.17 201.36 64 205.53 67.65 204.89 68.54 200.59 65.17"/><polygon class="cls-11" points="205.63 65.17 204.86 64 200.7 67.65 201.34 68.54 205.63 65.17"/></g><rect class="cls-11" x="277.16" y="64.79" width="37.3" height="1.87"/><polygon class="cls-102" points="80.88 37.79 80.88 53.98 100.24 54.14 100.5 37.27 80.88 37.79"/><polygon class="cls-103" points="100.5 37.27 101.76 39.4 101.13 54.13 100.24 54.14 100.5 37.27"/><polygon class="cls-11" points="84.34 43.25 86.12 40.66 95.79 48.77 94.31 50.75 84.34 43.25"/><polygon class="cls-11" points="96.04 43.25 94.25 40.66 84.58 48.77 86.07 50.75 96.04 43.25"/><path class="cls-104" d="M129.48,238.14H63.23c-2.94,0,.16-12.2.1-15.15l-1.24-54.33a5.42,5.42,0,0,1,5.42-5.55h69a5.43,5.43,0,0,1,5.43,5.57L140.42,223C140.34,226,132.42,238.14,129.48,238.14Z" transform="translate(-8.95)"/><path class="cls-105" d="M129.48,238.31H63.23c-3,0,0-12.3-.07-15.32l-1.24-54.33a5.58,5.58,0,0,1,5.59-5.72h69a5.59,5.59,0,0,1,5.6,5.75L140.59,223C140.5,226.07,132.53,238.31,129.48,238.31Zm-62-75a5.26,5.26,0,0,0-5.25,5.37L63.5,223c.06,2.83-3.1,15-.27,15h66.25c2.86,0,10.69-12.09,10.77-15l1.49-54.33a5.26,5.26,0,0,0-5.26-5.4Z" transform="translate(-8.95)"/><rect class="cls-11" x="71" y="174.22" width="34.84" height="1.49"/><rect class="cls-11" x="71" y="177.85" width="17.42" height="1.49"/><rect class="cls-11" x="71" y="180.88" width="17.42" height="1.49"/><rect class="cls-11" x="90.37" y="180.88" width="13.86" height="1.49"/><rect class="cls-11" x="71" y="183.91" width="28.08" height="1.49"/><rect class="cls-11" x="71" y="186.94" width="10" height="1.49"/><rect class="cls-11" x="83.05" y="196.02" width="17.29" height="1.49"/><rect class="cls-11" x="71" y="189.96" width="31.33" height="1.49"/><rect class="cls-11" x="71" y="192.99" width="24.1" height="1.49"/><rect class="cls-11" x="71" y="196.02" width="11.34" height="1.49"/><rect class="cls-11" x="71" y="199.05" width="17.42" height="1.49"/><rect class="cls-11" x="71" y="202.08" width="5" height="1.49"/><rect class="cls-11" x="78.05" y="202.08" width="18.13" height="1.49"/><rect class="cls-11" x="83.05" y="205.02" width="17.29" height="1.49"/><rect class="cls-11" x="71" y="205.02" width="11.34" height="1.49"/><rect class="cls-11" x="71" y="208.05" width="17.42" height="1.49"/><rect class="cls-11" x="71" y="211.08" width="5" height="1.49"/><rect class="cls-11" x="78.05" y="211.08" width="18.13" height="1.49"/><path class="cls-106" d="M312.75,49.24a3.07,3.07,0,1,1-3.07-3.06A3.08,3.08,0,0,1,312.75,49.24Z" transform="translate(-8.95)"/><path class="cls-107" d="M25.75,120.25a3.81,3.81,0,1,1-3.81-3.81A3.81,3.81,0,0,1,25.75,120.25Z" transform="translate(-8.95)"/><circle class="cls-108" cx="309.72" cy="49.24" r="3.06"/><circle class="cls-109" cx="112.29" cy="70.29" r="2.16"/><circle class="cls-110" cx="257.3" cy="165.82" r="2.16"/><circle class="cls-111" cx="32.23" cy="187.41" r="1.94"/><path class="cls-112" d="M74.17,168.41H40.74a5,5,0,0,1-5-4.83l-.74-22a5,5,0,0,1,5-5.16H74.85a5,5,0,0,1,5,5.14l-.67,22A5,5,0,0,1,74.17,168.41Z" transform="translate(-8.95)"/><path class="cls-113" d="M74.17,168.58H40.74a5.14,5.14,0,0,1-5.16-5l-.74-22A5.16,5.16,0,0,1,40,136.27H74.85A5.14,5.14,0,0,1,80,141.58l-.67,22A5.14,5.14,0,0,1,74.17,168.58ZM40,136.61a4.82,4.82,0,0,0-4.82,5l.74,22a4.81,4.81,0,0,0,4.82,4.66H74.17A4.81,4.81,0,0,0,79,163.56l.67-22a4.82,4.82,0,0,0-4.81-5Z" transform="translate(-8.95)"/><polygon class="cls-11" points="40.7 144.34 32.46 153.89 40.85 161.02 40.85 157.34 36 153.14 40.51 148.04 40.7 144.34"/><polygon class="cls-11" points="55.19 144.77 63.43 154.32 55.04 161.45 55.04 157.77 59.9 153.56 54.49 147.85 55.19 144.77"/><polygon class="cls-11" points="42.5 161.02 49.68 145.2 53.05 145.2 44.92 161.02 42.5 161.02"/><path class="cls-114" d="M299.11,213.66H257.29a6.25,6.25,0,0,1-6.24-6l-.93-27.51a6.24,6.24,0,0,1,6.24-6.45H300a6.23,6.23,0,0,1,6.23,6.43l-.84,27.51A6.24,6.24,0,0,1,299.11,213.66Z" transform="translate(-8.95)"/><path class="cls-113" d="M299.11,213.83H257.29a6.39,6.39,0,0,1-6.41-6.2L250,180.12a6.42,6.42,0,0,1,6.41-6.63H300a6.42,6.42,0,0,1,6.42,6.61l-.85,27.51A6.38,6.38,0,0,1,299.11,213.83Zm-42.75-40a6.08,6.08,0,0,0-6.07,6.27l.93,27.51a6.05,6.05,0,0,0,6.07,5.87h41.82a6,6,0,0,0,6.07-5.89l.84-27.51a6.06,6.06,0,0,0-6.07-6.25Z" transform="translate(-8.95)"/><rect class="cls-99" x="249.55" y="178.09" width="38.31" height="22.75"/><polygon class="cls-11" points="265.31 183.74 265.31 195.2 275.1 188.94 265.31 183.74"/><rect class="cls-99" x="249.55" y="205.04" width="38.31" height="2.08"/><rect class="cls-11" x="249.55" y="205.04" width="9.92" height="2.08"/><path class="cls-115" d="M230.44,170.9l-2,5.72C229.55,173.46,231.13,171.41,230.44,170.9Zm-2,5.72-2,5.72C226.94,182.19,227.33,179.78,228.44,176.62Zm2-5.72-2,5.72C229.55,173.46,231.13,171.41,230.44,170.9Zm-2,5.72-2,5.72C226.94,182.19,227.33,179.78,228.44,176.62Zm5.77,5,1.95,1.1,2.09-5.72-2.24-.38c0-.21.08-.42.1-.63a14.84,14.84,0,0,0,.19-2.86l2.35-1.47-1.07-5-2.25,2.15a6.75,6.75,0,0,0-1.15-1.68c-.12-.13-.26-.26-.39-.38l1.38-3.17-3.67-1.2h0l-.88,3.21a5.94,5.94,0,0,0-2.48.58l-.4-3-4,3.05.94,2.69a14.74,14.74,0,0,0-2,2.86l-1.95-1.09-2.09,5.72,2.24.37a15.71,15.71,0,0,0-.29,3.49l-2.35,1.47,1.07,5,2.25-2.15a6.32,6.32,0,0,0,1.54,2.05l-1.38,3.19,3.61,1.4.56-2,.38-1.38a6.23,6.23,0,0,0,2.48-.58l.4,3,4-3.06-.94-2.68a15.3,15.3,0,0,0,1.59-2.2C234,182,234.09,181.81,234.21,181.58Zm-5.77-5c-1.11,3.16,0,6.42-2,5.72s-2.74-3.83-1.63-7,3.63-5.15,5.63-4.45S229.55,173.46,228.44,176.62Zm2-5.72-2,5.72C229.55,173.46,231.13,171.41,230.44,170.9Zm-2,5.72-2,5.72C226.94,182.19,227.33,179.78,228.44,176.62Z" transform="translate(-8.95)"/><path class="cls-116" d="M236.16,182.68l2.09-5.72-2.14-1-.34-.17.22-3.15,2.38-1.16-.79-4.89-5.17-1.68,1,2.27,1.81-3.67-3.67-1.2-1.5-.49-3.61-1.41-.68,2.47-3.14-1.5-4,3.06,1.23,3.3L216,178.19,214.12,185l3.58.39-1.16,2.69,3.61,1.41,5.17,1.68-.83-1.66-.52-1,1.91.62,3.26,1.07,4-3.06-2.5-2.94,3.15-1.94Zm-11.35-7.33c1.1-3.16,3.63-5.15,5.63-4.45l-2,5.72-2,5.72C224.43,181.63,223.7,178.51,224.81,175.35Z" transform="translate(-8.95)"/><path class="cls-117" d="M231,181l2.09-5.72-2.25-.38a15,15,0,0,0,.3-3.48l2.35-1.47-1.07-5-2.25,2.15a6.36,6.36,0,0,0-1.54-2.06l1.38-3.18-3.61-1.41-.94,3.42a6.1,6.1,0,0,0-2.48.58l-.4-3-4,3.06.92,2.68a15.24,15.24,0,0,0-2,2.87l-1.95-1.1-2.09,5.72,2.24.38a15.58,15.58,0,0,0-.29,3.48l-2.35,1.48,1.07,5,2.25-2.15a6.32,6.32,0,0,0,1.54,2l-1.38,3.18,3.61,1.41.94-3.42a5.94,5.94,0,0,0,2.48-.58l.4,3,4-3.05-.93-2.69a15.27,15.27,0,0,0,2-2.87Zm-9.72-.34c-2-.7-2.74-3.83-1.63-7s3.63-5.14,5.63-4.44,2.74,3.83,1.63,7S223.27,181.36,221.27,180.65Z" transform="translate(-8.95)"/><polygon class="cls-118" points="229.7 171.62 224.53 169.94 222.18 171.41 227.35 173.09 229.7 171.62"/><polygon class="cls-119" points="224.22 187.13 219.05 185.45 218.12 182.76 223.29 184.45 224.22 187.13"/><polygon class="cls-118" points="219.67 164.99 222.5 165.81 223.46 164.9 225.34 165.51 226.21 163.5 221.04 161.81 219.67 164.99"/><path class="cls-118" d="M221.09,186.05l2.7,1.13-.22-1.71A4.87,4.87,0,0,1,221.09,186.05Z" transform="translate(-8.95)"/><path class="cls-118" d="M221.5,170.55l4.56,2.41a7.07,7.07,0,0,1,1.18-1.24S226.05,166.69,221.5,170.55Z" transform="translate(-8.95)"/><polygon class="cls-120" points="107.9 0 112.29 8.8 109.36 10.14 105.25 2.05 107.9 0"/><polygon class="cls-121" points="8.94 205.08 13 209.55 14.6 207.7 10.76 203.48 8.94 205.08"/><polygon class="cls-122" points="215.69 53.72 211.59 56.2 209.95 53.09 214.43 50.47 215.69 53.72"/><polygon class="cls-122" points="235.86 211.1 229.99 215.27 228.34 212.15 234.04 208.82 235.86 211.1"/><polygon class="cls-123" points="228.1 32.43 227.11 9.37 257.3 9.37 256.06 32.36 228.1 32.43"/><polygon class="cls-124" points="227.11 9.37 226.21 10.73 227.11 32.43 228.1 32.43 227.11 9.37"/><polygon class="cls-11" points="237.13 13.97 232.4 13.47 233.05 29.27 237.13 28.87 237.13 27.23 234.77 27.29 234.5 15.1 237.13 15.18 237.13 13.97"/><polygon class="cls-11" points="246.84 13.97 251.58 13.47 250.93 29.27 246.84 28.87 246.84 27.23 249.21 27.29 249.48 15.1 246.84 15.18 246.84 13.97"/><polygon class="cls-125" points="19.91 82.91 20.58 67.19 0 67.19 0.85 82.87 19.91 82.91"/><polygon class="cls-126" points="20.58 67.19 21.2 68.12 20.58 82.91 19.91 82.91 20.58 67.19"/><path class="cls-11" d="M21.61,70.35a14.07,14.07,0,0,1,2.65.1c.4.18-.1,3.86-.1,3.86l.9.83-.84.81s0,3.73-.49,4a5.83,5.83,0,0,1-2.35,0v-.93A5.4,5.4,0,0,0,23.11,79a17.57,17.57,0,0,0,.22-3.45l.4-.44-.4-.47s.08-2.32,0-3c0-.42-1.75-.44-1.75-.44Z" transform="translate(-8.95)"/><path class="cls-11" d="M16.44,70.35a14.17,14.17,0,0,0-2.66.1c-.4.18.11,3.86.11,3.86l-.9.83.84.81s-.05,3.73.48,4a5.83,5.83,0,0,0,2.35,0v-.93A5.42,5.42,0,0,1,14.93,79a17.57,17.57,0,0,1-.22-3.45l-.4-.44.4-.47s-.07-2.32,0-3c0-.42,1.76-.44,1.76-.44Z" transform="translate(-8.95)"/><path class="cls-93" d="M202.54,34.51l-5-13.2L210.58,24ZM198,21.77l4.6,12L210,24.26Z" transform="translate(-8.95)"/><rect class="cls-93" x="237.02" y="218.38" width="7.49" height="0.34" transform="translate(-86.79 283.53) rotate(-53.76)"/><polygon class="cls-93" points="188.14 165.93 183.39 160.01 183.65 159.79 188.41 165.72 188.14 165.93"/><polygon class="cls-93" points="41.3 207.53 31.8 200.64 32.01 200.36 41.51 207.25 41.3 207.53"/><rect class="cls-93" x="39.74" y="203.78" width="11.74" height="0.34" transform="translate(-153.22 116.64) rotate(-52.7)"/><rect class="cls-93" x="31.76" y="101.23" width="0.34" height="6.95" transform="translate(-84.56 84.27) rotate(-62.28)"/><polygon class="cls-93" points="262.23 23.57 261.97 23.35 269.08 15.24 269.33 15.47 262.23 23.57"/><rect class="cls-93" x="134.42" y="42.88" width="0.34" height="7.13" transform="translate(-15.55 64.81) rotate(-26.45)"/><rect class="cls-93" x="81.46" y="153.99" width="10.65" height="0.34" transform="translate(-87.65 91.6) rotate(-39.91)"/></g></g></svg>